<svg width="211" height="48" viewBox="0 0 211 48" fill="none" xmlns="http://www.w3.org/2000/svg">
<path d="M19.6326 24.6989V0H27.2931C27.2576 5.56086 27.208 18.3508 27.2931 25.0239C26.3355 34.1235 19.6326 36.615 16.7599 37.4816C11.4402 38.8899 5.58844 36.29 3.35414 33.2568C-1.54004 27.6238 -0.0505075 21.5574 1.43903 17.5492C4.07763 12.0895 10.057 10.4356 12.7169 10.2912H18.7815V17.9825C18.2495 17.9103 16.2067 17.8092 12.2913 17.9825C8.20577 18.5892 7.39716 23.1462 7.50356 25.3489C7.85821 26.8293 9.39739 29.877 12.7169 30.2236C17.6537 30.7436 19.3844 26.7571 19.6326 24.6989Z" fill="#53A53F"/>
<path d="M28.0378 17.5492V10.2912C28.8247 10.2912 31.7617 9.96622 35.3791 12.0245C38.9966 14.0827 39.6349 18.3075 39.3157 20.7991C38.9966 23.2906 36.975 25.8905 34.1024 27.7321C34.8471 27.7321 37.4006 29.5737 38.7838 30.9819C40.1669 32.3902 42.5076 38.3483 39.6349 42.2481C36.0175 47.4479 31.0169 48.0978 24.9524 47.9895C17.8239 47.4479 14.9512 43.4397 13.5681 38.6733C14.8448 38.7816 18.7815 38.3483 21.5477 36.1817C21.3775 38.2616 22.4698 40.0093 23.0373 40.6232C23.782 41.4898 25.9312 43.0281 28.5698 42.2481C32.2937 41.1648 32.932 37.4816 32.5064 35.3151C32.0809 33.1485 29.421 30.8736 26.0163 31.3069C27.2931 29.3137 27.896 26.8655 28.0378 25.8905C28.9245 25.9627 30.9105 25.6955 31.7617 24.0489C32.8256 21.9907 31.9745 19.8241 31.0169 18.7408C30.2509 17.8742 28.7117 17.5853 28.0378 17.5492Z" fill="#53A53F"/>
<path d="M57.584 35.168C56.352 35.168 55.248 34.968 54.272 34.568C53.296 34.168 52.512 33.576 51.92 32.792C51.344 32.008 51.04 31.064 51.008 29.96H55.376C55.44 30.584 55.656 31.064 56.024 31.4C56.392 31.72 56.872 31.88 57.464 31.88C58.072 31.88 58.552 31.744 58.904 31.472C59.256 31.184 59.432 30.792 59.432 30.296C59.432 29.88 59.288 29.536 59 29.264C58.728 28.992 58.384 28.768 57.968 28.592C57.568 28.416 56.992 28.216 56.24 27.992C55.152 27.656 54.264 27.32 53.576 26.984C52.888 26.648 52.296 26.152 51.8 25.496C51.304 24.84 51.056 23.984 51.056 22.928C51.056 21.36 51.624 20.136 52.76 19.256C53.896 18.36 55.376 17.912 57.2 17.912C59.056 17.912 60.552 18.36 61.688 19.256C62.824 20.136 63.432 21.368 63.512 22.952H59.072C59.04 22.408 58.84 21.984 58.472 21.68C58.104 21.36 57.632 21.2 57.056 21.2C56.56 21.2 56.16 21.336 55.856 21.608C55.552 21.864 55.4 22.24 55.4 22.736C55.4 23.28 55.656 23.704 56.168 24.008C56.68 24.312 57.48 24.64 58.568 24.992C59.656 25.36 60.536 25.712 61.208 26.048C61.896 26.384 62.488 26.872 62.984 27.512C63.48 28.152 63.728 28.976 63.728 29.984C63.728 30.944 63.48 31.816 62.984 32.6C62.504 33.384 61.8 34.008 60.872 34.472C59.944 34.936 58.848 35.168 57.584 35.168ZM70.3576 23.504C70.7576 22.88 71.3096 22.376 72.0136 21.992C72.7176 21.608 73.5416 21.416 74.4856 21.416C75.5896 21.416 76.5896 21.696 77.4856 22.256C78.3816 22.816 79.0856 23.616 79.5976 24.656C80.1256 25.696 80.3896 26.904 80.3896 28.28C80.3896 29.656 80.1256 30.872 79.5976 31.928C79.0856 32.968 78.3816 33.776 77.4856 34.352C76.5896 34.912 75.5896 35.192 74.4856 35.192C73.5576 35.192 72.7336 35 72.0136 34.616C71.3096 34.232 70.7576 33.736 70.3576 33.128V41.384H66.2536V21.608H70.3576V23.504ZM76.2136 28.28C76.2136 27.256 75.9256 26.456 75.3496 25.88C74.7896 25.288 74.0936 24.992 73.2616 24.992C72.4456 24.992 71.7496 25.288 71.1736 25.88C70.6136 26.472 70.3336 27.28 70.3336 28.304C70.3336 29.328 70.6136 30.136 71.1736 30.728C71.7496 31.32 72.4456 31.616 73.2616 31.616C74.0776 31.616 74.7736 31.32 75.3496 30.728C75.9256 30.12 76.2136 29.304 76.2136 28.28ZM88.6387 35.192C87.3267 35.192 86.1427 34.912 85.0867 34.352C84.0467 33.792 83.2227 32.992 82.6147 31.952C82.0227 30.912 81.7267 29.696 81.7267 28.304C81.7267 26.928 82.0307 25.72 82.6387 24.68C83.2467 23.624 84.0787 22.816 85.1347 22.256C86.1907 21.696 87.3747 21.416 88.6867 21.416C89.9987 21.416 91.1827 21.696 92.2387 22.256C93.2947 22.816 94.1267 23.624 94.7347 24.68C95.3427 25.72 95.6467 26.928 95.6467 28.304C95.6467 29.68 95.3347 30.896 94.7107 31.952C94.1027 32.992 93.2627 33.792 92.1907 34.352C91.1347 34.912 89.9507 35.192 88.6387 35.192ZM88.6387 31.64C89.4227 31.64 90.0867 31.352 90.6307 30.776C91.1907 30.2 91.4707 29.376 91.4707 28.304C91.4707 27.232 91.1987 26.408 90.6547 25.832C90.1267 25.256 89.4707 24.968 88.6867 24.968C87.8867 24.968 87.2227 25.256 86.6947 25.832C86.1667 26.392 85.9027 27.216 85.9027 28.304C85.9027 29.376 86.1587 30.2 86.6707 30.776C87.1987 31.352 87.8547 31.64 88.6387 31.64ZM101.928 23.84C102.408 23.104 103.008 22.528 103.728 22.112C104.448 21.68 105.248 21.464 106.128 21.464V25.808H105C103.976 25.808 103.208 26.032 102.696 26.48C102.184 26.912 101.928 27.68 101.928 28.784V35H97.8239V21.608H101.928V23.84ZM115.554 31.52V35H113.466C111.978 35 110.818 34.64 109.986 33.92C109.154 33.184 108.738 31.992 108.738 30.344V25.016H107.106V21.608H108.738V18.344H112.842V21.608H115.53V25.016H112.842V30.392C112.842 30.792 112.938 31.08 113.13 31.256C113.322 31.432 113.642 31.52 114.09 31.52H115.554ZM123.288 35.192C122.12 35.192 121.08 34.992 120.168 34.592C119.256 34.192 118.536 33.648 118.008 32.96C117.48 32.256 117.184 31.472 117.12 30.608H121.176C121.224 31.072 121.44 31.448 121.824 31.736C122.208 32.024 122.68 32.168 123.24 32.168C123.752 32.168 124.144 32.072 124.416 31.88C124.704 31.672 124.848 31.408 124.848 31.088C124.848 30.704 124.648 30.424 124.248 30.248C123.848 30.056 123.2 29.848 122.304 29.624C121.344 29.4 120.544 29.168 119.904 28.928C119.264 28.672 118.712 28.28 118.248 27.752C117.784 27.208 117.552 26.48 117.552 25.568C117.552 24.8 117.76 24.104 118.176 23.48C118.608 22.84 119.232 22.336 120.048 21.968C120.88 21.6 121.864 21.416 123 21.416C124.68 21.416 126 21.832 126.96 22.664C127.936 23.496 128.496 24.6 128.64 25.976H124.848C124.784 25.512 124.576 25.144 124.224 24.872C123.888 24.6 123.44 24.464 122.88 24.464C122.4 24.464 122.032 24.56 121.776 24.752C121.52 24.928 121.392 25.176 121.392 25.496C121.392 25.88 121.592 26.168 121.992 26.36C122.408 26.552 123.048 26.744 123.912 26.936C124.904 27.192 125.712 27.448 126.336 27.704C126.96 27.944 127.504 28.344 127.968 28.904C128.448 29.448 128.696 30.184 128.712 31.112C128.712 31.896 128.488 32.6 128.04 33.224C127.608 33.832 126.976 34.312 126.144 34.664C125.328 35.016 124.376 35.192 123.288 35.192ZM146.796 32.024H140.508L139.5 35H135.204L141.3 18.152H146.052L152.148 35H147.804L146.796 32.024ZM145.74 28.856L143.652 22.688L141.588 28.856H145.74ZM158.108 23.84C158.588 23.104 159.188 22.528 159.908 22.112C160.628 21.68 161.428 21.464 162.308 21.464V25.808H161.18C160.156 25.808 159.388 26.032 158.876 26.48C158.364 26.912 158.108 27.68 158.108 28.784V35H154.004V21.608H158.108V23.84ZM176.893 28.088C176.893 28.472 176.869 28.872 176.821 29.288H167.533C167.597 30.12 167.861 30.76 168.325 31.208C168.805 31.64 169.389 31.856 170.077 31.856C171.101 31.856 171.813 31.424 172.213 30.56H176.581C176.357 31.44 175.949 32.232 175.357 32.936C174.781 33.64 174.053 34.192 173.173 34.592C172.293 34.992 171.309 35.192 170.221 35.192C168.909 35.192 167.741 34.912 166.717 34.352C165.693 33.792 164.893 32.992 164.317 31.952C163.741 30.912 163.453 29.696 163.453 28.304C163.453 26.912 163.733 25.696 164.293 24.656C164.869 23.616 165.669 22.816 166.693 22.256C167.717 21.696 168.893 21.416 170.221 21.416C171.517 21.416 172.669 21.688 173.677 22.232C174.685 22.776 175.469 23.552 176.029 24.56C176.605 25.568 176.893 26.744 176.893 28.088ZM172.693 27.008C172.693 26.304 172.453 25.744 171.973 25.328C171.493 24.912 170.893 24.704 170.173 24.704C169.485 24.704 168.901 24.904 168.421 25.304C167.957 25.704 167.669 26.272 167.557 27.008H172.693ZM187.218 21.464C188.786 21.464 190.034 21.976 190.962 23C191.906 24.008 192.378 25.4 192.378 27.176V35H188.298V27.728C188.298 26.832 188.066 26.136 187.602 25.64C187.138 25.144 186.514 24.896 185.73 24.896C184.946 24.896 184.322 25.144 183.858 25.64C183.394 26.136 183.162 26.832 183.162 27.728V35H179.058V21.608H183.162V23.384C183.578 22.792 184.138 22.328 184.842 21.992C185.546 21.64 186.338 21.464 187.218 21.464ZM194.414 28.28C194.414 26.904 194.67 25.696 195.182 24.656C195.71 23.616 196.422 22.816 197.318 22.256C198.214 21.696 199.214 21.416 200.318 21.416C201.262 21.416 202.086 21.608 202.79 21.992C203.51 22.376 204.062 22.88 204.446 23.504V21.608H208.55V35H204.446V33.104C204.046 33.728 203.486 34.232 202.766 34.616C202.062 35 201.238 35.192 200.294 35.192C199.206 35.192 198.214 34.912 197.318 34.352C196.422 33.776 195.71 32.968 195.182 31.928C194.67 30.872 194.414 29.656 194.414 28.28ZM204.446 28.304C204.446 27.28 204.158 26.472 203.582 25.88C203.022 25.288 202.334 24.992 201.518 24.992C200.702 24.992 200.006 25.288 199.43 25.88C198.87 26.456 198.59 27.256 198.59 28.28C198.59 29.304 198.87 30.12 199.43 30.728C200.006 31.32 200.702 31.616 201.518 31.616C202.334 31.616 203.022 31.32 203.582 30.728C204.158 30.136 204.446 29.328 204.446 28.304Z" fill="white"/>
</svg>
