<svg xmlns="http://www.w3.org/2000/svg" xmlns:xlink="http://www.w3.org/1999/xlink" width="500" zoomAndPan="magnify" viewBox="0 0 375 374.999991" height="500" preserveAspectRatio="xMidYMid meet" version="1.0"><defs><clipPath id="d9f9fe3d0a"><path d="M 172.875 187.5 L 202.125 187.5 L 202.125 231.75 L 172.875 231.75 Z M 172.875 187.5 " clip-rule="nonzero"/></clipPath><clipPath id="4c184c4ad5"><path d="M 63 0 L 311.96875 0 L 311.96875 375 L 63 375 Z M 63 0 " clip-rule="nonzero"/></clipPath></defs><g clip-path="url(#d9f9fe3d0a)"><path fill="#000000" d="M 174.503906 228.808594 C 174.632812 228.796875 174.847656 228.769531 174.972656 228.738281 C 175.636719 228.582031 175.414062 228.703125 175.523438 228.90625 C 175.480469 228.933594 175.457031 228.964844 175.386719 228.964844 C 175.132812 228.964844 174.9375 228.980469 174.691406 228.929688 C 174.613281 228.910156 174.550781 228.875 174.503906 228.808594 Z M 184.121094 212.097656 C 184.253906 212.222656 184.382812 212.253906 184.382812 212.320312 C 184.382812 212.433594 184.34375 212.417969 184.332031 212.5 C 184.324219 212.582031 184.363281 212.5625 184.363281 212.648438 C 184.363281 212.726562 184.351562 212.691406 184.320312 212.761719 C 184.175781 213.070312 184.210938 212.949219 184.03125 213.125 C 183.941406 213.210938 184 213.203125 183.964844 213.308594 C 183.941406 213.367188 183.886719 213.417969 183.851562 213.46875 C 183.839844 213.480469 183.714844 213.785156 183.59375 213.984375 C 183.523438 214.101562 183.582031 214.046875 183.464844 214.125 C 183.367188 214.191406 183.304688 214.214844 183.253906 214.300781 C 183.15625 214.453125 183.195312 214.511719 183.136719 214.566406 C 183.058594 214.636719 183.058594 214.570312 182.996094 214.699219 C 182.90625 214.878906 183.019531 214.714844 182.863281 214.953125 C 182.753906 215.117188 182.777344 215.144531 182.707031 215.164062 C 182.679688 215.109375 182.679688 215.042969 182.667969 214.972656 C 182.65625 214.886719 182.644531 214.871094 182.628906 214.78125 C 182.488281 213.960938 182.777344 214.300781 182.855469 213.84375 C 182.9375 213.386719 182.785156 213.28125 182.785156 213.230469 C 182.785156 213.078125 182.90625 213.132812 182.816406 212.460938 C 182.796875 212.300781 182.738281 212.144531 182.804688 212.007812 C 182.988281 212.007812 183.199219 212.015625 183.347656 211.996094 C 183.601562 211.960938 183.671875 211.914062 183.824219 211.914062 C 184.042969 211.914062 183.945312 211.933594 184.121094 212.097656 Z M 188.050781 187.597656 C 187.980469 187.5625 187.976562 187.53125 187.921875 187.515625 C 187.871094 187.5 187.773438 187.507812 187.714844 187.507812 C 187.710938 187.585938 187.695312 187.550781 187.695312 187.625 C 187.695312 187.664062 187.734375 187.722656 187.726562 187.773438 C 187.722656 187.792969 187.625 187.96875 187.578125 188.199219 C 187.535156 188.414062 187.367188 188.464844 187.210938 188.585938 C 187.03125 188.730469 187.058594 188.910156 186.988281 189.136719 C 186.925781 189.332031 186.898438 189.550781 186.847656 189.75 C 186.816406 189.855469 186.785156 189.929688 186.738281 190.027344 C 186.691406 190.136719 186.730469 190.25 186.703125 190.378906 C 186.691406 190.445312 186.675781 190.476562 186.65625 190.527344 C 186.582031 190.722656 186.550781 190.871094 186.441406 191.0625 C 186.253906 191.382812 186.058594 191.699219 185.890625 192.023438 L 185.644531 192.449219 C 185.628906 192.480469 185.625 192.480469 185.605469 192.507812 L 185.433594 192.78125 C 185.433594 192.785156 185.429688 192.789062 185.425781 192.792969 C 185.425781 192.796875 185.421875 192.804688 185.421875 192.808594 L 185.320312 192.976562 C 185.296875 193.007812 185.300781 193 185.277344 193.03125 C 185.261719 193.058594 185.257812 193.066406 185.242188 193.09375 C 185.191406 193.171875 185.144531 193.234375 185.09375 193.308594 L 184.785156 193.757812 C 184.738281 193.832031 184.679688 193.902344 184.628906 193.984375 L 184.34375 194.476562 C 184.324219 194.519531 184.308594 194.554688 184.285156 194.605469 L 184.058594 195.136719 C 183.996094 195.273438 183.800781 195.238281 183.695312 195.332031 C 183.503906 195.5 183.578125 195.613281 183.671875 195.75 C 183.652344 195.835938 183.597656 195.863281 183.578125 195.929688 C 183.539062 196.082031 183.625 196 183.515625 196.136719 L 183.25 196.394531 C 183.105469 196.527344 183.148438 196.597656 183.070312 196.734375 C 183.035156 196.796875 182.988281 196.84375 182.957031 196.894531 C 182.886719 197.011719 182.871094 197.144531 182.808594 197.269531 L 182.375 198.144531 C 182.351562 198.195312 182.355469 198.191406 182.328125 198.238281 C 182.308594 198.277344 182.300781 198.292969 182.285156 198.328125 C 182.253906 198.394531 182.234375 198.421875 182.203125 198.496094 L 182.015625 198.851562 C 181.945312 198.953125 181.871094 199.0625 181.824219 199.179688 C 181.769531 199.320312 181.761719 199.433594 181.675781 199.550781 L 180.921875 200.359375 C 180.832031 200.457031 180.75 200.53125 180.660156 200.625 C 180.585938 200.703125 180.503906 200.851562 180.398438 200.878906 C 180.34375 200.84375 180.304688 200.8125 180.277344 200.746094 L 180.207031 200.585938 C 180.167969 200.5 180.179688 200.503906 180.15625 200.402344 C 180.140625 200.324219 180.089844 200.277344 180.089844 200.242188 C 180.089844 200.144531 180.140625 200.148438 180.109375 200.066406 C 180.085938 200 180.058594 200.007812 180.035156 199.925781 C 179.980469 199.738281 179.921875 199.8125 179.828125 199.710938 C 179.703125 199.574219 179.734375 199.5 179.535156 199.441406 C 179.503906 199.433594 179.503906 199.429688 179.460938 199.417969 C 179.34375 199.378906 179.394531 199.410156 179.296875 199.410156 C 179.214844 199.410156 179.21875 199.398438 179.15625 199.359375 C 179.074219 199.3125 178.976562 199.292969 178.878906 199.269531 C 178.878906 199.269531 178.820312 199.253906 178.816406 199.253906 C 178.75 199.230469 178.761719 199.207031 178.703125 199.203125 C 178.664062 199.199219 178.570312 199.234375 178.488281 199.234375 L 178.359375 199.191406 C 178.175781 199.152344 177.949219 199.207031 177.777344 199.214844 C 177.652344 199.222656 177.570312 199.195312 177.429688 199.195312 C 177.351562 199.195312 177.308594 199.234375 177.199219 199.234375 C 177.121094 199.234375 177.082031 199.21875 177.003906 199.195312 C 176.828125 199.152344 176.675781 199.214844 176.488281 199.214844 C 176.382812 199.214844 176.324219 199.175781 176.199219 199.175781 C 176.070312 199.175781 176 199.363281 175.917969 199.4375 C 175.585938 199.746094 175.800781 199.617188 175.59375 199.960938 C 175.515625 200.089844 175.5 200.214844 175.445312 200.335938 C 175.375 200.5 175.410156 200.464844 175.386719 200.625 C 175.375 200.707031 175.355469 200.691406 175.332031 200.746094 C 175.265625 200.882812 175.316406 201.054688 175.304688 201.179688 L 175.253906 201.441406 C 175.230469 201.578125 175.234375 201.726562 175.203125 201.855469 C 175.179688 201.949219 175.125 202.113281 175.179688 202.214844 C 175.289062 202.417969 175.339844 202.285156 175.238281 202.625 C 175.132812 202.96875 175.003906 202.894531 175.003906 203.242188 C 175.003906 203.460938 175.402344 203.414062 175.5 203.535156 C 175.59375 203.652344 175.542969 203.941406 175.75 204.171875 C 175.753906 204.175781 175.757812 204.179688 175.761719 204.183594 L 175.789062 204.210938 C 175.792969 204.214844 175.796875 204.21875 175.796875 204.222656 C 175.832031 204.261719 175.855469 204.292969 175.886719 204.324219 L 176.335938 204.84375 C 176.496094 204.984375 176.84375 204.882812 177 204.84375 C 177.082031 204.824219 177.152344 204.835938 177.253906 204.824219 C 177.46875 204.800781 177.691406 204.84375 177.886719 204.929688 C 177.953125 204.960938 178.003906 204.988281 178.058594 205.027344 C 178.089844 205.046875 178.078125 205.042969 178.105469 205.058594 C 178.113281 205.0625 178.140625 205.078125 178.144531 205.078125 C 178.199219 205.128906 178.171875 205.0625 178.179688 205.15625 C 178.050781 205.15625 177.769531 205.085938 177.6875 205.101562 C 177.578125 205.128906 177.492188 205.300781 177.472656 205.4375 C 177.457031 205.578125 177.535156 205.753906 177.542969 205.894531 C 177.554688 206.007812 177.539062 206.078125 177.601562 206.09375 C 177.621094 206.101562 177.757812 206.070312 177.757812 206.183594 C 177.757812 206.289062 177.730469 206.359375 177.71875 206.472656 C 177.707031 206.582031 177.683594 206.648438 177.660156 206.742188 C 177.640625 206.824219 177.632812 206.9375 177.621094 207.03125 C 177.578125 207.308594 177.429688 208.21875 177.429688 208.445312 C 177.429688 208.570312 177.480469 208.871094 177.511719 208.984375 L 177.621094 209.496094 C 177.640625 209.683594 177.636719 209.878906 177.671875 210.0625 L 177.804688 210.859375 C 177.839844 211.035156 178.015625 211.605469 178.097656 211.800781 C 178.117188 211.851562 178.117188 211.867188 178.132812 211.921875 C 178.148438 211.980469 178.15625 211.988281 178.171875 212.035156 C 178.226562 212.179688 178.234375 212.410156 178.296875 212.53125 C 178.320312 212.582031 178.378906 212.617188 178.417969 212.65625 C 178.421875 212.660156 178.425781 212.664062 178.429688 212.667969 C 178.488281 212.730469 178.546875 212.773438 178.59375 212.851562 L 178.824219 213.238281 L 179.667969 214.246094 C 179.765625 214.347656 179.851562 214.480469 179.976562 214.558594 C 180.027344 214.589844 180.039062 214.582031 180.089844 214.597656 C 180.152344 214.617188 180.160156 214.617188 180.183594 214.660156 C 180.222656 214.734375 180.1875 214.8125 180.238281 214.914062 C 180.449219 215.316406 180.394531 215.082031 180.511719 215.257812 L 180.410156 215.484375 C 180.289062 215.734375 179.941406 216.601562 179.882812 216.832031 C 179.816406 217.113281 179.734375 217.402344 179.601562 217.652344 L 179.507812 217.871094 C 179.335938 218.253906 179.265625 218.4375 179.054688 218.824219 L 178.832031 219.242188 C 178.664062 219.582031 178.449219 219.894531 178.21875 220.195312 C 177.894531 220.613281 177.828125 220.460938 177.375 220.601562 C 177.257812 220.636719 177.238281 220.621094 177.105469 220.644531 C 176.84375 220.683594 176.828125 220.988281 176.714844 221.175781 C 176.691406 221.214844 176.601562 221.347656 176.601562 221.375 C 176.601562 221.636719 176.628906 221.585938 176.671875 221.804688 C 176.71875 222.039062 176.617188 222.1875 176.910156 222.222656 C 177.136719 222.253906 177.011719 222.46875 177.332031 222.476562 C 177.496094 222.480469 177.425781 222.527344 177.550781 222.589844 C 177.652344 222.640625 177.738281 222.613281 177.820312 222.644531 C 177.890625 222.675781 177.84375 222.679688 177.925781 222.710938 C 178.136719 222.785156 178.453125 222.566406 178.332031 222.898438 L 178.054688 223.746094 C 178.039062 223.816406 178.035156 223.871094 178.019531 223.945312 C 177.984375 224.113281 177.902344 224.515625 177.847656 224.660156 L 177.679688 225.148438 C 177.609375 225.324219 177.582031 225.5 177.535156 225.683594 L 177.445312 226.054688 C 177.425781 226.117188 177.417969 226.140625 177.402344 226.222656 C 177.367188 226.40625 177.355469 226.40625 177.230469 226.496094 C 177.035156 226.636719 176.742188 226.789062 176.527344 226.914062 L 176.25 227.082031 C 176.203125 227.105469 176.21875 227.097656 176.179688 227.125 L 175.976562 227.25 C 175.8125 227.359375 175.914062 227.621094 175.953125 227.8125 C 175.96875 227.894531 175.980469 227.90625 176.003906 227.972656 C 176.023438 228.023438 176.03125 228.078125 176.050781 228.140625 C 176.132812 228.382812 176.230469 228.492188 176.074219 228.625 C 176.070312 228.628906 176.058594 228.640625 176.050781 228.644531 L 175.984375 228.691406 L 175.898438 228.601562 C 175.894531 228.597656 175.890625 228.59375 175.890625 228.589844 C 175.808594 228.460938 175.882812 228.308594 175.847656 228.167969 C 175.824219 228.054688 175.675781 227.910156 175.566406 228.015625 C 175.410156 228.160156 175.652344 228.535156 175.464844 228.535156 C 175.351562 228.535156 175.222656 228.511719 175.117188 228.535156 C 174.878906 228.585938 174.636719 228.679688 174.382812 228.707031 C 174.246094 228.71875 174.164062 228.707031 174.132812 228.824219 C 174.210938 228.9375 174.34375 228.902344 174.472656 228.949219 C 174.519531 228.96875 174.539062 228.984375 174.582031 228.996094 C 174.683594 229.03125 174.753906 229.003906 174.859375 229.023438 C 174.9375 229.039062 174.972656 229.078125 175.097656 229.078125 L 175.40625 229.078125 C 175.632812 229.078125 175.695312 228.964844 175.695312 229.15625 C 175.542969 229.191406 175.402344 229.304688 175.3125 229.414062 C 175.28125 229.453125 175.28125 229.460938 175.246094 229.5 C 175.050781 229.710938 174.761719 229.898438 174.664062 230.015625 C 174.550781 230.148438 174.378906 230.21875 174.257812 230.34375 C 174.023438 230.578125 174.117188 230.46875 173.84375 230.605469 L 173.535156 230.761719 C 173.46875 230.796875 173.386719 230.804688 173.308594 230.839844 C 172.882812 231.039062 173.074219 230.996094 172.941406 231.246094 C 172.875 231.375 172.910156 231.4375 173.039062 231.53125 C 173.257812 231.699219 173.449219 231.679688 173.746094 231.710938 L 174.59375 231.75 L 176.675781 231.691406 C 176.824219 231.683594 176.988281 231.691406 177.136719 231.691406 C 177.316406 231.691406 177.414062 231.671875 177.582031 231.671875 C 177.882812 231.671875 178.183594 231.667969 178.488281 231.671875 C 179.066406 231.671875 179.539062 231.195312 179.261719 230.773438 C 179.195312 230.667969 179.175781 230.550781 179.136719 230.433594 C 179.105469 230.328125 179.027344 230.222656 178.996094 230.113281 C 178.957031 229.988281 178.929688 229.886719 178.859375 229.785156 C 178.75 229.621094 178.816406 229.632812 178.816406 229.425781 C 178.816406 229.335938 178.789062 229.289062 178.769531 229.203125 C 178.714844 228.96875 178.722656 229.011719 178.855469 228.808594 L 178.949219 228.671875 C 179.097656 228.480469 179.058594 228.445312 179.085938 228.171875 C 179.101562 228.023438 179.117188 227.816406 179.191406 227.695312 L 179.882812 226.667969 C 179.957031 226.539062 180.039062 226.4375 180.125 226.328125 L 180.515625 225.867188 C 180.546875 225.832031 180.546875 225.820312 180.582031 225.78125 C 180.605469 225.753906 180.625 225.742188 180.648438 225.714844 L 180.855469 225.476562 C 181.257812 225.058594 181.324219 224.742188 181.855469 224.238281 C 182.078125 224.023438 182.292969 223.789062 182.550781 223.621094 C 182.601562 223.589844 182.59375 223.597656 182.644531 223.558594 C 182.773438 223.449219 182.921875 223.359375 183.046875 223.246094 C 183.109375 223.195312 183.144531 223.179688 183.199219 223.109375 L 183.503906 222.679688 C 183.53125 222.640625 183.539062 222.644531 183.5625 222.605469 L 183.941406 222.128906 C 184.148438 221.894531 184.253906 221.730469 184.433594 221.464844 C 184.738281 221.003906 185.070312 220.578125 185.410156 220.144531 L 185.675781 219.847656 C 185.675781 219.84375 185.679688 219.839844 185.683594 219.839844 L 185.90625 219.597656 C 185.910156 219.59375 185.914062 219.589844 185.914062 219.585938 L 186.484375 218.941406 C 186.574219 218.839844 186.640625 218.722656 186.75 218.644531 C 186.867188 218.820312 186.957031 219.011719 187.03125 219.214844 C 187.058594 219.285156 187.058594 219.265625 187.089844 219.332031 C 187.125 219.410156 187.171875 219.496094 187.191406 219.558594 C 187.222656 219.65625 187.246094 219.742188 187.269531 219.832031 L 187.367188 220.0625 C 187.5 220.269531 187.78125 220.703125 187.925781 220.851562 L 188.144531 221.078125 C 188.164062 221.097656 188.164062 221.097656 188.183594 221.117188 L 189.992188 223.519531 C 190.121094 223.679688 190.425781 223.988281 190.621094 224.085938 L 191.304688 224.40625 C 191.578125 224.503906 192.160156 224.742188 192.425781 224.808594 C 192.644531 224.863281 192.835938 224.960938 193.039062 225.042969 L 193.398438 225.1875 C 193.441406 225.207031 193.472656 225.214844 193.523438 225.234375 C 193.566406 225.25 193.59375 225.269531 193.628906 225.285156 C 193.75 225.335938 193.882812 225.371094 194 225.429688 L 194.238281 225.523438 C 194.550781 225.65625 194.902344 225.769531 195.222656 225.886719 C 195.265625 225.902344 195.300781 225.925781 195.34375 225.941406 L 195.585938 226.027344 C 195.644531 226.046875 195.660156 226.050781 195.714844 226.070312 C 195.804688 226.101562 195.910156 226.105469 196.003906 226.128906 C 196.050781 226.140625 196.070312 226.152344 196.121094 226.167969 L 196.378906 226.253906 C 196.558594 226.3125 196.742188 226.292969 196.886719 226.421875 C 197.019531 226.535156 197.15625 226.609375 197.320312 226.660156 C 197.367188 226.675781 197.414062 226.675781 197.464844 226.691406 C 197.507812 226.707031 197.523438 226.71875 197.574219 226.738281 C 197.652344 226.765625 197.625 226.746094 197.6875 226.796875 C 197.863281 226.941406 198.421875 227.382812 198.425781 227.585938 C 198.425781 227.78125 198.347656 227.9375 198.472656 228.117188 C 198.546875 228.222656 198.589844 228.1875 198.558594 228.324219 C 198.421875 228.3125 198.378906 228.238281 198.289062 228.167969 C 198.285156 228.164062 198.28125 228.160156 198.277344 228.160156 C 198.273438 228.15625 198.269531 228.152344 198.265625 228.148438 C 198.234375 228.125 198.210938 228.109375 198.175781 228.085938 C 198.125 228.046875 198.042969 227.992188 197.980469 227.972656 C 197.679688 227.867188 197.824219 227.929688 197.632812 227.972656 C 197.644531 228.117188 197.871094 228.136719 198 228.183594 C 198.195312 228.253906 198.519531 228.332031 198.519531 228.59375 C 198.519531 228.777344 198.109375 229.5 198.050781 229.726562 L 197.953125 230.117188 C 197.949219 230.144531 197.9375 230.203125 197.929688 230.246094 C 197.863281 230.585938 197.867188 230.695312 198.039062 230.972656 C 198.0625 231.011719 198.085938 231.042969 198.125 231.078125 C 198.515625 231.464844 198.910156 231.34375 199.378906 231.199219 C 199.667969 231.113281 199.960938 230.867188 200.175781 230.667969 C 200.179688 230.664062 200.183594 230.660156 200.1875 230.65625 C 200.191406 230.65625 200.195312 230.648438 200.195312 230.648438 C 200.199219 230.644531 200.210938 230.632812 200.214844 230.628906 L 200.386719 230.46875 C 200.433594 230.429688 200.410156 230.449219 200.449219 230.398438 C 201.113281 229.613281 200.75 229.820312 200.949219 229.585938 C 201.195312 229.296875 201.125 228.871094 201.136719 228.4375 C 201.152344 227.964844 201.367188 227.894531 201.589844 227.617188 C 201.59375 227.609375 201.613281 227.585938 201.617188 227.582031 C 201.710938 227.457031 201.910156 227.210938 201.925781 227.082031 C 201.941406 226.976562 201.921875 226.933594 201.957031 226.839844 C 202.027344 226.644531 202.121094 226.457031 202.121094 226.214844 C 202.121094 225.632812 202.105469 225.964844 202.023438 225.632812 C 201.992188 225.515625 201.90625 225.492188 201.867188 225.402344 C 201.835938 225.332031 201.867188 225.339844 201.796875 225.277344 C 201.753906 225.238281 201.730469 225.238281 201.683594 225.203125 C 201.425781 225 201.300781 224.980469 200.984375 225.070312 C 200.921875 225.089844 200.917969 225.097656 200.859375 225.121094 C 200.71875 225.179688 200.558594 225.1875 200.414062 225.253906 C 200.335938 225.296875 200.308594 225.308594 200.214844 225.285156 C 200.140625 224.96875 200.089844 224.882812 199.902344 224.667969 C 199.871094 224.632812 199.855469 224.609375 199.824219 224.574219 C 199.722656 224.449219 199.574219 224.316406 199.449219 224.191406 C 199.449219 224.191406 199.445312 224.1875 199.441406 224.183594 L 199.210938 223.953125 C 199.207031 223.949219 199.195312 223.9375 199.191406 223.933594 L 198.910156 223.691406 C 198.644531 223.476562 198.324219 223.285156 198.019531 223.136719 C 197.996094 223.125 197.976562 223.121094 197.953125 223.105469 C 197.910156 223.085938 197.9375 223.09375 197.890625 223.074219 C 197.390625 222.84375 197 222.816406 196.675781 222.6875 L 196.296875 222.503906 C 196.15625 222.445312 195.984375 222.425781 195.832031 222.351562 C 195.800781 222.339844 195.785156 222.335938 195.761719 222.328125 L 195.394531 222.152344 C 195.335938 222.125 195.332031 222.109375 195.265625 222.089844 C 194.886719 221.960938 194.78125 221.816406 194.472656 221.628906 C 194.390625 221.578125 194.328125 221.546875 194.230469 221.503906 C 194.15625 221.46875 194.078125 221.414062 194.011719 221.375 L 193.488281 221.085938 C 193.464844 221.074219 193.464844 221.070312 193.425781 221.054688 C 193.242188 220.976562 193.175781 221.007812 192.992188 221.007812 C 192.886719 221.007812 192.882812 220.808594 192.867188 220.746094 C 192.796875 220.496094 192.441406 220.246094 192.402344 220.109375 C 192.359375 219.960938 192.445312 219.960938 192.34375 219.800781 C 192.257812 219.65625 192.285156 219.53125 192.257812 219.367188 C 192.246094 219.316406 192.238281 219.277344 192.238281 219.210938 C 192.234375 218.832031 192.199219 218.816406 192.164062 218.527344 C 192.152344 218.417969 192.148438 218.285156 192.128906 218.199219 C 192.09375 218.042969 192.085938 217.867188 192.0625 217.703125 C 192.058594 217.667969 192.039062 217.605469 192.027344 217.5625 C 192.007812 217.457031 192 217.355469 191.988281 217.238281 L 191.855469 216.636719 C 191.734375 216.164062 191.882812 216.253906 191.839844 216.109375 C 191.828125 216.070312 191.832031 216.082031 191.8125 216.054688 C 191.675781 215.84375 191.777344 215.945312 191.777344 215.722656 C 191.777344 215.644531 191.738281 215.628906 191.722656 215.566406 C 191.644531 215.15625 191.816406 215.25 191.816406 215.085938 C 191.816406 215.058594 191.757812 215.042969 191.757812 214.949219 C 191.757812 214.84375 191.945312 214.855469 191.800781 214.558594 C 191.734375 214.421875 191.800781 213.71875 191.773438 213.503906 L 191.519531 212.671875 C 191.492188 212.59375 191.480469 212.59375 191.449219 212.53125 C 191.339844 212.296875 191.210938 212.050781 191.0625 211.835938 L 190.738281 211.40625 C 190.589844 211.230469 190.40625 211.074219 190.277344 210.882812 C 190.234375 210.820312 190.207031 210.742188 190.148438 210.683594 C 190.09375 210.628906 190.035156 210.605469 189.992188 210.53125 C 189.941406 210.445312 189.949219 210.484375 189.882812 210.425781 C 189.796875 210.347656 189.8125 210.195312 189.648438 210.023438 L 189.515625 209.925781 C 189.480469 209.90625 189.472656 209.90625 189.4375 209.890625 C 189.222656 209.769531 189.015625 209.632812 188.835938 209.464844 L 188.757812 209.390625 C 188.566406 209.207031 188.242188 208.941406 188.152344 208.703125 C 188.144531 208.675781 188.140625 208.648438 188.128906 208.613281 C 188.109375 208.5625 188.109375 208.578125 188.09375 208.546875 C 188.039062 208.4375 187.929688 208.054688 187.867188 207.90625 C 187.808594 207.769531 187.714844 207.652344 187.609375 207.546875 C 187.605469 207.542969 187.601562 207.539062 187.601562 207.535156 L 187.203125 207.046875 C 186.976562 206.773438 186.761719 206.484375 186.515625 206.226562 L 185.90625 205.539062 C 185.761719 205.394531 185.644531 205.222656 185.523438 205.054688 L 184.925781 204.144531 C 184.726562 203.796875 184.640625 203.832031 184.703125 203.355469 C 184.734375 203.128906 184.710938 203.011719 184.824219 202.816406 C 184.851562 202.769531 184.863281 202.726562 184.886719 202.667969 C 184.921875 202.597656 184.921875 202.597656 184.949219 202.515625 L 185.230469 201.734375 C 185.25 201.679688 185.253906 201.617188 185.273438 201.542969 C 185.285156 201.492188 185.308594 201.429688 185.320312 201.378906 L 185.433594 200.832031 C 185.46875 200.738281 185.53125 200.648438 185.5625 200.539062 L 185.773438 199.667969 C 185.8125 199.554688 185.828125 199.4375 185.863281 199.332031 C 185.902344 199.207031 185.898438 199.085938 185.917969 198.960938 C 185.941406 198.785156 185.882812 198.632812 185.824219 198.503906 C 185.8125 198.484375 185.804688 198.460938 185.792969 198.4375 C 185.753906 198.355469 185.75 198.355469 185.761719 198.28125 L 185.8125 197.886719 C 185.839844 197.652344 185.878906 197.382812 185.945312 197.152344 L 186.027344 196.808594 C 186.070312 196.671875 186.046875 196.589844 186.125 196.480469 C 186.167969 196.417969 186.179688 196.421875 186.21875 196.359375 C 186.328125 196.167969 186.261719 196.152344 186.269531 195.964844 C 186.273438 195.835938 186.363281 195.960938 186.363281 195.519531 C 186.363281 195.355469 186.152344 195.304688 186.152344 195.210938 C 186.152344 195.136719 186.382812 194.671875 186.425781 194.59375 C 186.570312 194.34375 186.675781 194.070312 186.800781 193.8125 C 186.835938 193.738281 186.847656 193.6875 186.878906 193.617188 L 187.753906 191.339844 C 187.777344 191.289062 187.824219 191.210938 187.859375 191.15625 C 188.113281 190.769531 187.992188 190.769531 188.207031 190.636719 C 188.269531 190.601562 188.3125 190.566406 188.351562 190.511719 C 188.410156 190.429688 188.371094 190.414062 188.46875 190.339844 C 188.578125 190.253906 188.726562 190.199219 188.84375 190.136719 C 188.886719 190.117188 188.890625 190.109375 188.929688 190.082031 C 188.96875 190.054688 188.96875 190.0625 189.007812 190.027344 L 189.109375 189.953125 C 189.109375 189.953125 189.117188 189.949219 189.117188 189.945312 L 189.140625 189.929688 C 189.214844 189.867188 189.269531 189.835938 189.273438 189.714844 C 189.289062 189.339844 189.214844 189.433594 189.285156 188.972656 C 189.34375 188.585938 189.3125 188.722656 189.3125 188.378906 C 189.3125 187.882812 188.898438 187.5 188.398438 187.558594 C 188.289062 187.574219 188.140625 187.640625 188.046875 187.597656 Z M 188.050781 187.597656 " fill-opacity="1" fill-rule="evenodd"/></g><g clip-path="url(#4c184c4ad5)"><path fill="#92d674" d="M 76.828125 350.078125 C 77.929688 349.988281 79.75 349.738281 80.824219 349.488281 C 86.480469 348.167969 84.601562 349.164062 85.515625 350.902344 C 85.160156 351.136719 84.96875 351.390625 84.371094 351.390625 C 82.199219 351.390625 80.523438 351.523438 78.441406 351.089844 C 77.765625 350.949219 77.226562 350.625 76.828125 350.078125 Z M 158.730469 208.46875 C 159.847656 209.523438 160.964844 209.769531 160.964844 210.335938 C 160.964844 211.289062 160.628906 211.167969 160.539062 211.871094 C 160.449219 212.546875 160.800781 212.390625 160.800781 213.121094 C 160.800781 213.796875 160.707031 213.472656 160.433594 214.066406 C 159.195312 216.714844 159.488281 215.671875 157.957031 217.167969 C 157.210938 217.894531 157.703125 217.824219 157.382812 218.726562 C 157.203125 219.230469 156.71875 219.644531 156.421875 220.058594 C 156.347656 220.164062 155.289062 222.742188 154.25 224.453125 C 153.652344 225.4375 154.125 224.964844 153.140625 225.640625 C 152.320312 226.203125 151.789062 226.40625 151.335938 227.117188 C 150.503906 228.429688 150.851562 228.929688 150.335938 229.394531 C 149.695312 229.964844 149.691406 229.398438 149.144531 230.5 C 148.386719 232.023438 149.339844 230.648438 148.015625 232.648438 C 147.09375 234.035156 147.292969 234.285156 146.695312 234.441406 C 146.472656 233.976562 146.445312 233.417969 146.363281 232.804688 C 146.261719 232.09375 146.144531 231.960938 146.011719 231.1875 C 144.832031 224.257812 147.273438 227.128906 147.96875 223.246094 C 148.65625 219.394531 147.351562 218.480469 147.351562 218.039062 C 147.351562 216.761719 148.371094 217.238281 147.636719 211.519531 C 147.464844 210.183594 146.96875 208.839844 147.511719 207.703125 C 149.070312 207.703125 150.863281 207.757812 152.15625 207.589844 C 154.304688 207.3125 154.890625 206.886719 156.207031 206.886719 C 158.070312 206.886719 157.246094 207.066406 158.726562 208.464844 Z M 192.207031 0.828125 C 191.585938 0.519531 191.566406 0.253906 191.109375 0.117188 C 190.660156 -0.0117188 189.84375 0.0664062 189.34375 0.0664062 C 189.289062 0.738281 189.179688 0.433594 189.179688 1.050781 C 189.179688 1.390625 189.488281 1.882812 189.417969 2.308594 C 189.386719 2.492188 188.550781 3.960938 188.15625 5.929688 C 187.785156 7.75 186.378906 8.171875 185.046875 9.21875 C 183.503906 10.433594 183.75 11.945312 183.132812 13.871094 C 182.597656 15.527344 182.390625 17.375 181.933594 19.058594 C 181.6875 19.96875 181.410156 20.585938 181.023438 21.429688 C 180.601562 22.34375 180.953125 23.320312 180.722656 24.410156 C 180.601562 24.960938 180.476562 25.234375 180.316406 25.648438 C 179.691406 27.320312 179.429688 28.566406 178.476562 30.203125 C 176.90625 32.90625 175.242188 35.570312 173.800781 38.316406 L 171.699219 41.957031 C 171.554688 42.214844 171.527344 42.210938 171.371094 42.453125 L 169.910156 44.761719 C 169.890625 44.792969 169.871094 44.835938 169.847656 44.867188 C 169.832031 44.898438 169.808594 44.941406 169.792969 44.972656 L 168.929688 46.40625 C 168.753906 46.679688 168.769531 46.609375 168.582031 46.886719 C 168.449219 47.089844 168.40625 47.1875 168.273438 47.390625 C 167.835938 48.054688 167.445312 48.589844 167.003906 49.238281 L 164.402344 53.03125 C 163.996094 53.671875 163.488281 54.261719 163.050781 54.957031 L 160.636719 59.109375 C 160.445312 59.496094 160.324219 59.796875 160.113281 60.226562 L 158.207031 64.714844 C 157.664062 65.890625 155.996094 65.570312 155.097656 66.363281 C 153.464844 67.8125 154.113281 68.765625 154.894531 69.929688 C 154.726562 70.640625 154.273438 70.886719 154.121094 71.453125 C 153.777344 72.730469 154.511719 72.046875 153.5625 73.191406 L 151.320312 75.378906 C 150.089844 76.496094 150.457031 77.109375 149.777344 78.269531 C 149.484375 78.769531 149.09375 79.179688 148.824219 79.613281 C 148.21875 80.609375 148.082031 81.730469 147.566406 82.777344 L 143.855469 90.222656 C 143.667969 90.636719 143.6875 90.609375 143.480469 90.992188 C 143.285156 91.339844 143.242188 91.460938 143.101562 91.761719 C 142.839844 92.339844 142.679688 92.554688 142.40625 93.195312 L 140.8125 96.195312 C 140.214844 97.0625 139.558594 97.992188 139.167969 98.976562 C 138.695312 100.171875 138.636719 101.121094 137.890625 102.125 L 131.472656 108.992188 C 130.738281 109.796875 130.035156 110.421875 129.269531 111.214844 C 128.625 111.882812 127.941406 113.144531 127.015625 113.386719 C 126.574219 113.09375 126.242188 112.804688 126.007812 112.257812 L 125.390625 110.90625 C 125.074219 110.179688 125.167969 110.210938 124.976562 109.355469 C 124.828125 108.683594 124.390625 108.277344 124.390625 107.972656 C 124.390625 107.164062 124.839844 107.191406 124.570312 106.492188 C 124.355469 105.929688 124.148438 105.984375 123.949219 105.304688 C 123.484375 103.722656 122.980469 104.351562 122.164062 103.476562 C 121.09375 102.335938 121.394531 101.679688 119.6875 101.199219 C 119.410156 101.121094 119.402344 101.105469 119.0625 100.992188 C 118.035156 100.65625 118.472656 100.921875 117.664062 100.921875 C 116.964844 100.921875 116.988281 100.824219 116.445312 100.503906 C 115.769531 100.105469 114.9375 99.957031 114.085938 99.746094 C 114.078125 99.746094 113.582031 99.621094 113.5625 99.613281 C 113 99.414062 113.109375 99.203125 112.601562 99.175781 C 112.273438 99.160156 111.46875 99.449219 110.773438 99.449219 L 109.679688 99.066406 C 108.113281 98.757812 106.183594 99.207031 104.707031 99.292969 C 103.664062 99.347656 102.957031 99.121094 101.757812 99.121094 C 101.078125 99.121094 100.722656 99.449219 99.789062 99.449219 C 99.121094 99.449219 98.789062 99.296875 98.136719 99.128906 C 96.628906 98.75 95.34375 99.28125 93.71875 99.28125 C 92.828125 99.28125 92.351562 98.953125 91.261719 98.953125 C 90.175781 98.953125 89.582031 100.535156 88.890625 101.171875 C 86.058594 103.789062 87.867188 102.671875 86.105469 105.609375 C 85.464844 106.683594 85.316406 107.742188 84.863281 108.792969 C 84.269531 110.175781 84.542969 109.882812 84.359375 111.238281 C 84.269531 111.910156 84.097656 111.800781 83.882812 112.242188 C 83.316406 113.425781 83.75 114.859375 83.648438 115.941406 L 83.242188 118.160156 C 83.019531 119.304688 83.0625 120.550781 82.789062 121.648438 C 82.597656 122.445312 82.121094 123.855469 82.582031 124.6875 C 83.535156 126.421875 83.96875 125.3125 83.09375 128.183594 C 82.203125 131.09375 81.089844 130.445312 81.089844 133.394531 C 81.089844 135.246094 84.480469 134.847656 85.320312 135.890625 C 86.117188 136.875 85.679688 139.332031 87.464844 141.289062 C 87.484375 141.316406 87.519531 141.347656 87.542969 141.371094 L 87.78125 141.625 C 87.804688 141.652344 87.839844 141.6875 87.859375 141.714844 C 88.160156 142.035156 88.347656 142.300781 88.625 142.589844 L 92.433594 146.984375 C 93.792969 148.167969 96.746094 147.296875 98.105469 146.972656 C 98.804688 146.804688 99.398438 146.910156 100.257812 146.820312 C 102.085938 146.621094 103.988281 146.980469 105.636719 147.71875 C 106.203125 147.972656 106.636719 148.199219 107.121094 148.535156 C 107.367188 148.703125 107.289062 148.65625 107.515625 148.796875 C 107.574219 148.832031 107.808594 148.957031 107.824219 148.976562 C 108.3125 149.382812 108.082031 148.828125 108.148438 149.636719 C 107.042969 149.636719 104.636719 149.027344 103.929688 149.183594 C 103.003906 149.382812 102.28125 150.84375 102.132812 152 C 101.980469 153.191406 102.644531 154.6875 102.734375 155.871094 C 102.800781 156.828125 102.675781 157.433594 103.222656 157.585938 C 103.382812 157.628906 104.539062 157.386719 104.539062 158.332031 C 104.539062 159.214844 104.300781 159.828125 104.199219 160.777344 C 104.097656 161.71875 103.925781 162.277344 103.710938 163.078125 C 103.535156 163.761719 103.480469 164.714844 103.367188 165.519531 C 103.03125 167.886719 101.753906 175.585938 101.753906 177.515625 C 101.753906 178.566406 102.171875 181.117188 102.4375 182.074219 L 103.371094 186.394531 C 103.542969 188 103.527344 189.65625 103.8125 191.203125 L 104.9375 197.949219 C 105.230469 199.457031 106.757812 204.285156 107.425781 205.953125 C 107.597656 206.382812 107.59375 206.515625 107.726562 206.96875 C 107.859375 207.445312 107.929688 207.519531 108.082031 207.921875 C 108.546875 209.136719 108.609375 211.085938 109.132812 212.125 C 109.351562 212.550781 109.847656 212.867188 110.183594 213.203125 C 110.207031 213.226562 110.242188 213.261719 110.265625 213.289062 C 110.765625 213.808594 111.273438 214.199219 111.648438 214.855469 L 113.625 218.125 L 120.824219 226.675781 C 121.65625 227.527344 122.378906 228.652344 123.445312 229.300781 C 123.882812 229.566406 123.96875 229.507812 124.410156 229.640625 C 124.917969 229.800781 124.992188 229.789062 125.195312 230.171875 C 125.519531 230.796875 125.222656 231.464844 125.667969 232.320312 C 127.460938 235.742188 126.988281 233.742188 127.992188 235.242188 L 127.117188 237.15625 C 126.09375 239.289062 123.125 246.625 122.644531 248.589844 C 122.0625 250.957031 121.363281 253.394531 120.246094 255.542969 L 119.464844 257.386719 C 117.996094 260.621094 117.378906 262.167969 115.574219 265.472656 L 113.6875 268.996094 C 112.273438 271.898438 110.445312 274.535156 108.472656 277.066406 C 105.710938 280.605469 105.160156 279.335938 101.277344 280.53125 C 100.300781 280.832031 100.121094 280.699219 98.996094 280.875 C 96.777344 281.21875 96.617188 283.785156 95.648438 285.402344 C 95.46875 285.707031 94.691406 286.835938 94.691406 287.070312 C 94.691406 289.289062 94.921875 288.871094 95.304688 290.71875 C 95.710938 292.6875 94.832031 293.949219 97.328125 294.269531 C 99.265625 294.519531 98.179688 296.34375 100.925781 296.414062 C 102.328125 296.449219 101.730469 296.839844 102.765625 297.355469 C 103.652344 297.792969 104.378906 297.566406 105.070312 297.84375 C 105.679688 298.089844 105.273438 298.144531 105.992188 298.394531 C 107.78125 299.015625 110.476562 297.183594 109.425781 300 L 107.082031 307.171875 C 106.945312 307.777344 106.910156 308.242188 106.785156 308.84375 C 106.476562 310.289062 105.777344 313.6875 105.324219 314.929688 L 103.871094 319.050781 C 103.269531 320.527344 103.046875 322.023438 102.648438 323.574219 L 101.882812 326.742188 C 101.71875 327.265625 101.640625 327.449219 101.503906 328.167969 C 101.210938 329.730469 101.132812 329.722656 100.050781 330.492188 C 98.382812 331.675781 95.898438 332.972656 94.078125 334.03125 L 91.703125 335.425781 C 91.292969 335.652344 91.441406 335.578125 91.097656 335.808594 L 89.378906 336.875 C 87.980469 337.796875 88.859375 340.011719 89.171875 341.621094 C 89.3125 342.324219 89.425781 342.417969 89.621094 342.976562 C 89.769531 343.414062 89.828125 343.878906 90 344.398438 C 90.695312 346.46875 91.53125 347.378906 90.203125 348.519531 C 90.167969 348.550781 90.0625 348.640625 90.023438 348.667969 L 89.4375 349.066406 L 88.695312 348.328125 C 88.675781 348.296875 88.648438 348.261719 88.632812 348.230469 C 87.9375 347.132812 88.574219 345.84375 88.292969 344.648438 C 88.070312 343.699219 86.832031 342.472656 85.875 343.367188 C 84.566406 344.582031 86.617188 347.761719 85.007812 347.761719 C 84.050781 347.761719 82.96875 347.566406 82.070312 347.761719 C 80.023438 348.199219 77.957031 348.988281 75.792969 349.207031 C 74.640625 349.320312 73.960938 349.210938 73.691406 350.21875 C 74.332031 351.179688 75.460938 350.882812 76.570312 351.277344 C 76.980469 351.421875 77.136719 351.546875 77.492188 351.667969 C 78.367188 351.957031 78.972656 351.722656 79.878906 351.902344 C 80.535156 352.03125 80.820312 352.355469 81.890625 352.355469 L 84.515625 352.355469 C 86.433594 352.355469 86.972656 351.390625 86.972656 353.011719 C 85.699219 353.308594 84.492188 354.292969 83.738281 355.1875 C 83.464844 355.519531 83.472656 355.585938 83.164062 355.917969 C 81.480469 357.726562 79.019531 359.292969 78.1875 360.292969 C 77.242188 361.433594 75.765625 362.015625 74.726562 363.070312 C 72.75 365.078125 73.554688 364.140625 71.214844 365.296875 L 68.59375 366.613281 C 68.019531 366.914062 67.324219 366.992188 66.65625 367.300781 C 63.027344 368.972656 64.65625 368.613281 63.535156 370.742188 C 62.96875 371.816406 63.269531 372.355469 64.347656 373.164062 C 66.21875 374.554688 67.851562 374.414062 70.375 374.683594 L 77.617188 374.988281 L 95.328125 374.488281 C 96.613281 374.449219 97.980469 374.492188 99.273438 374.492188 C 100.777344 374.492188 101.628906 374.320312 103.042969 374.324219 C 105.617188 374.339844 108.183594 374.316406 110.757812 374.332031 C 115.6875 374.351562 119.699219 370.3125 117.363281 366.730469 C 116.773438 365.824219 116.605469 364.84375 116.300781 363.859375 C 116.019531 362.960938 115.367188 362.066406 115.089844 361.140625 C 114.761719 360.058594 114.523438 359.21875 113.9375 358.351562 C 112.992188 356.953125 113.542969 357.058594 113.542969 355.304688 C 113.542969 354.546875 113.324219 354.144531 113.148438 353.402344 C 112.6875 351.445312 112.769531 351.800781 113.886719 350.066406 L 114.695312 348.90625 C 115.949219 347.28125 115.621094 347.003906 115.863281 344.664062 C 115.988281 343.429688 116.132812 341.664062 116.75 340.632812 L 122.636719 331.917969 C 123.289062 330.84375 123.984375 329.992188 124.699219 329.058594 L 128.015625 325.160156 C 128.304688 324.832031 128.304688 324.753906 128.59375 324.425781 C 128.808594 324.1875 128.949219 324.089844 129.164062 323.847656 L 130.925781 321.839844 C 134.367188 318.300781 134.929688 315.621094 139.441406 311.332031 C 141.339844 309.523438 143.164062 307.539062 145.375 306.113281 C 145.785156 305.84375 145.742188 305.910156 146.148438 305.574219 C 147.253906 304.660156 148.511719 303.90625 149.589844 302.949219 C 150.101562 302.488281 150.417969 302.363281 150.894531 301.789062 L 153.476562 298.136719 C 153.699219 297.816406 153.765625 297.820312 153.988281 297.496094 L 157.1875 293.480469 C 158.957031 291.476562 159.855469 290.101562 161.378906 287.828125 C 163.980469 283.941406 166.824219 280.320312 169.710938 276.644531 L 171.960938 274.136719 C 171.984375 274.113281 172.019531 274.078125 172.039062 274.054688 L 173.929688 272.007812 C 173.953125 271.980469 173.988281 271.945312 174.007812 271.925781 L 178.871094 266.449219 C 179.628906 265.601562 180.179688 264.585938 181.128906 263.953125 C 182.121094 265.4375 182.882812 267.050781 183.523438 268.773438 C 183.753906 269.382812 183.757812 269.203125 184.011719 269.761719 C 184.308594 270.429688 184.695312 271.144531 184.867188 271.695312 C 185.125 272.515625 185.335938 273.230469 185.523438 273.992188 L 186.363281 275.941406 C 187.511719 277.703125 189.890625 281.375 191.132812 282.652344 L 193.007812 284.550781 C 193.171875 284.71875 193.164062 284.714844 193.335938 284.878906 L 208.714844 305.257812 C 209.816406 306.625 212.410156 309.226562 214.082031 310.058594 L 219.902344 312.765625 C 222.214844 313.582031 227.171875 315.601562 229.453125 316.175781 C 231.324219 316.644531 232.945312 317.480469 234.671875 318.171875 L 237.722656 319.382812 C 238.097656 319.546875 238.359375 319.605469 238.796875 319.78125 C 239.171875 319.929688 239.382812 320.078125 239.6875 320.203125 C 240.722656 320.636719 241.851562 320.929688 242.867188 321.453125 L 244.878906 322.226562 C 247.550781 323.351562 250.523438 324.320312 253.269531 325.316406 C 253.632812 325.445312 253.929688 325.632812 254.292969 325.765625 L 256.347656 326.5 C 256.859375 326.65625 256.992188 326.691406 257.457031 326.863281 C 258.207031 327.144531 259.125 327.160156 259.914062 327.363281 C 260.316406 327.464844 260.480469 327.5625 260.902344 327.6875 L 263.101562 328.433594 C 264.625 328.914062 266.210938 328.765625 267.445312 329.832031 C 268.566406 330.796875 269.742188 331.445312 271.140625 331.878906 C 271.523438 331.996094 271.925781 331.988281 272.359375 332.132812 C 272.730469 332.257812 272.855469 332.367188 273.277344 332.519531 C 273.957031 332.765625 273.703125 332.585938 274.246094 333.027344 C 275.742188 334.242188 280.519531 337.980469 280.523438 339.710938 C 280.527344 341.378906 279.863281 342.675781 280.949219 344.203125 C 281.578125 345.089844 281.917969 344.824219 281.65625 345.953125 C 280.507812 345.855469 280.148438 345.238281 279.359375 344.640625 C 279.332031 344.617188 279.292969 344.585938 279.269531 344.566406 C 279.242188 344.542969 279.207031 344.511719 279.175781 344.492188 C 278.910156 344.285156 278.71875 344.148438 278.417969 343.9375 C 277.976562 343.613281 277.289062 343.15625 276.757812 342.972656 C 274.171875 342.097656 275.417969 342.613281 273.777344 343 C 273.878906 344.214844 275.8125 344.386719 276.917969 344.78125 C 278.566406 345.367188 281.324219 346.042969 281.324219 348.25 C 281.324219 349.792969 277.859375 355.925781 277.328125 357.867188 L 276.523438 361.160156 C 276.476562 361.398438 276.386719 361.890625 276.3125 362.257812 C 275.742188 365.128906 275.777344 366.050781 277.230469 368.417969 C 277.433594 368.757812 277.65625 368.996094 277.976562 369.3125 C 281.289062 372.59375 284.667969 371.546875 288.648438 370.335938 C 291.109375 369.585938 293.601562 367.519531 295.449219 365.816406 C 295.472656 365.792969 295.507812 365.757812 295.53125 365.738281 C 295.558594 365.714844 295.59375 365.679688 295.613281 365.660156 C 295.648438 365.628906 295.75 365.535156 295.785156 365.5 L 297.234375 364.160156 C 297.632812 363.8125 297.429688 363.96875 297.78125 363.554688 C 303.421875 356.882812 300.324219 358.660156 302.027344 356.648438 C 304.105469 354.195312 303.519531 350.589844 303.628906 346.933594 C 303.746094 342.921875 305.582031 342.320312 307.484375 339.964844 C 307.527344 339.90625 307.679688 339.710938 307.699219 339.6875 C 308.503906 338.601562 310.199219 336.527344 310.339844 335.445312 C 310.460938 334.550781 310.308594 334.183594 310.589844 333.402344 C 311.199219 331.726562 311.996094 330.144531 311.996094 328.082031 C 311.996094 323.164062 311.875 325.984375 311.164062 323.171875 C 310.90625 322.15625 310.1875 321.96875 309.84375 321.210938 C 309.566406 320.605469 309.847656 320.683594 309.257812 320.15625 C 308.871094 319.8125 308.6875 319.828125 308.273438 319.503906 C 306.070312 317.796875 305.035156 317.625 302.316406 318.402344 C 301.789062 318.554688 301.761719 318.636719 301.269531 318.832031 C 300.046875 319.320312 298.683594 319.375 297.480469 319.964844 C 296.804688 320.296875 296.566406 320.402344 295.757812 320.210938 C 295.136719 317.539062 294.703125 316.8125 293.09375 315 C 292.832031 314.699219 292.699219 314.496094 292.441406 314.175781 C 291.585938 313.125 290.308594 311.996094 289.265625 310.957031 C 289.242188 310.933594 289.207031 310.898438 289.183594 310.875 L 287.214844 308.914062 C 287.179688 308.882812 287.078125 308.789062 287.042969 308.753906 L 284.664062 306.707031 C 282.40625 304.875 279.6875 303.253906 277.0625 302.007812 C 276.871094 301.917969 276.726562 301.867188 276.5 301.753906 C 276.136719 301.574219 276.363281 301.652344 275.964844 301.46875 C 271.722656 299.511719 268.386719 299.28125 265.636719 298.1875 L 262.40625 296.65625 C 261.214844 296.152344 259.738281 295.992188 258.445312 295.367188 C 258.183594 295.238281 258.054688 295.214844 257.855469 295.140625 L 254.742188 293.660156 C 254.21875 293.417969 254.207031 293.316406 253.636719 293.125 C 250.414062 292.042969 249.492188 290.828125 246.882812 289.21875 C 246.1875 288.789062 245.65625 288.523438 244.828125 288.160156 C 244.1875 287.878906 243.507812 287.40625 242.96875 287.066406 L 238.503906 284.644531 C 238.292969 284.535156 238.28125 284.496094 237.964844 284.359375 C 236.414062 283.699219 235.847656 283.964844 234.261719 283.964844 C 233.371094 283.964844 233.347656 282.273438 233.203125 281.746094 C 232.609375 279.636719 229.574219 277.5 229.242188 276.355469 C 228.871094 275.078125 229.609375 275.078125 228.757812 273.726562 C 228 272.519531 228.261719 271.460938 228.007812 270.054688 C 227.929688 269.628906 227.863281 269.308594 227.859375 268.722656 C 227.824219 265.523438 227.5 265.40625 227.234375 262.949219 C 227.132812 262.019531 227.089844 260.890625 226.917969 260.152344 C 226.617188 258.84375 226.546875 257.359375 226.351562 255.964844 C 226.304688 255.664062 226.148438 255.128906 226.070312 254.765625 C 225.878906 253.867188 225.832031 253 225.707031 252.011719 L 224.578125 246.90625 C 223.554688 242.902344 224.832031 243.683594 224.457031 242.441406 C 224.359375 242.125 224.375 242.222656 224.238281 242.003906 C 223.046875 240.1875 223.925781 241.058594 223.925781 239.1875 C 223.925781 238.507812 223.589844 238.398438 223.476562 237.835938 C 222.78125 234.359375 224.253906 235.164062 224.253906 233.777344 C 224.253906 233.5625 223.765625 233.425781 223.765625 232.628906 C 223.765625 231.726562 225.351562 231.824219 224.117188 229.324219 C 223.546875 228.15625 224.121094 222.199219 223.886719 220.371094 L 221.734375 213.335938 C 221.484375 212.660156 221.386719 212.660156 221.140625 212.128906 C 220.214844 210.140625 219.085938 208.046875 217.835938 206.246094 L 215.082031 202.601562 C 213.8125 201.09375 212.265625 199.777344 211.152344 198.171875 C 210.78125 197.640625 210.542969 196.980469 210.050781 196.480469 C 209.589844 196.015625 209.101562 195.804688 208.726562 195.183594 C 208.28125 194.449219 208.367188 194.796875 207.804688 194.300781 C 207.054688 193.636719 207.191406 192.316406 205.808594 190.882812 L 204.660156 190.0625 C 204.351562 189.871094 204.285156 189.894531 204 189.738281 C 202.1875 188.734375 200.40625 187.558594 198.890625 186.15625 L 198.207031 185.527344 C 196.59375 183.941406 193.816406 181.714844 193.066406 179.679688 C 192.976562 179.441406 192.957031 179.214844 192.847656 178.921875 C 192.695312 178.503906 192.699219 178.621094 192.574219 178.378906 C 192.085938 177.4375 191.175781 174.175781 190.628906 172.9375 C 190.113281 171.78125 189.324219 170.78125 188.433594 169.886719 C 188.414062 169.863281 188.378906 169.828125 188.351562 169.800781 L 184.964844 165.644531 C 183.046875 163.324219 181.210938 160.875 179.128906 158.695312 L 173.9375 152.886719 C 172.699219 151.664062 171.710938 150.179688 170.664062 148.785156 L 165.582031 141.070312 C 163.878906 138.113281 163.140625 138.414062 163.683594 134.355469 C 163.9375 132.457031 163.75 131.449219 164.707031 129.800781 C 164.945312 129.398438 165.039062 129.023438 165.261719 128.546875 C 165.546875 127.949219 165.539062 127.941406 165.78125 127.257812 L 168.179688 120.640625 C 168.339844 120.15625 168.386719 119.621094 168.527344 119.019531 C 168.628906 118.589844 168.84375 118.054688 168.941406 117.628906 L 169.890625 113 C 170.207031 112.199219 170.753906 111.429688 171.011719 110.507812 L 172.816406 103.128906 C 173.128906 102.164062 173.269531 101.15625 173.554688 100.257812 C 173.886719 99.226562 173.875 98.191406 174.023438 97.113281 C 174.226562 95.628906 173.742188 94.351562 173.222656 93.246094 C 173.136719 93.074219 173.070312 92.902344 172.964844 92.675781 C 172.648438 91.996094 172.613281 91.984375 172.691406 91.371094 L 173.121094 88.019531 C 173.375 86.03125 173.683594 83.746094 174.265625 81.785156 L 174.96875 78.875 C 175.316406 77.730469 175.140625 77.015625 175.789062 76.09375 C 176.144531 75.589844 176.265625 75.605469 176.578125 75.074219 C 177.527344 73.457031 176.972656 73.328125 177.019531 71.726562 C 177.050781 70.632812 177.832031 71.710938 177.832031 67.96875 C 177.832031 66.566406 176.03125 66.128906 176.03125 65.34375 C 176.03125 64.714844 177.984375 60.773438 178.359375 60.128906 C 179.578125 58.003906 180.496094 55.675781 181.550781 53.484375 C 181.84375 52.875 181.945312 52.429688 182.21875 51.851562 L 189.652344 32.550781 C 189.871094 32.128906 190.253906 31.453125 190.554688 31 C 192.726562 27.722656 191.695312 27.699219 193.527344 26.589844 C 194.050781 26.269531 194.417969 25.996094 194.757812 25.519531 C 195.25 24.820312 194.9375 24.707031 195.753906 24.054688 C 196.671875 23.324219 197.933594 22.871094 198.960938 22.34375 C 199.300781 22.167969 199.332031 22.105469 199.660156 21.894531 C 200.015625 21.667969 199.992188 21.710938 200.34375 21.425781 L 201.195312 20.804688 C 201.222656 20.78125 201.261719 20.757812 201.289062 20.734375 L 201.46875 20.585938 C 202.105469 20.054688 202.5625 19.789062 202.605469 18.769531 C 202.746094 15.589844 202.121094 16.390625 202.714844 12.484375 C 203.214844 9.207031 202.921875 10.363281 202.925781 7.441406 C 202.929688 3.253906 199.402344 -0.00390625 195.167969 0.503906 C 194.230469 0.617188 192.945312 1.207031 192.175781 0.824219 Z M 192.207031 0.828125 " fill-opacity="1" fill-rule="evenodd"/></g></svg>