<svg xmlns="http://www.w3.org/2000/svg" xmlns:xlink="http://www.w3.org/1999/xlink" width="500" zoomAndPan="magnify" viewBox="0 0 375 374.999991" height="500" preserveAspectRatio="xMidYMid meet" version="1.0"><defs><clipPath id="d6aa79d871"><path d="M 133.023438 176.769531 L 162.273438 176.769531 L 162.273438 221.019531 L 133.023438 221.019531 Z M 133.023438 176.769531 " clip-rule="nonzero"/></clipPath></defs><g clip-path="url(#d6aa79d871)"><path fill="#000000" d="M 134.652344 218.078125 C 134.78125 218.070312 134.992188 218.039062 135.121094 218.007812 C 135.785156 217.855469 135.5625 217.972656 135.671875 218.175781 C 135.628906 218.203125 135.605469 218.234375 135.535156 218.234375 C 135.28125 218.234375 135.085938 218.25 134.839844 218.199219 C 134.761719 218.183594 134.695312 218.144531 134.652344 218.078125 Z M 144.269531 201.371094 C 144.398438 201.492188 144.53125 201.523438 144.53125 201.589844 C 144.53125 201.703125 144.492188 201.6875 144.480469 201.769531 C 144.472656 201.851562 144.511719 201.832031 144.511719 201.917969 C 144.511719 201.996094 144.5 201.960938 144.46875 202.03125 C 144.324219 202.34375 144.359375 202.21875 144.179688 202.394531 C 144.089844 202.480469 144.148438 202.472656 144.109375 202.578125 C 144.089844 202.640625 144.03125 202.6875 143.996094 202.738281 C 143.988281 202.75 143.863281 203.054688 143.742188 203.253906 C 143.671875 203.371094 143.726562 203.316406 143.613281 203.394531 C 143.515625 203.460938 143.453125 203.484375 143.402344 203.570312 C 143.304688 203.726562 143.34375 203.785156 143.28125 203.839844 C 143.207031 203.90625 143.207031 203.839844 143.144531 203.96875 C 143.054688 204.148438 143.167969 203.988281 143.011719 204.222656 C 142.902344 204.386719 142.925781 204.414062 142.855469 204.433594 C 142.828125 204.378906 142.828125 204.3125 142.816406 204.242188 C 142.804688 204.15625 142.789062 204.140625 142.777344 204.050781 C 142.636719 203.230469 142.921875 203.570312 143.003906 203.113281 C 143.085938 202.660156 142.933594 202.550781 142.933594 202.5 C 142.933594 202.347656 143.050781 202.402344 142.964844 201.730469 C 142.945312 201.570312 142.886719 201.414062 142.953125 201.277344 C 143.132812 201.277344 143.34375 201.285156 143.496094 201.265625 C 143.75 201.234375 143.816406 201.183594 143.972656 201.183594 C 144.191406 201.183594 144.09375 201.203125 144.269531 201.367188 Z M 148.199219 176.867188 C 148.128906 176.832031 148.125 176.800781 148.070312 176.785156 C 148.019531 176.769531 147.921875 176.777344 147.863281 176.777344 C 147.859375 176.855469 147.84375 176.820312 147.84375 176.894531 C 147.84375 176.933594 147.882812 176.992188 147.871094 177.042969 C 147.871094 177.0625 147.769531 177.238281 147.722656 177.46875 C 147.679688 177.683594 147.515625 177.734375 147.359375 177.859375 C 147.179688 178 147.207031 178.179688 147.132812 178.40625 C 147.070312 178.601562 147.046875 178.820312 146.992188 179.019531 C 146.964844 179.125 146.933594 179.199219 146.886719 179.296875 C 146.835938 179.40625 146.878906 179.523438 146.851562 179.648438 C 146.835938 179.714844 146.824219 179.746094 146.804688 179.796875 C 146.730469 179.992188 146.699219 180.140625 146.589844 180.332031 C 146.402344 180.652344 146.207031 180.96875 146.039062 181.292969 L 145.792969 181.722656 C 145.773438 181.75 145.773438 181.75 145.753906 181.78125 L 145.582031 182.050781 C 145.578125 182.054688 145.578125 182.0625 145.574219 182.0625 C 145.574219 182.066406 145.570312 182.074219 145.566406 182.078125 L 145.464844 182.246094 C 145.445312 182.277344 145.449219 182.269531 145.425781 182.300781 C 145.410156 182.328125 145.40625 182.339844 145.390625 182.363281 C 145.339844 182.441406 145.292969 182.503906 145.242188 182.582031 L 144.933594 183.027344 C 144.886719 183.101562 144.828125 183.171875 144.777344 183.253906 L 144.492188 183.746094 C 144.46875 183.789062 144.457031 183.824219 144.429688 183.875 L 144.207031 184.40625 C 144.144531 184.546875 143.949219 184.507812 143.84375 184.601562 C 143.652344 184.773438 143.726562 184.882812 143.820312 185.023438 C 143.800781 185.105469 143.746094 185.132812 143.726562 185.203125 C 143.6875 185.351562 143.773438 185.269531 143.664062 185.40625 L 143.398438 185.664062 C 143.253906 185.796875 143.296875 185.867188 143.21875 186.003906 C 143.183594 186.066406 143.136719 186.113281 143.105469 186.164062 C 143.035156 186.28125 143.019531 186.414062 142.957031 186.539062 L 142.523438 187.417969 C 142.5 187.464844 142.503906 187.460938 142.476562 187.507812 C 142.457031 187.546875 142.449219 187.5625 142.433594 187.597656 C 142.402344 187.664062 142.382812 187.691406 142.351562 187.765625 L 142.164062 188.121094 C 142.09375 188.222656 142.015625 188.332031 141.972656 188.449219 C 141.917969 188.589844 141.910156 188.703125 141.820312 188.820312 L 141.066406 189.632812 C 140.980469 189.726562 140.898438 189.800781 140.808594 189.894531 C 140.734375 189.972656 140.652344 190.121094 140.542969 190.148438 C 140.492188 190.113281 140.453125 190.082031 140.425781 190.015625 L 140.355469 189.855469 C 140.316406 189.769531 140.328125 189.773438 140.304688 189.671875 C 140.289062 189.59375 140.234375 189.546875 140.234375 189.511719 C 140.234375 189.414062 140.289062 189.417969 140.257812 189.335938 C 140.230469 189.269531 140.207031 189.277344 140.183594 189.195312 C 140.128906 189.007812 140.070312 189.082031 139.976562 188.980469 C 139.847656 188.84375 139.882812 188.769531 139.683594 188.710938 C 139.652344 188.703125 139.652344 188.699219 139.609375 188.6875 C 139.488281 188.648438 139.542969 188.679688 139.445312 188.679688 C 139.363281 188.679688 139.367188 188.667969 139.304688 188.628906 C 139.222656 188.582031 139.125 188.566406 139.027344 188.539062 C 139.023438 188.539062 138.96875 188.523438 138.964844 188.523438 C 138.898438 188.5 138.910156 188.476562 138.851562 188.472656 C 138.8125 188.472656 138.71875 188.503906 138.636719 188.503906 L 138.507812 188.460938 C 138.324219 188.421875 138.097656 188.476562 137.925781 188.488281 C 137.800781 188.492188 137.71875 188.464844 137.578125 188.464844 C 137.5 188.464844 137.457031 188.503906 137.347656 188.503906 C 137.269531 188.503906 137.230469 188.488281 137.152344 188.46875 C 136.976562 188.421875 136.824219 188.484375 136.632812 188.484375 C 136.53125 188.484375 136.472656 188.445312 136.34375 188.445312 C 136.21875 188.445312 136.148438 188.632812 136.066406 188.707031 C 135.734375 189.015625 135.945312 188.886719 135.742188 189.230469 C 135.664062 189.359375 135.648438 189.484375 135.59375 189.609375 C 135.523438 189.769531 135.558594 189.734375 135.535156 189.894531 C 135.523438 189.976562 135.503906 189.960938 135.480469 190.015625 C 135.414062 190.15625 135.464844 190.324219 135.453125 190.453125 L 135.402344 190.714844 C 135.378906 190.847656 135.382812 190.996094 135.351562 191.125 C 135.328125 191.21875 135.273438 191.382812 135.324219 191.484375 C 135.4375 191.6875 135.488281 191.554688 135.386719 191.894531 C 135.28125 192.238281 135.152344 192.164062 135.152344 192.511719 C 135.152344 192.730469 135.550781 192.683594 135.648438 192.804688 C 135.742188 192.921875 135.691406 193.210938 135.898438 193.441406 C 135.902344 193.445312 135.90625 193.449219 135.910156 193.453125 L 135.9375 193.480469 C 135.941406 193.484375 135.945312 193.488281 135.945312 193.492188 C 135.980469 193.53125 136.003906 193.5625 136.035156 193.59375 L 136.484375 194.113281 C 136.644531 194.253906 136.988281 194.152344 137.148438 194.113281 C 137.230469 194.09375 137.300781 194.105469 137.402344 194.09375 C 137.617188 194.070312 137.839844 194.113281 138.035156 194.199219 C 138.101562 194.230469 138.152344 194.257812 138.207031 194.296875 C 138.238281 194.316406 138.226562 194.3125 138.253906 194.328125 C 138.261719 194.332031 138.289062 194.347656 138.289062 194.347656 C 138.347656 194.398438 138.320312 194.332031 138.328125 194.425781 C 138.199219 194.425781 137.917969 194.355469 137.832031 194.375 C 137.726562 194.398438 137.640625 194.570312 137.621094 194.707031 C 137.605469 194.847656 137.683594 195.023438 137.691406 195.164062 C 137.699219 195.277344 137.6875 195.347656 137.75 195.363281 C 137.769531 195.371094 137.90625 195.339844 137.90625 195.453125 C 137.90625 195.558594 137.875 195.628906 137.863281 195.742188 C 137.851562 195.851562 137.832031 195.917969 137.808594 196.011719 C 137.785156 196.09375 137.78125 196.207031 137.765625 196.300781 C 137.726562 196.582031 137.578125 197.488281 137.578125 197.71875 C 137.578125 197.839844 137.628906 198.140625 137.660156 198.253906 L 137.769531 198.765625 C 137.789062 198.953125 137.785156 199.148438 137.820312 199.332031 L 137.953125 200.128906 C 137.984375 200.304688 138.164062 200.875 138.242188 201.074219 C 138.265625 201.125 138.261719 201.140625 138.277344 201.191406 C 138.296875 201.25 138.304688 201.257812 138.320312 201.304688 C 138.375 201.449219 138.382812 201.679688 138.445312 201.800781 C 138.46875 201.851562 138.527344 201.886719 138.566406 201.929688 C 138.570312 201.929688 138.574219 201.933594 138.578125 201.9375 C 138.636719 202 138.695312 202.046875 138.738281 202.121094 L 138.972656 202.507812 L 139.816406 203.519531 C 139.914062 203.617188 140 203.75 140.125 203.828125 C 140.175781 203.859375 140.1875 203.851562 140.238281 203.867188 C 140.296875 203.886719 140.308594 203.886719 140.332031 203.929688 C 140.367188 204.003906 140.332031 204.082031 140.386719 204.183594 C 140.597656 204.585938 140.542969 204.351562 140.660156 204.527344 L 140.554688 204.753906 C 140.4375 205.007812 140.085938 205.871094 140.03125 206.105469 C 139.960938 206.382812 139.878906 206.671875 139.75 206.925781 L 139.65625 207.140625 C 139.484375 207.523438 139.414062 207.707031 139.199219 208.09375 L 138.980469 208.511719 C 138.8125 208.855469 138.597656 209.164062 138.367188 209.464844 C 138.042969 209.882812 137.976562 209.730469 137.523438 209.871094 C 137.40625 209.90625 137.386719 209.894531 137.253906 209.914062 C 136.992188 209.953125 136.972656 210.257812 136.859375 210.449219 C 136.839844 210.484375 136.75 210.617188 136.75 210.644531 C 136.75 210.90625 136.777344 210.855469 136.820312 211.074219 C 136.867188 211.308594 136.765625 211.457031 137.058594 211.492188 C 137.285156 211.523438 137.15625 211.738281 137.480469 211.746094 C 137.644531 211.75 137.574219 211.796875 137.695312 211.859375 C 137.800781 211.910156 137.886719 211.882812 137.96875 211.914062 C 138.039062 211.945312 137.992188 211.949219 138.074219 211.980469 C 138.285156 212.054688 138.601562 211.835938 138.480469 212.171875 L 138.203125 213.015625 C 138.1875 213.089844 138.183594 213.144531 138.167969 213.214844 C 138.132812 213.382812 138.050781 213.785156 137.996094 213.929688 L 137.828125 214.417969 C 137.757812 214.59375 137.730469 214.769531 137.683594 214.953125 L 137.59375 215.324219 C 137.574219 215.386719 137.5625 215.410156 137.546875 215.492188 C 137.515625 215.679688 137.503906 215.675781 137.378906 215.769531 C 137.183594 215.90625 136.890625 216.0625 136.675781 216.1875 L 136.398438 216.351562 C 136.347656 216.378906 136.367188 216.367188 136.328125 216.394531 L 136.125 216.519531 C 135.960938 216.628906 136.0625 216.890625 136.101562 217.082031 C 136.117188 217.164062 136.128906 217.175781 136.152344 217.242188 C 136.171875 217.292969 136.175781 217.347656 136.199219 217.410156 C 136.277344 217.652344 136.378906 217.761719 136.222656 217.894531 C 136.21875 217.898438 136.203125 217.910156 136.199219 217.914062 L 136.132812 217.960938 L 136.042969 217.871094 C 136.042969 217.867188 136.039062 217.863281 136.035156 217.863281 C 135.953125 217.730469 136.03125 217.578125 135.996094 217.4375 C 135.972656 217.328125 135.824219 217.183594 135.714844 217.289062 C 135.558594 217.429688 135.800781 217.804688 135.609375 217.804688 C 135.5 217.804688 135.371094 217.78125 135.265625 217.804688 C 135.027344 217.855469 134.78125 217.949219 134.527344 217.976562 C 134.394531 217.988281 134.3125 217.976562 134.28125 218.097656 C 134.359375 218.210938 134.488281 218.175781 134.621094 218.222656 C 134.667969 218.238281 134.6875 218.253906 134.730469 218.265625 C 134.832031 218.300781 134.902344 218.273438 135.007812 218.292969 C 135.085938 218.308594 135.121094 218.347656 135.246094 218.347656 L 135.554688 218.347656 C 135.777344 218.347656 135.84375 218.234375 135.84375 218.425781 C 135.691406 218.460938 135.550781 218.578125 135.460938 218.683594 C 135.429688 218.722656 135.429688 218.730469 135.394531 218.769531 C 135.195312 218.980469 134.90625 219.167969 134.808594 219.285156 C 134.699219 219.417969 134.527344 219.488281 134.402344 219.613281 C 134.171875 219.847656 134.265625 219.738281 133.992188 219.875 L 133.683594 220.03125 C 133.617188 220.066406 133.535156 220.074219 133.457031 220.109375 C 133.03125 220.308594 133.222656 220.265625 133.089844 220.519531 C 133.023438 220.644531 133.058594 220.707031 133.183594 220.804688 C 133.40625 220.96875 133.597656 220.949219 133.894531 220.984375 L 134.742188 221.019531 L 136.824219 220.960938 C 136.972656 220.953125 137.136719 220.960938 137.285156 220.960938 C 137.464844 220.960938 137.5625 220.941406 137.730469 220.941406 C 138.03125 220.941406 138.332031 220.9375 138.636719 220.941406 C 139.214844 220.945312 139.683594 220.46875 139.410156 220.042969 C 139.339844 219.9375 139.320312 219.820312 139.285156 219.707031 C 139.253906 219.597656 139.175781 219.492188 139.144531 219.382812 C 139.105469 219.257812 139.078125 219.15625 139.007812 219.054688 C 138.898438 218.890625 138.960938 218.902344 138.960938 218.695312 C 138.960938 218.605469 138.9375 218.558594 138.917969 218.472656 C 138.863281 218.242188 138.871094 218.28125 139.003906 218.078125 L 139.097656 217.941406 C 139.246094 217.75 139.207031 217.714844 139.234375 217.441406 C 139.25 217.292969 139.265625 217.085938 139.339844 216.964844 L 140.03125 215.9375 C 140.105469 215.808594 140.1875 215.710938 140.273438 215.597656 L 140.660156 215.140625 C 140.695312 215.101562 140.695312 215.089844 140.730469 215.050781 C 140.753906 215.023438 140.773438 215.011719 140.796875 214.984375 L 141.003906 214.746094 C 141.40625 214.328125 141.472656 214.011719 142.003906 213.507812 C 142.226562 213.292969 142.441406 213.058594 142.699219 212.890625 C 142.75 212.859375 142.742188 212.867188 142.792969 212.828125 C 142.921875 212.71875 143.070312 212.632812 143.195312 212.519531 C 143.253906 212.464844 143.292969 212.449219 143.347656 212.382812 L 143.652344 211.949219 C 143.679688 211.914062 143.6875 211.914062 143.710938 211.875 L 144.085938 211.402344 C 144.296875 211.164062 144.402344 211.003906 144.578125 210.734375 C 144.886719 210.273438 145.21875 209.847656 145.558594 209.414062 L 145.824219 209.117188 C 145.824219 209.113281 145.828125 209.109375 145.832031 209.109375 L 146.054688 208.867188 C 146.058594 208.863281 146.0625 208.859375 146.0625 208.855469 L 146.632812 208.210938 C 146.722656 208.109375 146.789062 207.992188 146.898438 207.917969 C 147.015625 208.089844 147.105469 208.28125 147.179688 208.484375 C 147.207031 208.558594 147.207031 208.535156 147.238281 208.601562 C 147.273438 208.679688 147.316406 208.765625 147.339844 208.832031 C 147.367188 208.925781 147.394531 209.011719 147.414062 209.101562 L 147.515625 209.332031 C 147.648438 209.539062 147.929688 209.972656 148.074219 210.121094 L 148.292969 210.347656 C 148.3125 210.367188 148.3125 210.367188 148.332031 210.386719 L 150.140625 212.789062 C 150.269531 212.953125 150.574219 213.257812 150.769531 213.355469 L 151.453125 213.675781 C 151.722656 213.773438 152.308594 214.011719 152.574219 214.078125 C 152.792969 214.132812 152.984375 214.234375 153.1875 214.3125 L 153.546875 214.457031 C 153.589844 214.476562 153.621094 214.484375 153.671875 214.503906 C 153.714844 214.523438 153.742188 214.539062 153.777344 214.554688 C 153.898438 214.605469 154.03125 214.640625 154.148438 214.703125 L 154.386719 214.792969 C 154.699219 214.925781 155.050781 215.039062 155.371094 215.15625 C 155.414062 215.171875 155.449219 215.195312 155.492188 215.210938 L 155.734375 215.296875 C 155.792969 215.316406 155.808594 215.320312 155.863281 215.339844 C 155.953125 215.371094 156.058594 215.375 156.152344 215.398438 C 156.199219 215.410156 156.21875 215.421875 156.269531 215.4375 L 156.527344 215.523438 C 156.703125 215.582031 156.890625 215.566406 157.035156 215.691406 C 157.167969 215.804688 157.304688 215.878906 157.46875 215.929688 C 157.515625 215.945312 157.5625 215.945312 157.613281 215.960938 C 157.65625 215.976562 157.671875 215.988281 157.722656 216.007812 C 157.800781 216.035156 157.769531 216.015625 157.835938 216.066406 C 158.011719 216.210938 158.570312 216.652344 158.570312 216.855469 C 158.574219 217.054688 158.496094 217.207031 158.621094 217.386719 C 158.695312 217.492188 158.734375 217.460938 158.707031 217.59375 C 158.570312 217.582031 158.527344 217.507812 158.433594 217.4375 C 158.433594 217.433594 158.429688 217.429688 158.425781 217.429688 C 158.421875 217.425781 158.417969 217.421875 158.414062 217.421875 C 158.382812 217.394531 158.359375 217.378906 158.324219 217.355469 C 158.273438 217.316406 158.191406 217.261719 158.128906 217.242188 C 157.824219 217.136719 157.972656 217.199219 157.78125 217.242188 C 157.792969 217.386719 158.019531 217.40625 158.148438 217.453125 C 158.34375 217.523438 158.667969 217.601562 158.667969 217.863281 C 158.667969 218.046875 158.257812 218.769531 158.195312 219 L 158.101562 219.386719 C 158.097656 219.414062 158.085938 219.472656 158.078125 219.515625 C 158.011719 219.855469 158.015625 219.964844 158.183594 220.242188 C 158.210938 220.285156 158.234375 220.3125 158.273438 220.347656 C 158.660156 220.734375 159.058594 220.613281 159.527344 220.46875 C 159.816406 220.382812 160.109375 220.136719 160.324219 219.9375 C 160.328125 219.933594 160.332031 219.929688 160.335938 219.925781 C 160.335938 219.925781 160.339844 219.921875 160.34375 219.917969 C 160.347656 219.914062 160.359375 219.902344 160.363281 219.898438 L 160.535156 219.742188 C 160.582031 219.699219 160.558594 219.71875 160.597656 219.667969 C 161.261719 218.882812 160.898438 219.089844 161.097656 218.855469 C 161.339844 218.566406 161.273438 218.140625 161.285156 217.707031 C 161.300781 217.234375 161.515625 217.164062 161.738281 216.886719 C 161.742188 216.878906 161.761719 216.855469 161.761719 216.851562 C 161.859375 216.726562 162.058594 216.480469 162.074219 216.351562 C 162.085938 216.246094 162.070312 216.203125 162.101562 216.109375 C 162.175781 215.914062 162.269531 215.726562 162.269531 215.484375 C 162.269531 214.902344 162.253906 215.234375 162.171875 214.902344 C 162.140625 214.785156 162.054688 214.761719 162.015625 214.671875 C 161.984375 214.601562 162.015625 214.609375 161.945312 214.546875 C 161.902344 214.507812 161.878906 214.507812 161.832031 214.472656 C 161.574219 214.269531 161.449219 214.25 161.132812 214.339844 C 161.070312 214.359375 161.066406 214.371094 161.007812 214.390625 C 160.863281 214.449219 160.703125 214.457031 160.5625 214.527344 C 160.484375 214.566406 160.457031 214.578125 160.359375 214.554688 C 160.289062 214.238281 160.238281 214.152344 160.046875 213.941406 C 160.015625 213.90625 160.003906 213.878906 159.972656 213.84375 C 159.871094 213.71875 159.722656 213.585938 159.597656 213.460938 C 159.597656 213.460938 159.59375 213.457031 159.589844 213.453125 L 159.359375 213.222656 C 159.355469 213.21875 159.34375 213.207031 159.335938 213.203125 L 159.058594 212.960938 C 158.792969 212.746094 158.472656 212.554688 158.164062 212.40625 C 158.144531 212.394531 158.125 212.390625 158.097656 212.378906 C 158.058594 212.355469 158.082031 212.363281 158.035156 212.34375 C 157.539062 212.113281 157.148438 212.085938 156.824219 211.957031 L 156.445312 211.777344 C 156.304688 211.714844 156.132812 211.695312 155.980469 211.625 C 155.949219 211.609375 155.933594 211.605469 155.910156 211.597656 L 155.542969 211.421875 C 155.484375 211.394531 155.480469 211.382812 155.414062 211.359375 C 155.035156 211.230469 154.925781 211.085938 154.621094 210.898438 C 154.539062 210.847656 154.476562 210.816406 154.378906 210.773438 C 154.304688 210.738281 154.226562 210.683594 154.160156 210.644531 L 153.636719 210.359375 C 153.613281 210.34375 153.609375 210.339844 153.574219 210.324219 C 153.390625 210.246094 153.324219 210.277344 153.140625 210.277344 C 153.035156 210.277344 153.03125 210.078125 153.015625 210.015625 C 152.945312 209.765625 152.589844 209.515625 152.550781 209.378906 C 152.507812 209.230469 152.59375 209.230469 152.492188 209.070312 C 152.402344 208.925781 152.433594 208.800781 152.40625 208.636719 C 152.394531 208.585938 152.386719 208.546875 152.386719 208.480469 C 152.382812 208.101562 152.34375 208.085938 152.3125 207.796875 C 152.300781 207.6875 152.296875 207.554688 152.277344 207.46875 C 152.242188 207.3125 152.234375 207.136719 152.210938 206.972656 C 152.203125 206.9375 152.1875 206.875 152.175781 206.832031 C 152.15625 206.726562 152.148438 206.625 152.132812 206.507812 L 152.003906 205.90625 C 151.882812 205.433594 152.03125 205.523438 151.988281 205.378906 C 151.976562 205.339844 151.976562 205.351562 151.960938 205.328125 C 151.820312 205.113281 151.925781 205.214844 151.925781 204.996094 C 151.925781 204.914062 151.886719 204.902344 151.871094 204.835938 C 151.789062 204.425781 151.964844 204.519531 151.964844 204.355469 C 151.964844 204.332031 151.90625 204.3125 151.90625 204.21875 C 151.90625 204.113281 152.09375 204.125 151.949219 203.828125 C 151.878906 203.691406 151.949219 202.988281 151.921875 202.773438 L 151.667969 201.945312 C 151.640625 201.863281 151.628906 201.863281 151.597656 201.800781 C 151.488281 201.566406 151.355469 201.320312 151.210938 201.105469 L 150.886719 200.675781 C 150.738281 200.5 150.554688 200.34375 150.425781 200.152344 C 150.382812 200.089844 150.355469 200.015625 150.296875 199.953125 C 150.242188 199.898438 150.183594 199.875 150.140625 199.800781 C 150.089844 199.714844 150.097656 199.757812 150.03125 199.699219 C 149.945312 199.621094 149.960938 199.464844 149.796875 199.292969 L 149.664062 199.199219 C 149.625 199.175781 149.617188 199.175781 149.585938 199.160156 C 149.371094 199.039062 149.164062 198.902344 148.984375 198.738281 L 148.90625 198.664062 C 148.714844 198.476562 148.390625 198.210938 148.300781 197.972656 C 148.289062 197.945312 148.289062 197.917969 148.277344 197.882812 C 148.257812 197.832031 148.257812 197.847656 148.242188 197.820312 C 148.1875 197.707031 148.078125 197.324219 148.015625 197.175781 C 147.953125 197.039062 147.863281 196.921875 147.757812 196.816406 C 147.753906 196.8125 147.75 196.808594 147.746094 196.808594 L 147.351562 196.316406 C 147.125 196.042969 146.910156 195.753906 146.664062 195.496094 L 146.054688 194.8125 C 145.910156 194.667969 145.792969 194.492188 145.671875 194.328125 L 145.074219 193.417969 C 144.875 193.066406 144.785156 193.101562 144.851562 192.625 C 144.878906 192.398438 144.859375 192.28125 144.972656 192.085938 C 145 192.039062 145.011719 191.996094 145.035156 191.9375 C 145.070312 191.867188 145.070312 191.867188 145.097656 191.785156 L 145.378906 191.003906 C 145.398438 190.949219 145.402344 190.886719 145.417969 190.8125 C 145.429688 190.761719 145.457031 190.699219 145.46875 190.648438 L 145.578125 190.105469 C 145.617188 190.007812 145.679688 189.917969 145.710938 189.808594 L 145.921875 188.9375 C 145.960938 188.824219 145.976562 188.707031 146.011719 188.601562 C 146.050781 188.480469 146.046875 188.355469 146.066406 188.230469 C 146.089844 188.054688 146.03125 187.902344 145.972656 187.773438 C 145.960938 187.753906 145.953125 187.734375 145.941406 187.707031 C 145.902344 187.625 145.898438 187.625 145.910156 187.550781 L 145.960938 187.15625 C 145.988281 186.921875 146.023438 186.652344 146.09375 186.421875 L 146.175781 186.078125 C 146.21875 185.941406 146.195312 185.859375 146.273438 185.75 C 146.3125 185.691406 146.328125 185.691406 146.363281 185.628906 C 146.476562 185.4375 146.410156 185.421875 146.417969 185.234375 C 146.421875 185.105469 146.511719 185.230469 146.511719 184.789062 C 146.511719 184.625 146.300781 184.574219 146.300781 184.480469 C 146.300781 184.40625 146.53125 183.941406 146.574219 183.863281 C 146.71875 183.613281 146.824219 183.339844 146.949219 183.082031 C 146.984375 183.007812 146.996094 182.957031 147.027344 182.886719 L 147.898438 180.609375 C 147.925781 180.5625 147.972656 180.480469 148.007812 180.429688 C 148.261719 180.042969 148.140625 180.039062 148.355469 179.90625 C 148.417969 179.871094 148.460938 179.835938 148.5 179.78125 C 148.558594 179.699219 148.519531 179.683594 148.617188 179.609375 C 148.726562 179.523438 148.871094 179.46875 148.992188 179.40625 C 149.035156 179.386719 149.039062 179.378906 149.074219 179.351562 C 149.117188 179.328125 149.113281 179.332031 149.15625 179.296875 L 149.257812 179.226562 C 149.257812 179.222656 149.265625 179.21875 149.265625 179.214844 L 149.289062 179.199219 C 149.363281 179.136719 149.417969 179.105469 149.421875 178.984375 C 149.4375 178.609375 149.363281 178.703125 149.433594 178.242188 C 149.492188 177.855469 149.457031 177.992188 149.460938 177.648438 C 149.460938 177.152344 149.046875 176.769531 148.546875 176.828125 C 148.4375 176.84375 148.289062 176.914062 148.195312 176.867188 Z M 148.199219 176.867188 " fill-opacity="1" fill-rule="evenodd"/></g><path fill="#92d674" d="M 136.613281 233.472656 L 167.261719 288.554688 L 157.257812 358.707031 C 156.144531 366.507812 161.566406 373.730469 169.367188 374.839844 C 170.050781 374.9375 170.726562 374.984375 171.398438 374.984375 C 178.382812 374.984375 184.488281 369.851562 185.5 362.734375 L 196.179688 287.824219 C 196.195312 287.738281 196.191406 287.648438 196.203125 287.558594 C 196.257812 287.105469 196.292969 286.648438 196.304688 286.1875 C 196.308594 286.078125 196.316406 285.964844 196.316406 285.855469 C 196.320312 285.277344 196.289062 284.699219 196.21875 284.125 C 196.210938 284.058594 196.199219 283.996094 196.191406 283.933594 C 196.125 283.433594 196.027344 282.933594 195.90625 282.4375 C 195.871094 282.300781 195.835938 282.164062 195.796875 282.027344 C 195.675781 281.582031 195.53125 281.140625 195.359375 280.703125 C 195.328125 280.621094 195.3125 280.535156 195.277344 280.449219 L 180.660156 244.414062 Z M 136.613281 233.472656 " fill-opacity="1" fill-rule="nonzero"/><path fill="#92d674" d="M 188.382812 29.707031 C 186.765625 26.140625 182.988281 23.859375 178.890625 24.316406 C 173.800781 24.898438 170.148438 29.492188 170.726562 34.578125 L 175.25 74.289062 L 176.140625 73.492188 Z M 188.382812 29.707031 " fill-opacity="1" fill-rule="nonzero"/><path fill="#92d674" d="M 163.125 118.8125 L 188.988281 117.21875 C 191.527344 117.0625 193.886719 115.875 195.523438 113.925781 C 197.15625 111.976562 197.917969 109.441406 197.628906 106.917969 L 195.667969 89.703125 C 195.648438 89.722656 195.632812 89.742188 195.609375 89.761719 Z M 163.125 118.8125 " fill-opacity="1" fill-rule="nonzero"/><path fill="#92d674" d="M 89.933594 83.175781 C 88.871094 81.46875 87.9375 79.652344 87.167969 77.71875 C 86.53125 76.113281 86.03125 74.488281 85.652344 72.851562 C 76.640625 79.179688 68.199219 90.417969 78.167969 112.625 C 87.964844 134.453125 82.003906 141.085938 75.925781 143.332031 C 69.847656 145.578125 89.195312 150.804688 96.980469 130.46875 C 102.976562 114.792969 85.234375 93.480469 89.933594 83.175781 Z M 89.933594 83.175781 " fill-opacity="1" fill-rule="nonzero"/><path fill="#92d674" d="M 148.871094 59.570312 C 149.054688 60.558594 149.191406 61.550781 149.277344 62.550781 C 149.363281 63.554688 149.402344 64.554688 149.390625 65.558594 C 149.378906 66.5625 149.316406 67.566406 149.207031 68.5625 C 149.097656 69.5625 148.9375 70.554688 148.730469 71.535156 C 148.523438 72.519531 148.269531 73.488281 147.96875 74.445312 C 147.664062 75.40625 147.316406 76.34375 146.921875 77.269531 C 146.527344 78.191406 146.085938 79.09375 145.601562 79.972656 C 145.117188 80.855469 144.59375 81.710938 144.027344 82.539062 C 143.457031 83.367188 142.851562 84.164062 142.207031 84.933594 C 141.558594 85.703125 140.875 86.4375 140.160156 87.140625 C 139.441406 87.84375 138.6875 88.507812 137.90625 89.136719 C 137.121094 89.765625 136.308594 90.351562 135.46875 90.902344 C 134.625 91.449219 133.757812 91.957031 132.867188 92.417969 C 131.976562 92.882812 131.066406 93.300781 130.132812 93.675781 C 129.199219 94.046875 128.253906 94.375 127.289062 94.65625 C 126.324219 94.9375 125.347656 95.167969 124.359375 95.351562 C 123.371094 95.539062 122.378906 95.671875 121.378906 95.761719 C 120.378906 95.847656 119.375 95.886719 118.371094 95.875 C 117.367188 95.863281 116.363281 95.800781 115.367188 95.691406 C 114.367188 95.582031 113.378906 95.421875 112.394531 95.214844 C 111.410156 95.007812 110.441406 94.753906 109.484375 94.449219 C 108.527344 94.148438 107.585938 93.800781 106.664062 93.402344 C 105.738281 93.007812 104.835938 92.570312 103.957031 92.085938 C 103.074219 91.601562 102.222656 91.078125 101.394531 90.507812 C 100.5625 89.941406 99.765625 89.335938 98.996094 88.6875 C 98.226562 88.042969 97.492188 87.359375 96.789062 86.640625 C 96.085938 85.925781 95.421875 85.171875 94.792969 84.390625 C 94.167969 83.605469 93.578125 82.792969 93.03125 81.953125 C 92.480469 81.109375 91.976562 80.242188 91.511719 79.351562 C 91.046875 78.460938 90.628906 77.550781 90.257812 76.617188 C 89.882812 75.683594 89.554688 74.734375 89.273438 73.773438 C 88.996094 72.808594 88.761719 71.832031 88.578125 70.84375 C 88.394531 69.855469 88.257812 68.863281 88.171875 67.863281 C 88.082031 66.863281 88.046875 65.859375 88.058594 64.855469 C 88.070312 63.851562 88.128906 62.847656 88.238281 61.851562 C 88.347656 60.851562 88.507812 59.863281 88.714844 58.878906 C 88.921875 57.894531 89.175781 56.925781 89.480469 55.96875 C 89.78125 55.011719 90.132812 54.070312 90.527344 53.144531 C 90.921875 52.222656 91.359375 51.320312 91.84375 50.441406 C 92.328125 49.558594 92.855469 48.707031 93.421875 47.875 C 93.988281 47.046875 94.597656 46.25 95.242188 45.480469 C 95.886719 44.710938 96.570312 43.976562 97.289062 43.273438 C 98.007812 42.570312 98.757812 41.90625 99.542969 41.277344 C 100.324219 40.648438 101.136719 40.0625 101.980469 39.511719 C 102.820312 38.964844 103.6875 38.457031 104.578125 37.996094 C 105.46875 37.53125 106.382812 37.113281 107.3125 36.742188 C 108.246094 36.367188 109.195312 36.039062 110.160156 35.757812 C 111.125 35.480469 112.097656 35.246094 113.085938 35.0625 C 114.074219 34.875 115.066406 34.742188 116.070312 34.652344 C 117.070312 34.566406 118.070312 34.53125 119.078125 34.539062 C 120.082031 34.550781 121.082031 34.613281 122.082031 34.722656 C 123.078125 34.832031 124.070312 34.992188 125.050781 35.199219 C 126.035156 35.40625 127.003906 35.660156 127.964844 35.964844 C 128.921875 36.265625 129.863281 36.613281 130.785156 37.011719 C 131.707031 37.40625 132.609375 37.84375 133.492188 38.328125 C 134.371094 38.8125 135.226562 39.335938 136.054688 39.90625 C 136.882812 40.472656 137.683594 41.078125 138.449219 41.726562 C 139.21875 42.371094 139.957031 43.054688 140.65625 43.773438 C 141.359375 44.492188 142.023438 45.242188 142.652344 46.023438 C 143.28125 46.808594 143.871094 47.621094 144.417969 48.464844 C 144.964844 49.304688 145.472656 50.171875 145.933594 51.0625 C 146.398438 51.953125 146.816406 52.867188 147.191406 53.796875 C 147.5625 54.730469 147.890625 55.679688 148.171875 56.644531 C 148.453125 57.605469 148.683594 58.582031 148.871094 59.570312 Z M 148.871094 59.570312 " fill-opacity="1" fill-rule="nonzero"/><path fill="#92d674" d="M 120.890625 204.539062 C 118.375 220.886719 126.128906 228.035156 136.375 230.03125 L 207.570312 247.71875 L 253.03125 313.039062 C 255.804688 317.023438 260.242188 319.15625 264.753906 319.15625 C 267.566406 319.15625 270.40625 318.328125 272.886719 316.601562 C 279.355469 312.101562 280.945312 303.210938 276.449219 296.746094 L 227.921875 227.019531 C 227.867188 226.9375 227.800781 226.863281 227.742188 226.785156 C 227.601562 226.589844 227.457031 226.402344 227.308594 226.214844 C 227.179688 226.058594 227.050781 225.90625 226.917969 225.753906 C 226.757812 225.570312 226.59375 225.390625 226.417969 225.210938 C 226.28125 225.070312 226.136719 224.933594 225.992188 224.796875 C 225.816406 224.628906 225.636719 224.464844 225.449219 224.304688 C 225.285156 224.167969 225.117188 224.035156 224.945312 223.90625 C 224.765625 223.765625 224.589844 223.625 224.402344 223.492188 C 224.179688 223.335938 223.945312 223.191406 223.710938 223.050781 C 223.566406 222.957031 223.425781 222.863281 223.273438 222.773438 C 222.878906 222.550781 222.46875 222.339844 222.050781 222.152344 C 222.046875 222.152344 222.039062 222.148438 222.03125 222.144531 L 165.742188 196.996094 C 163.6875 190.210938 161.730469 182.03125 160.445312 172.378906 C 159.597656 166.003906 159.046875 158.980469 158.953125 151.28125 C 172.625 151.355469 173.25 136.152344 169.140625 128.691406 C 168.300781 127.171875 164.15625 124.8125 159.128906 122.386719 L 146.613281 133.578125 C 144.308594 135.636719 141.335938 136.773438 138.246094 136.773438 C 134.679688 136.773438 131.265625 135.246094 128.886719 132.585938 C 124.273438 127.429688 124.71875 119.476562 129.878906 114.863281 L 144.984375 101.351562 L 131.90625 102.15625 C 119.796875 101.894531 108.773438 110.421875 108.574219 127.960938 C 108.394531 143.378906 121.160156 148.949219 122.660156 176.503906 C 123.066406 184.007812 122.644531 193.128906 120.890625 204.539062 Z M 120.890625 204.539062 " fill-opacity="1" fill-rule="nonzero"/><path fill="#92d674" d="M 132.0625 117.308594 C 128.246094 120.722656 127.921875 126.582031 131.332031 130.402344 C 133.164062 132.449219 135.703125 133.492188 138.246094 133.492188 C 140.449219 133.492188 142.65625 132.714844 144.425781 131.132812 L 193.421875 87.316406 C 194.738281 86.136719 195.695312 84.605469 196.171875 82.902344 L 214.421875 17.628906 L 234.167969 19.976562 C 234.308594 19.992188 234.453125 20 234.589844 20 C 236.273438 20 237.75 18.8125 238.085938 17.128906 C 238.449219 15.300781 237.34375 13.503906 235.546875 13 L 202.746094 3.832031 C 200.851562 3.292969 198.882812 4.410156 198.351562 6.304688 L 198.332031 6.300781 L 179.039062 75.300781 Z M 132.0625 117.308594 " fill-opacity="1" fill-rule="nonzero"/></svg>