<svg xmlns="http://www.w3.org/2000/svg" xmlns:xlink="http://www.w3.org/1999/xlink" width="500" zoomAndPan="magnify" viewBox="0 0 375 374.999991" height="500" preserveAspectRatio="xMidYMid meet" version="1.0"><defs><clipPath id="962bb121b6"><path d="M 50.089844 102.949219 L 117.589844 102.949219 L 117.589844 176.449219 L 50.089844 176.449219 Z M 50.089844 102.949219 " clip-rule="nonzero"/></clipPath><clipPath id="45755aa6a9"><path d="M 159 167 L 362.8125 167 L 362.8125 369.8125 L 159 369.8125 Z M 159 167 " clip-rule="nonzero"/></clipPath><clipPath id="50500869c5"><path d="M 130 186.238281 L 351.855469 186.238281 L 351.855469 369.8125 L 130 369.8125 Z M 130 186.238281 " clip-rule="nonzero"/></clipPath><clipPath id="49c0a5bc97"><path d="M 137.003906 212 L 309.300781 212 L 309.300781 369.8125 L 137.003906 369.8125 Z M 137.003906 212 " clip-rule="nonzero"/></clipPath><clipPath id="7d42e47f89"><path d="M 0 5.390625 L 243 5.390625 L 243 249 L 0 249 Z M 0 5.390625 " clip-rule="nonzero"/></clipPath></defs><g clip-path="url(#962bb121b6)"><path fill="#000000" d="M 60.078125 93.378906 C 60.378906 93.515625 60.707031 93.472656 61.019531 93.523438 C 64.664062 94.097656 67.128906 97.648438 66.359375 101.242188 C 66.273438 101.652344 66.167969 102.058594 66.03125 102.453125 C 65.480469 104.058594 64.460938 105.222656 62.859375 105.890625 C 60.835938 106.734375 58.851562 106.914062 56.878906 105.800781 C 55.945312 105.277344 55.175781 104.558594 54.570312 103.671875 C 54.394531 103.414062 54.214844 103.160156 53.992188 102.832031 C 53.6875 103.734375 53.394531 104.554688 53.132812 105.382812 C 52.964844 105.914062 53.230469 106.3125 53.613281 106.644531 C 54.410156 107.335938 55.207031 108.027344 56.019531 108.703125 C 56.539062 109.136719 57.03125 109.601562 57.5 110.09375 C 58.199219 110.828125 58.902344 111.542969 59.816406 112.046875 C 60.628906 112.488281 61.242188 113.203125 61.832031 113.902344 C 62.453125 114.644531 63.28125 115.070312 64.078125 115.554688 C 64.328125 115.703125 64.617188 115.679688 64.898438 115.652344 C 66.953125 115.441406 68.964844 115.535156 70.863281 116.46875 C 71.175781 116.621094 71.46875 116.570312 71.792969 116.480469 C 73 116.140625 74.191406 115.75 75.464844 115.699219 C 76.757812 115.644531 77.898438 115.984375 78.972656 116.675781 C 79.578125 117.0625 80.023438 116.972656 80.488281 116.546875 C 80.738281 116.316406 80.816406 116.050781 80.753906 115.738281 C 80.503906 114.484375 80.109375 113.335938 78.894531 112.625 C 76.664062 111.316406 76.242188 107.925781 77.300781 106.472656 C 77.597656 106.066406 77.882812 105.648438 78.292969 105.367188 C 80.453125 103.890625 82.738281 103.144531 85.320312 104.265625 C 85.996094 104.558594 86.480469 105.140625 87.183594 105.410156 C 87.457031 105.519531 87.636719 105.925781 87.628906 106.21875 C 87.601562 107.199219 88.335938 107.40625 89.003906 107.671875 C 89.828125 108 89.839844 107.988281 89.578125 108.832031 C 89.507812 109.054688 89.632812 109.132812 89.785156 109.175781 C 90.402344 109.351562 90.539062 110.015625 90.996094 110.351562 C 91.042969 110.382812 91.066406 110.523438 91.035156 110.570312 C 90.710938 111.09375 90.933594 111.65625 90.886719 112.195312 C 90.828125 112.90625 90.429688 113.421875 89.804688 113.726562 C 89.46875 113.894531 89.09375 113.988281 88.730469 114.09375 C 87.5625 114.445312 87.097656 115.214844 87.351562 116.421875 C 87.394531 116.617188 87.46875 116.804688 87.515625 116.996094 C 87.582031 117.265625 87.730469 117.375 88.023438 117.378906 C 89.085938 117.394531 89.957031 117.832031 90.777344 118.511719 C 92.125 119.632812 93.335938 120.847656 94.082031 122.457031 C 94.164062 122.640625 94.304688 122.8125 94.332031 122.996094 C 94.476562 124.015625 95.121094 124.679688 95.851562 125.324219 C 96.628906 126.011719 97.234375 126.863281 97.820312 127.71875 C 98.015625 128.003906 98.238281 128.167969 98.589844 128.191406 C 100.007812 128.289062 101.296875 128.796875 102.558594 129.425781 C 104.039062 130.167969 105.671875 130.421875 107.292969 130.597656 C 108.265625 130.707031 109.046875 130.152344 109.671875 129.433594 C 109.964844 129.097656 110.269531 128.78125 110.675781 128.605469 C 111.308594 128.328125 111.660156 127.824219 111.898438 127.214844 C 111.957031 127.066406 111.984375 126.875 112.175781 126.871094 C 112.402344 126.867188 112.453125 127.082031 112.503906 127.242188 C 112.753906 128.035156 112.304688 128.582031 111.800781 129.082031 C 111.40625 129.46875 111.34375 129.824219 111.679688 130.285156 C 112.007812 130.738281 112.390625 130.820312 112.859375 130.582031 C 113.632812 130.195312 114.449219 129.949219 115.289062 129.757812 C 115.480469 129.714844 115.683594 129.6875 115.878906 129.667969 C 116.144531 129.644531 116.464844 129.644531 116.519531 129.957031 C 116.574219 130.269531 116.289062 130.378906 116.019531 130.4375 C 115.253906 130.609375 114.546875 130.933594 113.855469 131.28125 C 113.617188 131.402344 113.253906 131.46875 113.359375 131.839844 C 113.464844 132.214844 113.832031 132.0625 114.078125 132.046875 C 114.574219 132.019531 115.066406 131.917969 115.5625 131.875 C 115.917969 131.847656 116.28125 131.847656 116.636719 131.878906 C 116.945312 131.90625 117.285156 132.023438 117.269531 132.386719 C 117.253906 132.804688 116.855469 132.683594 116.613281 132.675781 C 115.558594 132.636719 114.589844 133.195312 113.511719 133.074219 C 113.820312 133.433594 114.226562 133.417969 114.59375 133.492188 C 115.355469 133.652344 116.125 133.765625 116.886719 133.914062 C 117.15625 133.96875 117.527344 134.03125 117.441406 134.394531 C 117.363281 134.710938 117.027344 134.699219 116.730469 134.632812 C 116.445312 134.5625 116.15625 134.539062 115.800781 134.625 C 116.113281 134.839844 116.398438 135.011719 116.648438 135.21875 C 116.761719 135.308594 116.898438 135.464844 116.75 135.625 C 116.644531 135.742188 116.503906 135.710938 116.359375 135.65625 C 114.964844 135.121094 113.53125 134.765625 112.046875 134.558594 C 111.285156 134.453125 110.554688 134.136719 109.808594 133.914062 C 108.980469 133.671875 108.140625 133.496094 107.273438 133.609375 C 104.480469 133.972656 101.742188 133.566406 99.007812 133.070312 C 98.300781 132.945312 97.609375 132.738281 96.886719 132.707031 C 96.386719 132.683594 96.105469 132.300781 95.78125 131.976562 C 95.625 132.210938 95.691406 132.414062 95.691406 132.605469 C 95.695312 135.03125 95.71875 137.457031 95.710938 139.882812 C 95.710938 140.511719 95.332031 141.046875 95.121094 141.621094 C 94.78125 142.535156 94.367188 143.417969 94.121094 144.363281 C 94.085938 144.5 93.976562 144.675781 94.027344 144.761719 C 94.5 145.609375 93.921875 146.234375 93.582031 146.898438 C 93.453125 147.152344 93.375 147.324219 93.613281 147.574219 C 93.875 147.859375 93.8125 148.25 93.769531 148.601562 C 93.671875 149.375 93.609375 150.148438 93.625 150.925781 C 93.648438 152 93.378906 153.015625 93.066406 154.023438 C 92.667969 155.3125 92.574219 156.589844 93.046875 157.886719 C 93.207031 158.332031 93.273438 158.816406 93.449219 159.257812 C 94.558594 162.042969 94.296875 164.917969 94.019531 167.792969 C 93.980469 168.15625 93.855469 168.488281 93.675781 168.800781 C 93.414062 169.25 93.191406 169.707031 93.09375 170.230469 C 92.996094 170.769531 92.671875 171.132812 92.097656 171.183594 C 91.769531 171.210938 91.523438 171.351562 91.355469 171.613281 C 90.285156 173.335938 88.5625 173.660156 86.742188 173.757812 C 85.925781 173.796875 85.105469 173.769531 84.289062 173.667969 C 83.953125 173.625 83.675781 173.671875 83.402344 173.886719 C 83.167969 174.066406 82.902344 174.210938 82.640625 174.355469 C 81.472656 174.996094 80.355469 174.96875 79.3125 174.078125 C 79.296875 174.066406 79.277344 174.058594 79.265625 174.039062 C 78.191406 172.726562 76.625 172.542969 75.109375 172.253906 C 73.484375 171.941406 71.835938 171.800781 70.191406 171.644531 C 69.6875 171.59375 69.410156 171.675781 69.410156 172.273438 C 69.40625 172.8125 69.28125 173.378906 68.679688 173.601562 C 68.09375 173.824219 67.640625 173.484375 67.132812 173.21875 C 66.355469 172.816406 65.585938 172.285156 64.617188 172.480469 C 64.457031 172.511719 64.316406 172.558594 64.175781 172.644531 C 62.945312 173.390625 61.855469 174.292969 61.023438 175.480469 C 60.589844 176.101562 59.925781 176.375 59.25 176.617188 C 59.207031 176.617188 59.167969 176.617188 59.128906 176.617188 C 57.84375 176.265625 57.351562 175.300781 57.210938 174.089844 C 57.128906 173.386719 57.179688 172.699219 57.300781 171.980469 C 57.402344 171.375 57.960938 170.914062 57.785156 170.253906 C 57.773438 170.195312 57.882812 170.074219 57.960938 170.027344 C 58.203125 169.882812 58.3125 169.683594 58.347656 169.40625 C 58.375 169.183594 58.523438 168.992188 58.730469 168.898438 C 58.957031 168.796875 58.984375 168.59375 59.09375 168.417969 C 59.464844 167.808594 60.054688 167.367188 60.449219 166.761719 C 60.503906 166.675781 60.660156 166.691406 60.664062 166.488281 C 60.671875 166.027344 60.980469 165.792969 61.417969 165.714844 C 61.578125 165.6875 61.753906 165.6875 61.640625 165.433594 C 61.039062 164.050781 62.121094 163.144531 62.773438 162.285156 C 63.582031 161.222656 64.953125 161.183594 66.105469 161.765625 C 66.433594 161.933594 66.652344 162.136719 66.640625 162.539062 C 66.625 162.941406 66.835938 163.257812 67.09375 163.550781 C 67.703125 164.234375 68.246094 164.980469 68.65625 165.792969 C 68.980469 166.4375 69.265625 166.769531 69.976562 166.746094 C 71.078125 166.710938 72.179688 166.621094 73.375 166.546875 C 71.917969 164.417969 70.78125 162.191406 69.226562 160.207031 C 68.261719 158.96875 66.976562 158.039062 66.09375 156.738281 C 65.960938 156.550781 65.8125 156.523438 65.648438 156.679688 C 65.503906 156.816406 65.382812 156.972656 65.242188 157.113281 C 65.085938 157.273438 64.996094 157.566406 64.6875 157.457031 C 64.410156 157.359375 64.316406 157.117188 64.265625 156.847656 C 64.164062 156.273438 64.363281 155.605469 63.769531 155.167969 C 63.742188 155.148438 63.738281 155.09375 63.738281 155.054688 C 63.796875 153.90625 62.859375 153.382812 62.121094 152.960938 C 61.519531 152.621094 60.902344 152.21875 60.183594 151.988281 C 58.972656 151.605469 57.84375 150.976562 56.511719 151.015625 C 56.175781 151.023438 55.835938 150.953125 55.5 150.910156 C 55.089844 150.863281 54.738281 150.683594 54.464844 150.375 C 53.945312 149.792969 54 149.355469 54.6875 148.984375 C 55.386719 148.601562 56.144531 148.34375 56.902344 148.097656 C 59.269531 147.320312 61.730469 147.265625 64.183594 147.109375 C 64.28125 147.105469 64.378906 147.140625 64.476562 147.140625 C 65.128906 147.144531 65.789062 147.214844 66.433594 147.132812 C 67.679688 146.972656 68.925781 146.792969 70.183594 146.972656 C 70.992188 147.085938 71.363281 147.957031 70.902344 148.613281 C 70.726562 148.859375 70.5625 149.128906 70.617188 149.4375 C 70.886719 150.984375 70.144531 152.472656 70.371094 154.011719 C 70.378906 154.046875 70.367188 154.09375 70.347656 154.125 C 70.21875 154.359375 70.3125 154.519531 70.484375 154.699219 C 71.273438 155.515625 72.082031 156.320312 72.816406 157.183594 C 73.871094 158.421875 75.386719 159.027344 76.625 160.011719 C 76.703125 160.074219 76.789062 160.140625 76.882812 160.050781 C 77.410156 159.542969 78.050781 159.738281 78.648438 159.804688 C 79.125 159.855469 79.183594 159.75 79.058594 159.308594 C 78.496094 157.332031 78.242188 155.316406 78.132812 153.253906 C 78.039062 151.445312 78.035156 149.644531 78.039062 147.835938 C 78.042969 147.117188 78.167969 146.417969 78.296875 145.710938 C 78.605469 144.003906 79.988281 142.828125 80.449219 141.191406 C 80.601562 140.667969 80.800781 140.28125 80.238281 139.917969 C 80.015625 139.773438 79.851562 139.546875 80.015625 139.257812 C 80.175781 138.988281 80.390625 138.785156 80.746094 138.855469 C 80.804688 138.863281 80.863281 138.871094 80.921875 138.882812 C 81.414062 138.992188 81.5625 138.566406 81.800781 138.304688 C 82.046875 138.035156 81.734375 137.878906 81.628906 137.699219 C 81.363281 137.238281 80.902344 136.867188 80.914062 136.285156 C 80.921875 135.953125 80.777344 135.730469 80.589844 135.492188 C 79.503906 134.101562 78.449219 132.722656 77.621094 131.125 C 76.605469 129.160156 75.773438 127.179688 75.273438 125.042969 C 74.976562 123.765625 74.332031 123.234375 73.039062 123.085938 C 72.144531 122.980469 71.246094 122.960938 70.351562 123.015625 C 69.296875 123.082031 68.3125 122.84375 67.429688 122.3125 C 65.574219 121.203125 63.539062 120.496094 61.578125 119.625 C 60.53125 119.160156 59.507812 118.621094 58.734375 117.785156 C 57.277344 116.210938 55.75 114.695312 54.558594 112.882812 C 53.625 111.46875 52.992188 109.871094 51.914062 108.558594 C 51.164062 107.640625 50.480469 106.710938 50.152344 105.558594 C 50.152344 105.320312 50.152344 105.082031 50.152344 104.839844 C 50.320312 104.007812 50.421875 103.15625 50.664062 102.34375 C 50.886719 101.609375 50.726562 100.8125 51.039062 100.136719 C 51.359375 99.441406 51.585938 98.738281 51.75 98 C 51.84375 97.566406 52 97.179688 52.367188 96.878906 C 53.070312 96.300781 53.757812 95.695312 54.449219 95.101562 C 54.703125 94.886719 54.921875 94.554688 55.25 95.046875 C 55.398438 95.273438 55.511719 94.992188 55.609375 94.914062 C 56.519531 94.207031 57.527344 93.726562 58.671875 93.527344 C 59.023438 93.464844 59.394531 93.53125 59.730469 93.375 C 59.839844 93.378906 59.957031 93.378906 60.078125 93.378906 Z M 60.078125 93.378906 " fill-opacity="1" fill-rule="nonzero"/></g><g clip-path="url(#45755aa6a9)"><path fill="#d0d0d0" d="M 243.898438 369.8125 C 242.6875 369.8125 240.867188 369.203125 239.648438 368.59375 C 237.226562 366.777344 236.011719 364.347656 236.617188 361.921875 C 236.617188 361.3125 251.785156 296.34375 161.992188 225.304688 C 158.960938 222.875 158.960938 218.621094 161.382812 216.195312 C 163.8125 213.160156 168.664062 213.160156 171.09375 215.589844 C 242.6875 272.664062 252.394531 325.488281 251.785156 350.988281 C 309.421875 313.953125 341.582031 275.699219 348.253906 236.839844 C 353.710938 201.015625 334.300781 179.15625 333.691406 177.941406 C 331.261719 174.90625 331.871094 171.261719 334.300781 168.835938 C 337.332031 166.40625 341.582031 167.015625 344.003906 169.441406 C 345.21875 170.65625 368.273438 196.761719 361.601562 238.050781 C 354.320312 282.984375 316.09375 327.308594 246.324219 369.203125 C 246.929688 369.203125 245.109375 369.8125 243.898438 369.8125 " fill-opacity="1" fill-rule="nonzero"/></g><g clip-path="url(#50500869c5)"><path fill="#d0d0d0" d="M 180.800781 369.8125 C 178.980469 369.8125 177.769531 369.203125 175.949219 367.988281 C 173.519531 366.167969 172.914062 363.132812 174.128906 360.09375 C 175.339844 357.667969 200.820312 303.628906 132.261719 231.375 C 129.835938 228.339844 129.835938 224.695312 132.871094 222.265625 C 135.902344 219.839844 140.152344 219.839844 142.574219 222.875 C 193.539062 276.910156 196.574219 322.453125 192.328125 346.738281 C 308.210938 264.164062 297.289062 194.945312 297.289062 194.335938 C 296.683594 191.296875 298.503906 188.871094 300.925781 187.050781 C 303.964844 185.835938 306.996094 186.441406 309.421875 188.261719 C 387.082031 267.199219 333.691406 315.164062 333.691406 315.769531 C 330.65625 318.199219 326.410156 318.199219 323.375 315.769531 C 320.953125 313.34375 320.953125 309.089844 323.375 306.664062 C 325.195312 304.84375 360.992188 271.445312 310.632812 211.339844 C 306.996094 241.085938 286.367188 301.808594 183.832031 368.59375 C 183.226562 369.203125 182.011719 369.8125 180.800781 369.8125 " fill-opacity="1" fill-rule="nonzero"/></g><g clip-path="url(#49c0a5bc97)"><path fill="#d0d0d0" d="M 299.105469 369.8125 L 297.289062 369.8125 C 293.648438 368.59375 291.222656 364.953125 292.433594 361.921875 C 293.042969 359.488281 310.03125 299.984375 230.550781 231.375 C 224.480469 252.628906 205.070312 298.769531 148.644531 343.703125 C 145.609375 346.132812 141.363281 345.523438 138.933594 343.09375 C 136.511719 340.058594 136.511719 336.414062 139.542969 333.988281 C 209.921875 278.128906 219.628906 218.621094 219.628906 218.015625 C 220.238281 215.585938 221.449219 213.769531 223.878906 212.550781 C 226.304688 211.941406 228.730469 211.941406 231.15625 213.769531 C 328.230469 290.878906 307.601562 361.921875 306.390625 364.953125 C 305.175781 367.988281 302.144531 369.8125 299.105469 369.8125 " fill-opacity="1" fill-rule="nonzero"/></g><path fill="#ed4c5c" d="M 309.421875 133.617188 C 262.707031 133.617188 176.550781 165.191406 148.039062 192.515625 C 142.574219 197.980469 132.261719 212.550781 173.519531 212.550781 C 224.480469 212.550781 302.144531 180.980469 325.804688 153.046875 C 333.691406 142.726562 337.941406 133.617188 309.421875 133.617188 M 172.914062 243.519531 C 95.863281 243.519531 105.566406 205.871094 115.882812 191.90625 C 144.394531 153.65625 252.394531 114.792969 309.421875 114.792969 C 374.949219 114.792969 364.632812 151.226562 350.679688 169.441406 C 319.734375 211.339844 229.945312 243.519531 172.914062 243.519531 " fill-opacity="1" fill-rule="nonzero"/><g clip-path="url(#7d42e47f89)"><path fill="#ff8736" d="M 121.34375 5.503906 C 188.359375 5.503906 242.6875 59.871094 242.6875 126.9375 C 242.6875 194.003906 188.359375 248.375 121.34375 248.375 C 54.328125 248.375 0 194.003906 0 126.9375 C 0 59.871094 54.328125 5.503906 121.34375 5.503906 " fill-opacity="1" fill-rule="nonzero"/></g><path fill="#3e4347" d="M 189.292969 197.371094 C 188.234375 196.691406 187.246094 195.957031 186.316406 195.167969 C 190.726562 190.621094 194.753906 185.691406 198.398438 180.371094 C 213.5625 157.296875 220.238281 128.761719 219.019531 102.046875 C 218.417969 88.078125 216.597656 74.722656 212.347656 61.96875 C 210.527344 55.289062 207.496094 49.21875 204.460938 43.148438 C 201.429688 37.078125 197.179688 31.609375 191.722656 27.96875 C 201.429688 37.078125 205.070312 50.433594 207.496094 63.792969 C 209.921875 76.542969 211.136719 89.902344 211.136719 102.652344 C 210.527344 128.152344 204.460938 154.261719 189.902344 175.515625 C 186.964844 179.988281 183.671875 184.164062 180.074219 188.046875 C 177.101562 183.578125 174.914062 178.421875 172.914062 173.082031 C 169.273438 163.371094 166.84375 153.046875 165.023438 142.726562 L 158.960938 111.152344 C 154.105469 90.507812 148.644531 68.648438 137.722656 49.828125 C 132.261719 40.71875 124.980469 31.609375 116.488281 24.933594 C 107.996094 18.253906 97.683594 13.398438 87.367188 10.964844 C 107.386719 18.253906 122.554688 34.644531 131.65625 52.863281 C 140.753906 71.078125 145.609375 91.722656 149.859375 112.367188 C 154.105469 133.011719 157.140625 154.261719 165.632812 174.90625 C 168.195312 180.769531 171.421875 187.074219 175.984375 192.21875 C 170.769531 197.230469 165.023438 201.683594 158.855469 205.589844 C 153.085938 201.308594 147.527344 196.613281 141.972656 191.90625 C 126.804688 177.941406 112.847656 162.761719 99.503906 146.972656 C 86.15625 131.191406 74.019531 114.1875 62.488281 97.1875 C 57.03125 88.6875 51.570312 79.578125 46.71875 70.46875 C 41.867188 61.363281 37.617188 52.253906 35.1875 41.933594 C 35.796875 52.253906 38.828125 62.578125 42.46875 72.292969 C 46.71875 82.007812 51.570312 91.722656 56.425781 100.222656 C 66.738281 119.046875 78.875 136.046875 92.21875 152.4375 C 105.566406 168.226562 120.734375 183.40625 137.117188 196.761719 C 142.542969 201.03125 147.976562 205.042969 153.71875 208.660156 C 146.308594 212.835938 138.375 216.261719 130.101562 218.945312 C 124.859375 215.394531 119.15625 212.757812 113.453125 210.121094 C 98.285156 203.441406 81.90625 198.585938 67.347656 191.90625 C 52.175781 185.226562 38.828125 176.117188 27.300781 164.582031 C 16.378906 153.046875 7.3125 139.230469 0.03125 124.054688 C 3.671875 140.445312 10.921875 156.082031 21.839844 170.050781 C 32.761719 183.40625 47.324219 193.125 63.097656 200.40625 C 78.875 207.695312 95.253906 211.941406 111.027344 217.40625 C 114.777344 218.5625 118.527344 219.863281 122.140625 221.355469 C 100.234375 227.402344 78.210938 228.597656 54.117188 228.050781 C 80.160156 232.296875 105.472656 232.585938 131.515625 225.945312 C 132.175781 226.332031 132.835938 226.714844 133.476562 227.121094 C 140.152344 231.375 145.609375 237.449219 148.644531 245.339844 C 147.507812 237.929688 143.160156 229.984375 137.109375 224.519531 C 145.980469 222.027344 154.535156 218.433594 162.597656 213.734375 C 163.007812 213.945312 163.398438 214.167969 163.8125 214.371094 C 173.519531 219.230469 183.832031 223.480469 194.148438 224.085938 C 184.070312 221.121094 175.152344 216.988281 166.824219 211.140625 C 167.648438 210.613281 168.464844 210.066406 169.273438 209.515625 C 174.207031 206.136719 178.808594 202.414062 183.078125 198.371094 C 184.269531 199.128906 185.53125 199.816406 186.867188 200.40625 C 197.789062 205.265625 209.316406 203.441406 219.019531 199.195312 C 208.710938 201.621094 197.179688 202.230469 189.292969 197.371094 " fill-opacity="1" fill-rule="nonzero"/></svg>