<svg xmlns="http://www.w3.org/2000/svg" xmlns:xlink="http://www.w3.org/1999/xlink" width="500" zoomAndPan="magnify" viewBox="0 0 375 374.999991" height="500" preserveAspectRatio="xMidYMid meet" version="1.0"><defs><clipPath id="ad2e39e130"><path d="M 172.875 187.5 L 202.125 187.5 L 202.125 231.75 L 172.875 231.75 Z M 172.875 187.5 " clip-rule="nonzero"/></clipPath><clipPath id="20ed54cecb"><path d="M 85.925781 0 L 289.148438 0 L 289.148438 374.996094 L 85.925781 374.996094 Z M 85.925781 0 " clip-rule="nonzero"/></clipPath></defs><g clip-path="url(#ad2e39e130)"><path fill="#000000" d="M 174.503906 228.808594 C 174.632812 228.796875 174.847656 228.769531 174.972656 228.738281 C 175.636719 228.582031 175.414062 228.703125 175.523438 228.90625 C 175.480469 228.933594 175.457031 228.964844 175.386719 228.964844 C 175.132812 228.964844 174.9375 228.980469 174.691406 228.929688 C 174.613281 228.910156 174.550781 228.875 174.503906 228.808594 Z M 184.121094 212.097656 C 184.253906 212.222656 184.382812 212.253906 184.382812 212.320312 C 184.382812 212.433594 184.34375 212.417969 184.332031 212.5 C 184.324219 212.582031 184.363281 212.5625 184.363281 212.648438 C 184.363281 212.726562 184.351562 212.691406 184.320312 212.761719 C 184.175781 213.070312 184.210938 212.949219 184.03125 213.125 C 183.941406 213.210938 184 213.203125 183.964844 213.308594 C 183.941406 213.367188 183.886719 213.417969 183.851562 213.46875 C 183.839844 213.480469 183.714844 213.785156 183.59375 213.984375 C 183.523438 214.101562 183.582031 214.046875 183.464844 214.125 C 183.367188 214.191406 183.304688 214.214844 183.253906 214.300781 C 183.15625 214.453125 183.195312 214.511719 183.136719 214.566406 C 183.058594 214.636719 183.058594 214.570312 182.996094 214.699219 C 182.90625 214.878906 183.019531 214.714844 182.863281 214.953125 C 182.753906 215.117188 182.777344 215.144531 182.707031 215.164062 C 182.679688 215.109375 182.679688 215.042969 182.667969 214.972656 C 182.65625 214.886719 182.644531 214.871094 182.628906 214.78125 C 182.488281 213.960938 182.777344 214.300781 182.855469 213.84375 C 182.9375 213.386719 182.785156 213.28125 182.785156 213.230469 C 182.785156 213.078125 182.90625 213.132812 182.816406 212.460938 C 182.796875 212.300781 182.738281 212.144531 182.804688 212.007812 C 182.988281 212.007812 183.199219 212.015625 183.347656 211.996094 C 183.601562 211.960938 183.671875 211.914062 183.824219 211.914062 C 184.042969 211.914062 183.945312 211.933594 184.121094 212.097656 Z M 188.050781 187.597656 C 187.980469 187.5625 187.976562 187.53125 187.921875 187.515625 C 187.871094 187.5 187.773438 187.507812 187.714844 187.507812 C 187.710938 187.585938 187.695312 187.550781 187.695312 187.625 C 187.695312 187.664062 187.734375 187.722656 187.726562 187.773438 C 187.722656 187.792969 187.625 187.96875 187.578125 188.199219 C 187.535156 188.414062 187.367188 188.464844 187.210938 188.585938 C 187.03125 188.730469 187.058594 188.910156 186.988281 189.136719 C 186.925781 189.332031 186.898438 189.550781 186.847656 189.75 C 186.816406 189.855469 186.785156 189.929688 186.738281 190.027344 C 186.691406 190.136719 186.730469 190.25 186.703125 190.378906 C 186.691406 190.445312 186.675781 190.476562 186.65625 190.527344 C 186.582031 190.722656 186.550781 190.871094 186.441406 191.0625 C 186.253906 191.382812 186.058594 191.699219 185.890625 192.023438 L 185.644531 192.449219 C 185.628906 192.480469 185.625 192.480469 185.605469 192.507812 L 185.433594 192.78125 C 185.433594 192.785156 185.429688 192.789062 185.425781 192.792969 C 185.425781 192.796875 185.421875 192.804688 185.421875 192.808594 L 185.320312 192.976562 C 185.296875 193.007812 185.300781 193 185.277344 193.03125 C 185.261719 193.058594 185.257812 193.066406 185.242188 193.09375 C 185.191406 193.171875 185.144531 193.234375 185.09375 193.308594 L 184.785156 193.757812 C 184.738281 193.832031 184.679688 193.902344 184.628906 193.984375 L 184.34375 194.476562 C 184.324219 194.519531 184.308594 194.554688 184.285156 194.605469 L 184.058594 195.136719 C 183.996094 195.273438 183.800781 195.238281 183.695312 195.332031 C 183.503906 195.5 183.578125 195.613281 183.671875 195.75 C 183.652344 195.835938 183.597656 195.863281 183.578125 195.929688 C 183.539062 196.082031 183.625 196 183.515625 196.136719 L 183.25 196.394531 C 183.105469 196.527344 183.148438 196.597656 183.070312 196.734375 C 183.035156 196.796875 182.988281 196.84375 182.957031 196.894531 C 182.886719 197.011719 182.871094 197.144531 182.808594 197.269531 L 182.375 198.144531 C 182.351562 198.195312 182.355469 198.191406 182.328125 198.238281 C 182.308594 198.277344 182.300781 198.292969 182.285156 198.328125 C 182.253906 198.394531 182.234375 198.421875 182.203125 198.496094 L 182.015625 198.851562 C 181.945312 198.953125 181.871094 199.0625 181.824219 199.179688 C 181.769531 199.320312 181.761719 199.433594 181.675781 199.550781 L 180.921875 200.359375 C 180.832031 200.457031 180.75 200.53125 180.660156 200.625 C 180.585938 200.703125 180.503906 200.851562 180.398438 200.878906 C 180.34375 200.84375 180.304688 200.8125 180.277344 200.746094 L 180.207031 200.585938 C 180.167969 200.5 180.179688 200.503906 180.15625 200.402344 C 180.140625 200.324219 180.089844 200.277344 180.089844 200.242188 C 180.089844 200.144531 180.140625 200.148438 180.109375 200.066406 C 180.085938 200 180.058594 200.007812 180.035156 199.925781 C 179.980469 199.738281 179.921875 199.8125 179.828125 199.710938 C 179.703125 199.574219 179.734375 199.5 179.535156 199.441406 C 179.503906 199.433594 179.503906 199.429688 179.460938 199.417969 C 179.34375 199.378906 179.394531 199.410156 179.296875 199.410156 C 179.214844 199.410156 179.21875 199.398438 179.15625 199.359375 C 179.074219 199.3125 178.976562 199.292969 178.878906 199.269531 C 178.878906 199.269531 178.820312 199.253906 178.816406 199.253906 C 178.75 199.230469 178.761719 199.207031 178.703125 199.203125 C 178.664062 199.199219 178.570312 199.234375 178.488281 199.234375 L 178.359375 199.191406 C 178.175781 199.152344 177.949219 199.207031 177.777344 199.214844 C 177.652344 199.222656 177.570312 199.195312 177.429688 199.195312 C 177.351562 199.195312 177.308594 199.234375 177.199219 199.234375 C 177.121094 199.234375 177.082031 199.21875 177.003906 199.195312 C 176.828125 199.152344 176.675781 199.214844 176.488281 199.214844 C 176.382812 199.214844 176.324219 199.175781 176.199219 199.175781 C 176.070312 199.175781 176 199.363281 175.917969 199.4375 C 175.585938 199.746094 175.800781 199.617188 175.59375 199.960938 C 175.515625 200.089844 175.5 200.214844 175.445312 200.335938 C 175.375 200.5 175.410156 200.464844 175.386719 200.625 C 175.375 200.707031 175.355469 200.691406 175.332031 200.746094 C 175.265625 200.882812 175.316406 201.054688 175.304688 201.179688 L 175.253906 201.441406 C 175.230469 201.578125 175.234375 201.726562 175.203125 201.855469 C 175.179688 201.949219 175.125 202.113281 175.179688 202.214844 C 175.289062 202.417969 175.339844 202.285156 175.238281 202.625 C 175.132812 202.96875 175.003906 202.894531 175.003906 203.242188 C 175.003906 203.460938 175.402344 203.414062 175.5 203.535156 C 175.59375 203.652344 175.542969 203.941406 175.75 204.171875 C 175.753906 204.175781 175.757812 204.179688 175.761719 204.183594 L 175.789062 204.210938 C 175.792969 204.214844 175.796875 204.21875 175.796875 204.222656 C 175.832031 204.261719 175.855469 204.292969 175.886719 204.324219 L 176.335938 204.84375 C 176.496094 204.984375 176.84375 204.882812 177 204.84375 C 177.082031 204.824219 177.152344 204.835938 177.253906 204.824219 C 177.46875 204.800781 177.691406 204.84375 177.886719 204.929688 C 177.953125 204.960938 178.003906 204.988281 178.058594 205.027344 C 178.089844 205.046875 178.078125 205.042969 178.105469 205.058594 C 178.113281 205.0625 178.140625 205.078125 178.144531 205.078125 C 178.199219 205.128906 178.171875 205.0625 178.179688 205.15625 C 178.050781 205.15625 177.769531 205.085938 177.6875 205.101562 C 177.578125 205.128906 177.492188 205.300781 177.472656 205.4375 C 177.457031 205.578125 177.535156 205.753906 177.542969 205.894531 C 177.554688 206.007812 177.539062 206.078125 177.601562 206.09375 C 177.621094 206.101562 177.757812 206.070312 177.757812 206.183594 C 177.757812 206.289062 177.730469 206.359375 177.71875 206.472656 C 177.707031 206.582031 177.683594 206.648438 177.660156 206.742188 C 177.640625 206.824219 177.632812 206.9375 177.621094 207.03125 C 177.578125 207.308594 177.429688 208.21875 177.429688 208.445312 C 177.429688 208.570312 177.480469 208.871094 177.511719 208.984375 L 177.621094 209.496094 C 177.640625 209.683594 177.636719 209.878906 177.671875 210.0625 L 177.804688 210.859375 C 177.839844 211.035156 178.015625 211.605469 178.097656 211.800781 C 178.117188 211.851562 178.117188 211.867188 178.132812 211.921875 C 178.148438 211.980469 178.15625 211.988281 178.171875 212.035156 C 178.226562 212.179688 178.234375 212.410156 178.296875 212.53125 C 178.320312 212.582031 178.378906 212.617188 178.417969 212.65625 C 178.421875 212.660156 178.425781 212.664062 178.429688 212.667969 C 178.488281 212.730469 178.546875 212.773438 178.59375 212.851562 L 178.824219 213.238281 L 179.667969 214.246094 C 179.765625 214.347656 179.851562 214.480469 179.976562 214.558594 C 180.027344 214.589844 180.039062 214.582031 180.089844 214.597656 C 180.152344 214.617188 180.160156 214.617188 180.183594 214.660156 C 180.222656 214.734375 180.1875 214.8125 180.238281 214.914062 C 180.449219 215.316406 180.394531 215.082031 180.511719 215.257812 L 180.410156 215.484375 C 180.289062 215.734375 179.941406 216.601562 179.882812 216.832031 C 179.816406 217.113281 179.734375 217.402344 179.601562 217.652344 L 179.507812 217.871094 C 179.335938 218.253906 179.265625 218.4375 179.054688 218.824219 L 178.832031 219.242188 C 178.664062 219.582031 178.449219 219.894531 178.21875 220.195312 C 177.894531 220.613281 177.828125 220.460938 177.375 220.601562 C 177.257812 220.636719 177.238281 220.621094 177.105469 220.644531 C 176.84375 220.683594 176.828125 220.988281 176.714844 221.175781 C 176.691406 221.214844 176.601562 221.347656 176.601562 221.375 C 176.601562 221.636719 176.628906 221.585938 176.671875 221.804688 C 176.71875 222.039062 176.617188 222.1875 176.910156 222.222656 C 177.136719 222.253906 177.011719 222.46875 177.332031 222.476562 C 177.496094 222.480469 177.425781 222.527344 177.550781 222.589844 C 177.652344 222.640625 177.738281 222.613281 177.820312 222.644531 C 177.890625 222.675781 177.84375 222.679688 177.925781 222.710938 C 178.136719 222.785156 178.453125 222.566406 178.332031 222.898438 L 178.054688 223.746094 C 178.039062 223.816406 178.035156 223.871094 178.019531 223.945312 C 177.984375 224.113281 177.902344 224.515625 177.847656 224.660156 L 177.679688 225.148438 C 177.609375 225.324219 177.582031 225.5 177.535156 225.683594 L 177.445312 226.054688 C 177.425781 226.117188 177.417969 226.140625 177.402344 226.222656 C 177.367188 226.40625 177.355469 226.40625 177.230469 226.496094 C 177.035156 226.636719 176.742188 226.789062 176.527344 226.914062 L 176.25 227.082031 C 176.203125 227.105469 176.21875 227.097656 176.179688 227.125 L 175.976562 227.25 C 175.8125 227.359375 175.914062 227.621094 175.953125 227.8125 C 175.96875 227.894531 175.980469 227.90625 176.003906 227.972656 C 176.023438 228.023438 176.03125 228.078125 176.050781 228.140625 C 176.132812 228.382812 176.230469 228.492188 176.074219 228.625 C 176.070312 228.628906 176.058594 228.640625 176.050781 228.644531 L 175.984375 228.691406 L 175.898438 228.601562 C 175.894531 228.597656 175.890625 228.59375 175.890625 228.589844 C 175.808594 228.460938 175.882812 228.308594 175.847656 228.167969 C 175.824219 228.054688 175.675781 227.910156 175.566406 228.015625 C 175.410156 228.160156 175.652344 228.535156 175.464844 228.535156 C 175.351562 228.535156 175.222656 228.511719 175.117188 228.535156 C 174.878906 228.585938 174.636719 228.679688 174.382812 228.707031 C 174.246094 228.71875 174.164062 228.707031 174.132812 228.824219 C 174.210938 228.9375 174.34375 228.902344 174.472656 228.949219 C 174.519531 228.96875 174.539062 228.984375 174.582031 228.996094 C 174.683594 229.03125 174.753906 229.003906 174.859375 229.023438 C 174.9375 229.039062 174.972656 229.078125 175.097656 229.078125 L 175.40625 229.078125 C 175.632812 229.078125 175.695312 228.964844 175.695312 229.15625 C 175.542969 229.191406 175.402344 229.304688 175.3125 229.414062 C 175.28125 229.453125 175.28125 229.460938 175.246094 229.5 C 175.050781 229.710938 174.761719 229.898438 174.664062 230.015625 C 174.550781 230.148438 174.378906 230.21875 174.257812 230.34375 C 174.023438 230.578125 174.117188 230.46875 173.84375 230.605469 L 173.535156 230.761719 C 173.46875 230.796875 173.386719 230.804688 173.308594 230.839844 C 172.882812 231.039062 173.074219 230.996094 172.941406 231.246094 C 172.875 231.375 172.910156 231.4375 173.039062 231.53125 C 173.257812 231.699219 173.449219 231.679688 173.746094 231.710938 L 174.59375 231.75 L 176.675781 231.691406 C 176.824219 231.683594 176.988281 231.691406 177.136719 231.691406 C 177.316406 231.691406 177.414062 231.671875 177.582031 231.671875 C 177.882812 231.671875 178.183594 231.667969 178.488281 231.671875 C 179.066406 231.671875 179.539062 231.195312 179.261719 230.773438 C 179.195312 230.667969 179.175781 230.550781 179.136719 230.433594 C 179.105469 230.328125 179.027344 230.222656 178.996094 230.113281 C 178.957031 229.988281 178.929688 229.886719 178.859375 229.785156 C 178.75 229.621094 178.816406 229.632812 178.816406 229.425781 C 178.816406 229.335938 178.789062 229.289062 178.769531 229.203125 C 178.714844 228.96875 178.722656 229.011719 178.855469 228.808594 L 178.949219 228.671875 C 179.097656 228.480469 179.058594 228.445312 179.085938 228.171875 C 179.101562 228.023438 179.117188 227.816406 179.191406 227.695312 L 179.882812 226.667969 C 179.957031 226.539062 180.039062 226.4375 180.125 226.328125 L 180.515625 225.867188 C 180.546875 225.832031 180.546875 225.820312 180.582031 225.78125 C 180.605469 225.753906 180.625 225.742188 180.648438 225.714844 L 180.855469 225.476562 C 181.257812 225.058594 181.324219 224.742188 181.855469 224.238281 C 182.078125 224.023438 182.292969 223.789062 182.550781 223.621094 C 182.601562 223.589844 182.59375 223.597656 182.644531 223.558594 C 182.773438 223.449219 182.921875 223.359375 183.046875 223.246094 C 183.109375 223.195312 183.144531 223.179688 183.199219 223.109375 L 183.503906 222.679688 C 183.53125 222.640625 183.539062 222.644531 183.5625 222.605469 L 183.941406 222.128906 C 184.148438 221.894531 184.253906 221.730469 184.433594 221.464844 C 184.738281 221.003906 185.070312 220.578125 185.410156 220.144531 L 185.675781 219.847656 C 185.675781 219.84375 185.679688 219.839844 185.683594 219.839844 L 185.90625 219.597656 C 185.910156 219.59375 185.914062 219.589844 185.914062 219.585938 L 186.484375 218.941406 C 186.574219 218.839844 186.640625 218.722656 186.75 218.644531 C 186.867188 218.820312 186.957031 219.011719 187.03125 219.214844 C 187.058594 219.285156 187.058594 219.265625 187.089844 219.332031 C 187.125 219.410156 187.171875 219.496094 187.191406 219.558594 C 187.222656 219.65625 187.246094 219.742188 187.269531 219.832031 L 187.367188 220.0625 C 187.5 220.269531 187.78125 220.703125 187.925781 220.851562 L 188.144531 221.078125 C 188.164062 221.097656 188.164062 221.097656 188.183594 221.117188 L 189.992188 223.519531 C 190.121094 223.679688 190.425781 223.988281 190.621094 224.085938 L 191.304688 224.40625 C 191.578125 224.503906 192.160156 224.742188 192.425781 224.808594 C 192.644531 224.863281 192.835938 224.960938 193.039062 225.042969 L 193.398438 225.1875 C 193.441406 225.207031 193.472656 225.214844 193.523438 225.234375 C 193.566406 225.25 193.59375 225.269531 193.628906 225.285156 C 193.75 225.335938 193.882812 225.371094 194 225.429688 L 194.238281 225.523438 C 194.550781 225.65625 194.902344 225.769531 195.222656 225.886719 C 195.265625 225.902344 195.300781 225.925781 195.34375 225.941406 L 195.585938 226.027344 C 195.644531 226.046875 195.660156 226.050781 195.714844 226.070312 C 195.804688 226.101562 195.910156 226.105469 196.003906 226.128906 C 196.050781 226.140625 196.070312 226.152344 196.121094 226.167969 L 196.378906 226.253906 C 196.558594 226.3125 196.742188 226.292969 196.886719 226.421875 C 197.019531 226.535156 197.15625 226.609375 197.320312 226.660156 C 197.367188 226.675781 197.414062 226.675781 197.464844 226.691406 C 197.507812 226.707031 197.523438 226.71875 197.574219 226.738281 C 197.652344 226.765625 197.625 226.746094 197.6875 226.796875 C 197.863281 226.941406 198.421875 227.382812 198.425781 227.585938 C 198.425781 227.78125 198.347656 227.9375 198.472656 228.117188 C 198.546875 228.222656 198.589844 228.1875 198.558594 228.324219 C 198.421875 228.3125 198.378906 228.238281 198.289062 228.167969 C 198.285156 228.164062 198.28125 228.160156 198.277344 228.160156 C 198.273438 228.15625 198.269531 228.152344 198.265625 228.148438 C 198.234375 228.125 198.210938 228.109375 198.175781 228.085938 C 198.125 228.046875 198.042969 227.992188 197.980469 227.972656 C 197.679688 227.867188 197.824219 227.929688 197.632812 227.972656 C 197.644531 228.117188 197.871094 228.136719 198 228.183594 C 198.195312 228.253906 198.519531 228.332031 198.519531 228.59375 C 198.519531 228.777344 198.109375 229.5 198.050781 229.726562 L 197.953125 230.117188 C 197.949219 230.144531 197.9375 230.203125 197.929688 230.246094 C 197.863281 230.585938 197.867188 230.695312 198.039062 230.972656 C 198.0625 231.011719 198.085938 231.042969 198.125 231.078125 C 198.515625 231.464844 198.910156 231.34375 199.378906 231.199219 C 199.667969 231.113281 199.960938 230.867188 200.175781 230.667969 C 200.179688 230.664062 200.183594 230.660156 200.1875 230.65625 C 200.191406 230.65625 200.195312 230.648438 200.195312 230.648438 C 200.199219 230.644531 200.210938 230.632812 200.214844 230.628906 L 200.386719 230.46875 C 200.433594 230.429688 200.410156 230.449219 200.449219 230.398438 C 201.113281 229.613281 200.75 229.820312 200.949219 229.585938 C 201.195312 229.296875 201.125 228.871094 201.136719 228.4375 C 201.152344 227.964844 201.367188 227.894531 201.589844 227.617188 C 201.59375 227.609375 201.613281 227.585938 201.617188 227.582031 C 201.710938 227.457031 201.910156 227.210938 201.925781 227.082031 C 201.941406 226.976562 201.921875 226.933594 201.957031 226.839844 C 202.027344 226.644531 202.121094 226.457031 202.121094 226.214844 C 202.121094 225.632812 202.105469 225.964844 202.023438 225.632812 C 201.992188 225.515625 201.90625 225.492188 201.867188 225.402344 C 201.835938 225.332031 201.867188 225.339844 201.796875 225.277344 C 201.753906 225.238281 201.730469 225.238281 201.683594 225.203125 C 201.425781 225 201.300781 224.980469 200.984375 225.070312 C 200.921875 225.089844 200.917969 225.097656 200.859375 225.121094 C 200.71875 225.179688 200.558594 225.1875 200.414062 225.253906 C 200.335938 225.296875 200.308594 225.308594 200.214844 225.285156 C 200.140625 224.96875 200.089844 224.882812 199.902344 224.667969 C 199.871094 224.632812 199.855469 224.609375 199.824219 224.574219 C 199.722656 224.449219 199.574219 224.316406 199.449219 224.191406 C 199.449219 224.191406 199.445312 224.1875 199.441406 224.183594 L 199.210938 223.953125 C 199.207031 223.949219 199.195312 223.9375 199.191406 223.933594 L 198.910156 223.691406 C 198.644531 223.476562 198.324219 223.285156 198.019531 223.136719 C 197.996094 223.125 197.976562 223.121094 197.953125 223.105469 C 197.910156 223.085938 197.9375 223.09375 197.890625 223.074219 C 197.390625 222.84375 197 222.816406 196.675781 222.6875 L 196.296875 222.503906 C 196.15625 222.445312 195.984375 222.425781 195.832031 222.351562 C 195.800781 222.339844 195.785156 222.335938 195.761719 222.328125 L 195.394531 222.152344 C 195.335938 222.125 195.332031 222.109375 195.265625 222.089844 C 194.886719 221.960938 194.78125 221.816406 194.472656 221.628906 C 194.390625 221.578125 194.328125 221.546875 194.230469 221.503906 C 194.15625 221.46875 194.078125 221.414062 194.011719 221.375 L 193.488281 221.085938 C 193.464844 221.074219 193.464844 221.070312 193.425781 221.054688 C 193.242188 220.976562 193.175781 221.007812 192.992188 221.007812 C 192.886719 221.007812 192.882812 220.808594 192.867188 220.746094 C 192.796875 220.496094 192.441406 220.246094 192.402344 220.109375 C 192.359375 219.960938 192.445312 219.960938 192.34375 219.800781 C 192.257812 219.65625 192.285156 219.53125 192.257812 219.367188 C 192.246094 219.316406 192.238281 219.277344 192.238281 219.210938 C 192.234375 218.832031 192.199219 218.816406 192.164062 218.527344 C 192.152344 218.417969 192.148438 218.285156 192.128906 218.199219 C 192.09375 218.042969 192.085938 217.867188 192.0625 217.703125 C 192.058594 217.667969 192.039062 217.605469 192.027344 217.5625 C 192.007812 217.457031 192 217.355469 191.988281 217.238281 L 191.855469 216.636719 C 191.734375 216.164062 191.882812 216.253906 191.839844 216.109375 C 191.828125 216.070312 191.832031 216.082031 191.8125 216.054688 C 191.675781 215.84375 191.777344 215.945312 191.777344 215.722656 C 191.777344 215.644531 191.738281 215.628906 191.722656 215.566406 C 191.644531 215.15625 191.816406 215.25 191.816406 215.085938 C 191.816406 215.058594 191.757812 215.042969 191.757812 214.949219 C 191.757812 214.84375 191.945312 214.855469 191.800781 214.558594 C 191.734375 214.421875 191.800781 213.71875 191.773438 213.503906 L 191.519531 212.671875 C 191.492188 212.59375 191.480469 212.59375 191.449219 212.53125 C 191.339844 212.296875 191.210938 212.050781 191.0625 211.835938 L 190.738281 211.40625 C 190.589844 211.230469 190.40625 211.074219 190.277344 210.882812 C 190.234375 210.820312 190.207031 210.742188 190.148438 210.683594 C 190.09375 210.628906 190.035156 210.605469 189.992188 210.53125 C 189.941406 210.445312 189.949219 210.484375 189.882812 210.425781 C 189.796875 210.347656 189.8125 210.195312 189.648438 210.023438 L 189.515625 209.925781 C 189.480469 209.90625 189.472656 209.90625 189.4375 209.890625 C 189.222656 209.769531 189.015625 209.632812 188.835938 209.464844 L 188.757812 209.390625 C 188.566406 209.207031 188.242188 208.941406 188.152344 208.703125 C 188.144531 208.675781 188.140625 208.648438 188.128906 208.613281 C 188.109375 208.5625 188.109375 208.578125 188.09375 208.546875 C 188.039062 208.4375 187.929688 208.054688 187.867188 207.90625 C 187.808594 207.769531 187.714844 207.652344 187.609375 207.546875 C 187.605469 207.542969 187.601562 207.539062 187.601562 207.535156 L 187.203125 207.046875 C 186.976562 206.773438 186.761719 206.484375 186.515625 206.226562 L 185.90625 205.539062 C 185.761719 205.394531 185.644531 205.222656 185.523438 205.054688 L 184.925781 204.144531 C 184.726562 203.796875 184.640625 203.832031 184.703125 203.355469 C 184.734375 203.128906 184.710938 203.011719 184.824219 202.816406 C 184.851562 202.769531 184.863281 202.726562 184.886719 202.667969 C 184.921875 202.597656 184.921875 202.597656 184.949219 202.515625 L 185.230469 201.734375 C 185.25 201.679688 185.253906 201.617188 185.273438 201.542969 C 185.285156 201.492188 185.308594 201.429688 185.320312 201.378906 L 185.433594 200.832031 C 185.46875 200.738281 185.53125 200.648438 185.5625 200.539062 L 185.773438 199.667969 C 185.8125 199.554688 185.828125 199.4375 185.863281 199.332031 C 185.902344 199.207031 185.898438 199.085938 185.917969 198.960938 C 185.941406 198.785156 185.882812 198.632812 185.824219 198.503906 C 185.8125 198.484375 185.804688 198.460938 185.792969 198.4375 C 185.753906 198.355469 185.75 198.355469 185.761719 198.28125 L 185.8125 197.886719 C 185.839844 197.652344 185.878906 197.382812 185.945312 197.152344 L 186.027344 196.808594 C 186.070312 196.671875 186.046875 196.589844 186.125 196.480469 C 186.167969 196.417969 186.179688 196.421875 186.21875 196.359375 C 186.328125 196.167969 186.261719 196.152344 186.269531 195.964844 C 186.273438 195.835938 186.363281 195.960938 186.363281 195.519531 C 186.363281 195.355469 186.152344 195.304688 186.152344 195.210938 C 186.152344 195.136719 186.382812 194.671875 186.425781 194.59375 C 186.570312 194.34375 186.675781 194.070312 186.800781 193.8125 C 186.835938 193.738281 186.847656 193.6875 186.878906 193.617188 L 187.753906 191.339844 C 187.777344 191.289062 187.824219 191.210938 187.859375 191.15625 C 188.113281 190.769531 187.992188 190.769531 188.207031 190.636719 C 188.269531 190.601562 188.3125 190.566406 188.351562 190.511719 C 188.410156 190.429688 188.371094 190.414062 188.46875 190.339844 C 188.578125 190.253906 188.726562 190.199219 188.84375 190.136719 C 188.886719 190.117188 188.890625 190.109375 188.929688 190.082031 C 188.96875 190.054688 188.96875 190.0625 189.007812 190.027344 L 189.109375 189.953125 C 189.109375 189.953125 189.117188 189.949219 189.117188 189.945312 L 189.140625 189.929688 C 189.214844 189.867188 189.269531 189.835938 189.273438 189.714844 C 189.289062 189.339844 189.214844 189.433594 189.285156 188.972656 C 189.34375 188.585938 189.3125 188.722656 189.3125 188.378906 C 189.3125 187.882812 188.898438 187.5 188.398438 187.558594 C 188.289062 187.574219 188.140625 187.640625 188.046875 187.597656 Z M 188.050781 187.597656 " fill-opacity="1" fill-rule="evenodd"/></g><g clip-path="url(#20ed54cecb)"><path fill="#92d674" d="M 224.628906 134.238281 C 224.628906 134.238281 249.429688 123.621094 251.949219 120.480469 C 251.949219 120.480469 242.675781 132.726562 237.714844 136.1875 C 234.347656 138.570312 226.703125 143.097656 226.703125 143.097656 Z M 86.007812 339.070312 C 89.261719 347.894531 89.644531 346 93.136719 349.167969 C 97.28125 352.910156 92.214844 354.546875 99.1875 366.4375 C 101.757812 370.820312 108.933594 375.058594 114.25 374.996094 C 121.160156 374.921875 119.191406 366.210938 118.558594 361.847656 C 117.523438 354.566406 122.640625 353.1875 123.707031 347.574219 C 124.828125 341.8125 144.53125 333.859375 149.460938 330.65625 C 152.632812 328.59375 156.609375 324.441406 160.171875 323.230469 C 161.988281 322.617188 164.109375 323 165.996094 322.492188 C 168.625 321.820312 181.058594 312.664062 181.339844 311.71875 C 182.644531 307.441406 189.5625 302.832031 192.195312 298.582031 C 195.417969 293.371094 193.449219 293.25 191.730469 292.121094 C 190.808594 291.539062 186.714844 289.167969 186.714844 289.167969 C 186.714844 289.167969 201.550781 269.761719 206.066406 261.589844 C 210.582031 267.265625 215.484375 270.355469 220.890625 275.203125 C 227.035156 280.722656 240.078125 290.617188 240.078125 290.617188 C 240.078125 290.617188 238.617188 306.351562 238.554688 312.464844 C 238.449219 322.078125 242.882812 330.832031 235.621094 338.839844 C 235.320312 347.863281 226.515625 357.601562 239.289062 360.78125 C 244.230469 362.015625 252.851562 359.765625 256.238281 364.210938 C 260.089844 369.257812 263.363281 371.816406 270.875 372.125 C 288.796875 372.871094 295.851562 361.257812 281.433594 354.792969 C 276.644531 351.726562 271.226562 347.429688 268.742188 345.304688 C 268.742188 345.304688 269.320312 342.464844 267.550781 337.484375 C 266.554688 334.695312 269.796875 330.90625 270.957031 328.730469 C 274.410156 322.214844 276.761719 315.355469 279.019531 308.382812 C 281.007812 302.148438 280.605469 304.539062 284.332031 299.265625 C 285.222656 298.003906 288.539062 284.277344 287.957031 282.742188 C 287.214844 280.859375 286.042969 278.339844 285.84375 276.238281 C 284.996094 270.664062 285.585938 266.179688 284.675781 260.242188 C 282.53125 246.089844 270.554688 263.132812 268.039062 267.734375 C 263.8125 253.570312 256.175781 244.269531 247.742188 232.613281 C 244.84375 228.585938 237.695312 222.234375 236.761719 217.25 C 236.089844 213.605469 234.007812 210.195312 230.910156 208.050781 C 228.390625 206.320312 224.183594 207.65625 222.226562 206.03125 C 222.984375 206.558594 226.703125 198.210938 226.535156 196.964844 C 225.894531 192.65625 222.457031 189.402344 221.90625 184.878906 C 221.003906 177.242188 220.28125 161.527344 220.28125 161.527344 C 220.28125 161.527344 226.269531 165.835938 229.863281 164.894531 C 227.976562 168.011719 228.421875 168.890625 230.070312 168.40625 C 232.816406 167.597656 238.917969 162.988281 243.339844 158.574219 C 247.203125 154.742188 254.671875 147.726562 258.859375 141.492188 C 261.128906 138.132812 258.0625 138.011719 262.515625 134.808594 C 264.804688 133.171875 268.773438 133.390625 271.457031 132.789062 C 283.640625 130.042969 276.429688 118.183594 277.113281 111.136719 C 277.359375 108.753906 274.976562 106.433594 275.507812 104.601562 C 276.273438 102.3125 271.082031 95.164062 269.914062 93.195312 C 266.949219 88.023438 268.679688 88.574219 263.851562 86.234375 C 261.636719 85.03125 253.328125 85.34375 252.621094 83.851562 C 242.820312 62.914062 232.898438 40.960938 225.6875 18.96875 C 224.652344 15.796875 222.507812 9.4375 220.601562 2.070312 C 220.289062 0.808594 219.046875 0.289062 218.074219 0.207031 C 215.566406 -0.03125 213.441406 -0.609375 213.007812 2.570312 C 212.21875 8.558594 213.671875 15.320312 215.316406 23.558594 C 220.269531 48.296875 245.980469 86.027344 245.980469 86.027344 C 245.980469 86.027344 245.113281 87.457031 245.597656 90.78125 C 246.179688 94.644531 248.0625 100.664062 247.070312 103.988281 C 246.8125 105.617188 244.324219 105.585938 241.507812 106.777344 C 236.285156 109.023438 229.066406 112.019531 226.953125 112.980469 C 222.960938 114.804688 216.714844 116.992188 216.714844 116.992188 C 216.714844 116.992188 212.550781 113.59375 209.921875 109.492188 C 207.734375 106.144531 206.675781 106.878906 207.621094 104.300781 C 208.4375 104.433594 209.113281 104.519531 209.640625 104.558594 C 210.957031 104.609375 211.421875 104.339844 211.621094 103.988281 C 211.972656 103.285156 211.195312 102.300781 209.144531 100.765625 C 209.496094 99.9375 209.804688 99.128906 210.097656 98.3125 C 211.742188 98.738281 212.65625 98.902344 213.140625 98.921875 C 213.691406 98.933594 213.761719 98.808594 213.804688 98.644531 C 213.972656 98.25 213.910156 97.96875 210.636719 96.4375 C 211.265625 94.054688 211.589844 91.597656 211.496094 89.050781 C 214.449219 89.113281 219.046875 90.851562 217.84375 88.292969 C 217.410156 87.382812 213.285156 84.128906 213.285156 84.128906 C 213.285156 84.128906 213.402344 78.484375 213.277344 77.449219 C 211.546875 64.144531 197.332031 58.230469 185.429688 60.707031 C 173.992188 63.070312 172.53125 73.097656 171.796875 80.929688 C 170.585938 94.054688 175.246094 95.835938 172.976562 99.246094 C 169.746094 102.859375 161.46875 95.648438 163.921875 104.785156 C 165.445312 110.414062 164.398438 111.097656 161.449219 116.554688 C 153.832031 130.28125 153.53125 138.847656 158.359375 153.890625 C 161.882812 164.933594 157.820312 176.941406 161.179688 187.683594 C 162.949219 193.050781 160.058594 198.5 159.757812 203.917969 C 159.449219 209.71875 166.140625 206.683594 163.179688 212.121094 C 158.742188 220.285156 159.605469 235.648438 159.625 245.023438 C 159.664062 251.023438 157.78125 246.847656 157.386719 252.792969 C 157.136719 256.296875 157.375 277.90625 154.785156 280.464844 C 153.730469 281.40625 149.9375 285.53125 149.875 286.878906 C 149.078125 293.859375 145.378906 291.851562 139.785156 294.179688 C 131.175781 297.753906 124.453125 304.445312 117.066406 314.652344 C 113.046875 320.183594 106.28125 326.472656 99.714844 330.667969 C 98.347656 331.539062 94.253906 332.605469 93.0625 333.359375 C 91.988281 334.042969 85.128906 336.625 86.007812 339.070312 " fill-opacity="1" fill-rule="nonzero"/></g></svg>