<svg xmlns="http://www.w3.org/2000/svg" xmlns:xlink="http://www.w3.org/1999/xlink" width="500" zoomAndPan="magnify" viewBox="0 0 375 374.999991" height="500" preserveAspectRatio="xMidYMid meet" version="1.0"><defs><clipPath id="344d2987f2"><path d="M 150.035156 162.152344 L 187.246094 162.152344 L 187.246094 231.152344 L 150.035156 231.152344 Z M 150.035156 162.152344 " clip-rule="nonzero"/></clipPath><clipPath id="f2dcb2979a"><path d="M 58 0 L 317.933594 0 L 317.933594 375 L 58 375 Z M 58 0 " clip-rule="nonzero"/></clipPath></defs><g clip-path="url(#344d2987f2)"><path fill="#100f0d" d="M 175.433594 186.851562 C 175.433594 186.851562 179.976562 184.898438 180.4375 184.320312 C 180.4375 184.320312 178.738281 186.574219 177.828125 187.210938 C 177.210938 187.648438 175.8125 188.484375 175.8125 188.484375 Z M 150.050781 224.542969 C 150.644531 226.164062 150.714844 225.816406 151.355469 226.398438 C 152.113281 227.089844 151.1875 227.390625 152.464844 229.578125 C 152.933594 230.382812 154.25 231.164062 155.222656 231.152344 C 156.488281 231.140625 156.125 229.535156 156.011719 228.734375 C 155.820312 227.394531 156.757812 227.140625 156.953125 226.105469 C 157.160156 225.046875 160.765625 223.582031 161.667969 222.992188 C 162.25 222.613281 162.976562 221.851562 163.628906 221.628906 C 163.960938 221.515625 164.351562 221.585938 164.695312 221.492188 C 165.179688 221.367188 167.453125 219.683594 167.507812 219.507812 C 167.746094 218.722656 169.011719 217.875 169.492188 217.09375 C 170.082031 216.132812 169.722656 216.109375 169.410156 215.902344 C 169.238281 215.796875 168.492188 215.359375 168.492188 215.359375 C 168.492188 215.359375 171.207031 211.789062 172.035156 210.285156 C 172.859375 211.328125 173.757812 211.898438 174.75 212.789062 C 175.875 213.804688 178.261719 215.625 178.261719 215.625 C 178.261719 215.625 177.996094 218.523438 177.984375 219.648438 C 177.964844 221.414062 178.777344 223.027344 177.445312 224.5 C 177.390625 226.160156 175.777344 227.953125 178.117188 228.535156 C 179.023438 228.765625 180.601562 228.351562 181.222656 229.167969 C 181.925781 230.097656 182.527344 230.566406 183.902344 230.625 C 187.183594 230.761719 188.476562 228.625 185.835938 227.433594 C 184.957031 226.871094 183.964844 226.078125 183.511719 225.6875 C 183.511719 225.6875 183.617188 225.167969 183.292969 224.25 C 183.109375 223.738281 183.703125 223.039062 183.917969 222.640625 C 184.546875 221.441406 184.980469 220.179688 185.390625 218.894531 C 185.757812 217.746094 185.683594 218.1875 186.367188 217.21875 C 186.527344 216.984375 187.136719 214.460938 187.03125 214.179688 C 186.894531 213.832031 186.679688 213.367188 186.640625 212.980469 C 186.488281 211.957031 186.59375 211.128906 186.429688 210.039062 C 186.035156 207.433594 183.84375 210.570312 183.382812 211.414062 C 182.609375 208.808594 181.210938 207.097656 179.664062 204.953125 C 179.132812 204.210938 177.824219 203.042969 177.65625 202.128906 C 177.53125 201.457031 177.148438 200.828125 176.582031 200.433594 C 176.121094 200.117188 175.351562 200.363281 174.992188 200.0625 C 175.132812 200.160156 175.8125 198.625 175.78125 198.394531 C 175.664062 197.601562 175.035156 197.003906 174.933594 196.171875 C 174.769531 194.765625 174.636719 191.875 174.636719 191.875 C 174.636719 191.875 175.734375 192.667969 176.390625 192.492188 C 176.046875 193.066406 176.128906 193.230469 176.429688 193.140625 C 176.933594 192.992188 178.050781 192.140625 178.859375 191.332031 C 179.566406 190.625 180.933594 189.335938 181.699219 188.1875 C 182.117188 187.570312 181.554688 187.546875 182.371094 186.957031 C 182.789062 186.65625 183.515625 186.695312 184.007812 186.585938 C 186.238281 186.082031 184.917969 183.898438 185.042969 182.601562 C 185.089844 182.164062 184.652344 181.738281 184.75 181.398438 C 184.890625 180.976562 183.9375 179.664062 183.726562 179.300781 C 183.183594 178.347656 183.5 178.449219 182.613281 178.019531 C 182.210938 177.796875 180.6875 177.855469 180.558594 177.582031 C 178.765625 173.730469 176.945312 169.691406 175.625 165.644531 C 175.4375 165.058594 175.042969 163.890625 174.695312 162.535156 C 174.636719 162.300781 174.410156 162.207031 174.234375 162.191406 C 173.773438 162.148438 173.382812 162.039062 173.304688 162.625 C 173.160156 163.726562 173.425781 164.972656 173.726562 166.488281 C 174.632812 171.039062 179.34375 177.980469 179.34375 177.980469 C 179.34375 177.980469 179.183594 178.246094 179.273438 178.855469 C 179.378906 179.566406 179.722656 180.675781 179.542969 181.285156 C 179.496094 181.585938 179.039062 181.582031 178.523438 181.800781 C 177.566406 182.214844 176.246094 182.765625 175.859375 182.941406 C 175.128906 183.277344 173.984375 183.679688 173.984375 183.679688 C 173.984375 183.679688 173.222656 183.054688 172.738281 182.300781 C 172.339844 181.683594 172.144531 181.820312 172.320312 181.34375 C 172.46875 181.367188 172.589844 181.382812 172.6875 181.390625 C 172.929688 181.402344 173.015625 181.351562 173.050781 181.285156 C 173.117188 181.15625 172.972656 180.976562 172.597656 180.695312 C 172.660156 180.542969 172.71875 180.394531 172.773438 180.242188 C 173.074219 180.320312 173.242188 180.351562 173.328125 180.355469 C 173.429688 180.355469 173.445312 180.332031 173.449219 180.304688 C 173.480469 180.230469 173.46875 180.179688 172.871094 179.898438 C 172.984375 179.457031 173.046875 179.007812 173.027344 178.539062 C 173.570312 178.550781 174.410156 178.871094 174.191406 178.398438 C 174.109375 178.230469 173.355469 177.632812 173.355469 177.632812 C 173.355469 177.632812 173.378906 176.59375 173.355469 176.402344 C 173.039062 173.957031 170.433594 172.867188 168.253906 173.324219 C 166.160156 173.757812 165.894531 175.601562 165.757812 177.042969 C 165.535156 179.457031 166.390625 179.785156 165.976562 180.414062 C 165.382812 181.078125 163.867188 179.753906 164.316406 181.433594 C 164.597656 182.46875 164.40625 182.59375 163.863281 183.597656 C 162.46875 186.125 162.414062 187.699219 163.296875 190.46875 C 163.945312 192.5 163.199219 194.710938 163.816406 196.6875 C 164.140625 197.675781 163.609375 198.675781 163.554688 199.671875 C 163.496094 200.742188 164.722656 200.183594 164.179688 201.183594 C 163.367188 202.683594 163.527344 205.511719 163.53125 207.238281 C 163.539062 208.339844 163.191406 207.574219 163.121094 208.667969 C 163.074219 209.3125 163.117188 213.289062 162.644531 213.757812 C 162.449219 213.933594 161.757812 214.691406 161.746094 214.9375 C 161.597656 216.222656 160.921875 215.851562 159.898438 216.28125 C 158.320312 216.941406 157.089844 218.171875 155.738281 220.046875 C 155 221.066406 153.761719 222.222656 152.558594 222.996094 C 152.308594 223.15625 151.558594 223.351562 151.34375 223.492188 C 151.144531 223.617188 149.890625 224.089844 150.050781 224.542969 " fill-opacity="1" fill-rule="nonzero"/></g><g clip-path="url(#f2dcb2979a)"><path fill="#ffffff" d="M 317.289062 248.085938 L 311.628906 304.808594 C 310.539062 315.914062 304.785156 325.949219 295.855469 332.316406 L 281.753906 342.332031 C 279.175781 360.777344 263.753906 374.996094 245.171875 374.996094 L 135.96875 374.996094 C 116.511719 374.996094 100.539062 359.320312 99.296875 339.574219 L 85.277344 322.609375 C 77.433594 313.121094 72.679688 300.984375 71.878906 288.398438 L 66.332031 237.910156 L 58.945312 201.140625 C 56.992188 191.511719 59.023438 181.332031 64.523438 173.234375 C 69.917969 165.269531 78.042969 159.945312 87.390625 158.25 L 106.367188 154.820312 C 106.460938 154.804688 106.554688 154.789062 106.648438 154.773438 C 112.257812 147.394531 120.28125 142.5625 129.375 141.117188 L 146.144531 138.441406 C 147.140625 136.449219 148.3125 134.546875 149.636719 132.773438 C 155.601562 124.785156 164.265625 119.675781 174.023438 118.382812 L 185.882812 116.820312 L 189.039062 40.640625 C 189.96875 17.855469 208.390625 0 230.976562 0 L 242.980469 0 C 264.722656 0 282.683594 16.484375 284.757812 38.339844 C 286.699219 58.910156 288.9375 99.203125 290.734375 131.574219 L 290.832031 133.3125 C 291.664062 148.382812 292.59375 165.167969 293.230469 174.691406 C 295.304688 177.554688 296.960938 180.703125 298.183594 184.097656 L 315.128906 230.777344 C 317.128906 236.261719 317.875 242.253906 317.289062 248.085938 Z M 317.289062 248.085938 " fill-opacity="1" fill-rule="nonzero"/></g><path fill="#ff4f63" d="M 303.996094 246.746094 L 298.339844 303.480469 C 297.621094 310.761719 293.898438 317.300781 288.105469 321.433594 L 269.816406 334.417969 C 269.5625 334.601562 269.3125 334.910156 269.144531 335.246094 C 268.90625 335.730469 268.777344 336.304688 268.777344 336.863281 C 268.777344 350.519531 258.1875 361.628906 245.175781 361.628906 L 135.96875 361.628906 C 123.070312 361.628906 112.578125 350.621094 112.578125 337.09375 L 112.578125 334.667969 L 95.570312 314.089844 C 89.441406 306.675781 85.761719 297.160156 85.191406 287.261719 L 79.546875 235.855469 L 72.039062 198.503906 C 70.792969 192.359375 72.082031 185.882812 75.570312 180.742188 C 78.941406 175.765625 83.984375 172.449219 89.769531 171.398438 L 108.742188 167.972656 C 110.191406 167.710938 111.667969 167.578125 113.128906 167.578125 C 113.578125 167.578125 114.027344 167.589844 114.472656 167.617188 C 115.101562 166.199219 115.867188 164.839844 116.765625 163.5625 C 120.308594 158.542969 125.53125 155.257812 131.472656 154.3125 L 151.335938 151.144531 C 152.660156 150.933594 154.007812 150.824219 155.34375 150.824219 C 155.535156 150.824219 155.726562 150.824219 155.914062 150.828125 C 156.617188 147.199219 158.117188 143.742188 160.335938 140.773438 C 164.132812 135.691406 169.613281 132.445312 175.777344 131.628906 L 197.023438 128.824219 C 197.597656 128.75 198.179688 128.691406 198.761719 128.652344 L 202.382812 41.1875 C 203.023438 25.589844 215.582031 13.363281 230.976562 13.363281 L 242.980469 13.363281 C 257.796875 13.363281 270.039062 24.640625 271.460938 39.601562 C 273.375 59.910156 275.605469 100.058594 277.398438 132.320312 L 277.476562 133.746094 C 278.472656 151.730469 279.578125 171.75 280.214844 179.898438 C 282.589844 182.367188 284.429688 185.332031 285.621094 188.632812 L 302.574219 235.339844 C 303.890625 238.957031 304.382812 242.90625 303.996094 246.746094 Z M 303.996094 246.746094 " fill-opacity="1" fill-rule="nonzero"/><path fill="#ffffff" d="M 294.25 238.375 L 277.292969 191.65625 C 276.171875 188.554688 274.191406 185.996094 271.722656 184.222656 C 271.15625 179.890625 269.925781 157.671875 268.632812 134.234375 C 266.8125 101.546875 264.566406 60.867188 262.640625 40.433594 C 261.652344 30.050781 253.203125 22.226562 242.980469 22.226562 L 230.972656 22.226562 C 220.339844 22.226562 211.679688 30.714844 211.238281 41.554688 L 207.207031 138.855469 C 204.371094 137.648438 201.269531 137.207031 198.191406 137.613281 L 176.9375 140.417969 C 173.171875 140.917969 169.792969 142.921875 167.433594 146.082031 C 164.910156 149.460938 163.847656 153.839844 164.511719 158.082031 L 165.308594 163.070312 C 161.742188 160.386719 157.277344 159.167969 152.746094 159.898438 L 132.867188 163.070312 C 129.3125 163.632812 126.15625 165.628906 124.007812 168.675781 C 121.957031 171.578125 121.027344 175.191406 121.347656 178.769531 C 118.070312 176.765625 114.191406 176 110.304688 176.699219 L 91.34375 180.121094 C 87.921875 180.742188 84.933594 182.726562 82.90625 185.71875 C 80.746094 188.898438 79.949219 192.921875 80.722656 196.742188 L 88.308594 234.496094 L 94.027344 286.535156 C 94.445312 294.632812 97.414062 302.414062 102.398438 308.441406 L 121.4375 331.476562 L 121.4375 337.097656 C 121.4375 345.738281 127.960938 352.765625 135.96875 352.765625 L 245.175781 352.765625 C 253.304688 352.765625 259.914062 345.628906 259.914062 336.863281 C 259.914062 334.945312 260.359375 333.027344 261.199219 331.320312 C 262.03125 329.648438 263.238281 328.21875 264.691406 327.1875 L 282.976562 314.203125 C 286.675781 311.566406 289.054688 307.34375 289.519531 302.613281 L 295.179688 245.863281 C 295.433594 243.339844 295.113281 240.746094 294.25 238.375 Z M 215.667969 41.730469 C 216.011719 33.277344 222.734375 26.660156 230.972656 26.660156 L 242.980469 26.660156 C 250.898438 26.660156 257.457031 32.765625 258.230469 40.855469 C 260.148438 61.199219 262.394531 101.824219 264.199219 134.480469 C 265.804688 163.3125 266.515625 176.15625 267.082031 182.039062 C 265.875 181.71875 264.609375 181.539062 263.316406 181.5625 L 222.214844 182.328125 L 218.570312 154.246094 C 217.914062 149.152344 215.355469 144.574219 211.535156 141.472656 Z M 170.980469 148.730469 C 172.617188 146.546875 174.941406 145.152344 177.511719 144.808594 L 198.765625 142.003906 C 202 141.582031 205.28125 142.402344 208.003906 144.320312 C 211.371094 146.691406 213.621094 150.515625 214.183594 154.824219 L 217.761719 182.417969 L 207.382812 182.605469 C 201.457031 182.714844 196.640625 187.976562 196.640625 194.351562 C 196.640625 201.265625 198.890625 207.992188 202.964844 213.277344 C 207.074219 218.617188 212.820312 222.230469 219.15625 223.414062 L 223.167969 224.179688 L 223.597656 227.40625 C 224.949219 237.796875 218.515625 247.316406 208.945312 249.066406 L 201.667969 250.410156 C 193.449219 251.925781 185.242188 246.972656 182.128906 238.628906 C 182.121094 238.574219 182.097656 238.519531 182.074219 238.464844 C 181.621094 237.253906 181.300781 236.015625 181.089844 234.652344 L 170.964844 170.503906 C 170.957031 170.46875 170.957031 170.4375 170.957031 170.414062 L 168.894531 157.394531 C 168.410156 154.316406 169.171875 151.167969 170.980469 148.730469 Z M 227.984375 226.828125 L 227.753906 225.046875 L 230.042969 225.488281 C 232.734375 225.996094 235.09375 227.636719 236.6875 230.109375 C 238.507812 232.921875 239.082031 236.445312 238.273438 239.769531 L 237.832031 241.566406 C 233.820312 242.742188 228.273438 244.449219 221.90625 246.617188 C 226.523438 241.566406 228.96875 234.386719 227.984375 226.828125 Z M 127.617188 171.234375 C 129.082031 169.175781 131.195312 167.824219 133.566406 167.445312 L 153.445312 164.277344 C 158.796875 163.414062 164.058594 166.292969 166.625 171.445312 L 176.707031 235.339844 C 176.960938 236.914062 177.335938 238.375 177.859375 239.804688 L 178.421875 243.550781 C 179.90625 253.179688 174.125 262.199219 165.253906 264.082031 L 158.476562 265.523438 C 151.320312 267.0625 143.957031 263.230469 140.589844 256.203125 C 139.867188 254.742188 139.335938 253.113281 139.027344 251.394531 L 125.890625 179.300781 C 125.371094 176.464844 126 173.53125 127.617188 171.234375 Z M 85.066406 195.867188 C 84.523438 193.199219 85.074219 190.40625 86.570312 188.199219 C 87.921875 186.21875 89.894531 184.886719 92.132812 184.488281 L 111.09375 181.066406 C 115.445312 180.277344 119.785156 182.082031 122.566406 185.773438 L 134.660156 252.195312 C 135.027344 254.167969 135.625 256.027344 136.410156 257.734375 C 137.242188 266.390625 131.980469 274.257812 124.074219 276.117188 L 117.605469 277.625 C 113.707031 278.542969 109.664062 277.835938 106.230469 275.628906 C 102.476562 273.214844 99.796875 269.191406 98.875 264.582031 Z M 290.773438 245.421875 L 285.113281 302.179688 C 284.78125 305.636719 283.0625 308.695312 280.40625 310.589844 L 262.121094 323.578125 C 260.070312 325.039062 258.386719 327.035156 257.234375 329.351562 C 256.082031 331.667969 255.484375 334.261719 255.484375 336.863281 C 255.484375 343.191406 250.855469 348.332031 245.175781 348.332031 L 135.96875 348.332031 C 130.398438 348.332031 125.867188 343.292969 125.867188 337.097656 L 125.867188 330.683594 C 125.867188 330.164062 125.691406 329.664062 125.359375 329.273438 L 105.808594 305.628906 C 101.425781 300.296875 98.796875 293.417969 98.445312 286.246094 C 98.433594 286.203125 98.433594 286.160156 98.433594 286.113281 L 96.859375 271.808594 C 98.542969 274.878906 100.925781 277.492188 103.828125 279.355469 C 107.007812 281.40625 110.59375 282.457031 114.238281 282.457031 C 115.699219 282.457031 117.160156 282.289062 118.613281 281.949219 L 125.082031 280.441406 C 133.089844 278.558594 138.957031 271.910156 140.507812 263.808594 C 144.417969 267.917969 149.746094 270.300781 155.304688 270.300781 C 156.65625 270.300781 158.03125 270.15625 159.390625 269.871094 L 166.179688 268.429688 C 175.652344 266.414062 182.320312 258.023438 183.003906 248.230469 C 187.136719 252.570312 192.761719 255.121094 198.6875 255.121094 C 198.996094 255.121094 199.296875 255.089844 199.605469 255.078125 C 184.589844 261.449219 169.402344 269.503906 160.464844 278.667969 C 159.613281 279.542969 159.625 280.949219 160.5 281.804688 C 160.929688 282.226562 161.496094 282.4375 162.050781 282.4375 C 162.625 282.4375 163.203125 282.214844 163.632812 281.769531 C 185.140625 259.730469 244.796875 244.171875 245.359375 244.0625 C 246.554688 243.832031 247.332031 242.65625 247.097656 241.457031 C 246.855469 240.261719 245.691406 239.476562 244.484375 239.71875 C 244.429688 239.730469 243.800781 239.894531 242.691406 240.195312 C 243.566406 235.875 242.769531 231.351562 240.410156 227.707031 C 238.160156 224.207031 234.761719 221.867188 230.863281 221.125 L 219.976562 219.0625 C 214.714844 218.078125 209.917969 215.0625 206.472656 210.574219 C 202.984375 206.054688 201.070312 200.292969 201.070312 194.351562 C 201.070312 190.386719 203.9375 187.105469 207.472656 187.039062 L 263.402344 185.996094 C 267.601562 185.898438 271.542969 188.800781 273.128906 193.167969 L 290.085938 239.886719 C 290.726562 241.632812 290.960938 243.550781 290.773438 245.421875 Z M 195.03125 302.960938 L 187.851562 302.960938 L 186.414062 309.605469 L 178.964844 309.605469 L 180.402344 302.960938 L 173.222656 302.960938 L 171.785156 309.605469 L 163.84375 309.605469 L 163.84375 316.519531 L 170.351562 316.519531 L 169.09375 322.402344 L 160.972656 322.402344 L 160.972656 329.316406 L 167.613281 329.316406 L 166.132812 336.183594 L 173.3125 336.183594 L 174.792969 329.316406 L 182.242188 329.316406 L 180.757812 336.183594 L 187.9375 336.183594 L 189.421875 329.316406 L 196.285156 329.316406 L 196.285156 322.402344 L 190.898438 322.402344 L 192.15625 316.519531 L 199.15625 316.519531 L 199.15625 309.605469 L 193.589844 309.605469 Z M 183.722656 322.402344 L 176.273438 322.402344 L 177.53125 316.519531 L 184.976562 316.519531 Z M 200.644531 275.1875 L 223.777344 275.1875 L 223.777344 336.183594 L 208.910156 336.183594 L 208.910156 288.472656 L 200.640625 288.472656 L 200.640625 275.1875 Z M 200.644531 275.1875 " fill-opacity="1" fill-rule="nonzero"/></svg>