<svg xmlns="http://www.w3.org/2000/svg" xmlns:xlink="http://www.w3.org/1999/xlink" width="500" zoomAndPan="magnify" viewBox="0 0 375 374.999991" height="500" preserveAspectRatio="xMidYMid meet" version="1.0"><defs><filter x="0%" y="0%" width="100%" height="100%" id="f789db260e"><feColorMatrix values="0 0 0 0 1 0 0 0 0 1 0 0 0 0 1 0 0 0 1 0" color-interpolation-filters="sRGB"/></filter><clipPath id="e899ef8aa6"><path d="M 24.765625 2.488281 L 350.265625 2.488281 L 350.265625 375 L 24.765625 375 Z M 24.765625 2.488281 " clip-rule="nonzero"/></clipPath><clipPath id="512262159f"><path d="M 49 2.488281 L 350.265625 2.488281 L 350.265625 354 L 49 354 Z M 49 2.488281 " clip-rule="nonzero"/></clipPath><clipPath id="ac55e5fda1"><path d="M 73 2.488281 L 350.265625 2.488281 L 350.265625 330 L 73 330 Z M 73 2.488281 " clip-rule="nonzero"/></clipPath><clipPath id="b346f8d9f7"><path d="M 97 2.488281 L 350.265625 2.488281 L 350.265625 305 L 97 305 Z M 97 2.488281 " clip-rule="nonzero"/></clipPath><clipPath id="b7dc54d81c"><path d="M 121 2.488281 L 350.265625 2.488281 L 350.265625 281 L 121 281 Z M 121 2.488281 " clip-rule="nonzero"/></clipPath><clipPath id="5c438a9668"><path d="M 145 2.488281 L 350.265625 2.488281 L 350.265625 257 L 145 257 Z M 145 2.488281 " clip-rule="nonzero"/></clipPath><clipPath id="30972a5bd4"><path d="M 170 2.488281 L 350.265625 2.488281 L 350.265625 233 L 170 233 Z M 170 2.488281 " clip-rule="nonzero"/></clipPath><clipPath id="6a0224b3d1"><path d="M 194 2.488281 L 350.265625 2.488281 L 350.265625 208 L 194 208 Z M 194 2.488281 " clip-rule="nonzero"/></clipPath><clipPath id="2e667dc182"><path d="M 218 2.488281 L 350.265625 2.488281 L 350.265625 184 L 218 184 Z M 218 2.488281 " clip-rule="nonzero"/></clipPath><clipPath id="ae0058cd70"><path d="M 24.765625 2.488281 L 350.265625 2.488281 L 350.265625 375 L 24.765625 375 Z M 24.765625 2.488281 " clip-rule="nonzero"/></clipPath><mask id="7803825f36"><g filter="url(#f789db260e)"><rect x="-37.5" width="450" fill="#000000" y="-37.499999" height="449.999989" fill-opacity="0.96"/></g></mask><clipPath id="e02d49aec2"><path d="M 0.375 0.382812 L 192.742188 0.382812 L 192.742188 8.359375 L 0.375 8.359375 Z M 0.375 0.382812 " clip-rule="nonzero"/></clipPath><linearGradient x1="0.00000546787" gradientTransform="matrix(0, -0.0311639, 0.0311639, 0, 0.375168, 8.360124)" y1="3086.3689" x2="256" gradientUnits="userSpaceOnUse" y2="3086.3689" id="bcbfae18e2"><stop stop-opacity="1" stop-color="rgb(92.199707%, 45.098877%, 1.998901%)" offset="0"/><stop stop-opacity="1" stop-color="rgb(92.230225%, 45.3125%, 2.381897%)" offset="0.00390625"/><stop stop-opacity="1" stop-color="rgb(92.260742%, 45.527649%, 2.764893%)" offset="0.0078125"/><stop stop-opacity="1" stop-color="rgb(92.29126%, 45.741272%, 3.147888%)" offset="0.0117188"/><stop stop-opacity="1" stop-color="rgb(92.321777%, 45.956421%, 3.530884%)" offset="0.015625"/><stop stop-opacity="1" stop-color="rgb(92.352295%, 46.17157%, 3.913879%)" offset="0.0195312"/><stop stop-opacity="1" stop-color="rgb(92.382812%, 46.386719%, 4.296875%)" offset="0.0234375"/><stop stop-opacity="1" stop-color="rgb(92.411804%, 46.600342%, 4.678345%)" offset="0.0273438"/><stop stop-opacity="1" stop-color="rgb(92.442322%, 46.815491%, 5.06134%)" offset="0.03125"/><stop stop-opacity="1" stop-color="rgb(92.472839%, 47.029114%, 5.444336%)" offset="0.0351562"/><stop stop-opacity="1" stop-color="rgb(92.503357%, 47.244263%, 5.827332%)" offset="0.0390625"/><stop stop-opacity="1" stop-color="rgb(92.533875%, 47.457886%, 6.210327%)" offset="0.0429688"/><stop stop-opacity="1" stop-color="rgb(92.564392%, 47.673035%, 6.593323%)" offset="0.046875"/><stop stop-opacity="1" stop-color="rgb(92.59491%, 47.886658%, 6.976318%)" offset="0.0507812"/><stop stop-opacity="1" stop-color="rgb(92.625427%, 48.101807%, 7.359314%)" offset="0.0546875"/><stop stop-opacity="1" stop-color="rgb(92.655945%, 48.31543%, 7.740784%)" offset="0.0585938"/><stop stop-opacity="1" stop-color="rgb(92.686462%, 48.530579%, 8.123779%)" offset="0.0625"/><stop stop-opacity="1" stop-color="rgb(92.71698%, 48.744202%, 8.506775%)" offset="0.0664062"/><stop stop-opacity="1" stop-color="rgb(92.747498%, 48.959351%, 8.889771%)" offset="0.0703125"/><stop stop-opacity="1" stop-color="rgb(92.778015%, 49.172974%, 9.272766%)" offset="0.0742188"/><stop stop-opacity="1" stop-color="rgb(92.808533%, 49.388123%, 9.655762%)" offset="0.078125"/><stop stop-opacity="1" stop-color="rgb(92.83905%, 49.601746%, 10.038757%)" offset="0.0820312"/><stop stop-opacity="1" stop-color="rgb(92.869568%, 49.816895%, 10.421753%)" offset="0.0859375"/><stop stop-opacity="1" stop-color="rgb(92.900085%, 50.030518%, 10.803223%)" offset="0.0898438"/><stop stop-opacity="1" stop-color="rgb(92.930603%, 50.245667%, 11.186218%)" offset="0.09375"/><stop stop-opacity="1" stop-color="rgb(92.961121%, 50.45929%, 11.569214%)" offset="0.0976562"/><stop stop-opacity="1" stop-color="rgb(92.991638%, 50.674438%, 11.952209%)" offset="0.101562"/><stop stop-opacity="1" stop-color="rgb(93.022156%, 50.888062%, 12.335205%)" offset="0.105469"/><stop stop-opacity="1" stop-color="rgb(93.052673%, 51.10321%, 12.718201%)" offset="0.109375"/><stop stop-opacity="1" stop-color="rgb(93.083191%, 51.318359%, 13.101196%)" offset="0.113281"/><stop stop-opacity="1" stop-color="rgb(93.113708%, 51.533508%, 13.484192%)" offset="0.117188"/><stop stop-opacity="1" stop-color="rgb(93.144226%, 51.747131%, 13.865662%)" offset="0.121094"/><stop stop-opacity="1" stop-color="rgb(93.174744%, 51.96228%, 14.248657%)" offset="0.125"/><stop stop-opacity="1" stop-color="rgb(93.205261%, 52.175903%, 14.631653%)" offset="0.128906"/><stop stop-opacity="1" stop-color="rgb(93.235779%, 52.391052%, 15.014648%)" offset="0.132812"/><stop stop-opacity="1" stop-color="rgb(93.266296%, 52.604675%, 15.397644%)" offset="0.136719"/><stop stop-opacity="1" stop-color="rgb(93.296814%, 52.819824%, 15.78064%)" offset="0.140625"/><stop stop-opacity="1" stop-color="rgb(93.325806%, 53.033447%, 16.163635%)" offset="0.144531"/><stop stop-opacity="1" stop-color="rgb(93.356323%, 53.248596%, 16.546631%)" offset="0.148438"/><stop stop-opacity="1" stop-color="rgb(93.386841%, 53.462219%, 16.928101%)" offset="0.152344"/><stop stop-opacity="1" stop-color="rgb(93.417358%, 53.677368%, 17.311096%)" offset="0.15625"/><stop stop-opacity="1" stop-color="rgb(93.447876%, 53.890991%, 17.694092%)" offset="0.160156"/><stop stop-opacity="1" stop-color="rgb(93.478394%, 54.10614%, 18.077087%)" offset="0.164062"/><stop stop-opacity="1" stop-color="rgb(93.508911%, 54.319763%, 18.460083%)" offset="0.167969"/><stop stop-opacity="1" stop-color="rgb(93.539429%, 54.534912%, 18.843079%)" offset="0.171875"/><stop stop-opacity="1" stop-color="rgb(93.569946%, 54.748535%, 19.226074%)" offset="0.175781"/><stop stop-opacity="1" stop-color="rgb(93.600464%, 54.963684%, 19.60907%)" offset="0.179688"/><stop stop-opacity="1" stop-color="rgb(93.630981%, 55.177307%, 19.99054%)" offset="0.183594"/><stop stop-opacity="1" stop-color="rgb(93.661499%, 55.392456%, 20.373535%)" offset="0.1875"/><stop stop-opacity="1" stop-color="rgb(93.692017%, 55.606079%, 20.756531%)" offset="0.191406"/><stop stop-opacity="1" stop-color="rgb(93.722534%, 55.821228%, 21.139526%)" offset="0.195312"/><stop stop-opacity="1" stop-color="rgb(93.753052%, 56.036377%, 21.522522%)" offset="0.199219"/><stop stop-opacity="1" stop-color="rgb(93.783569%, 56.251526%, 21.905518%)" offset="0.203125"/><stop stop-opacity="1" stop-color="rgb(93.814087%, 56.465149%, 22.288513%)" offset="0.207031"/><stop stop-opacity="1" stop-color="rgb(93.844604%, 56.680298%, 22.671509%)" offset="0.210938"/><stop stop-opacity="1" stop-color="rgb(93.875122%, 56.893921%, 23.054504%)" offset="0.214844"/><stop stop-opacity="1" stop-color="rgb(93.90564%, 57.10907%, 23.4375%)" offset="0.21875"/><stop stop-opacity="1" stop-color="rgb(93.936157%, 57.322693%, 23.81897%)" offset="0.222656"/><stop stop-opacity="1" stop-color="rgb(93.966675%, 57.537842%, 24.201965%)" offset="0.226562"/><stop stop-opacity="1" stop-color="rgb(93.997192%, 57.751465%, 24.584961%)" offset="0.230469"/><stop stop-opacity="1" stop-color="rgb(94.02771%, 57.966614%, 24.967957%)" offset="0.234375"/><stop stop-opacity="1" stop-color="rgb(94.058228%, 58.180237%, 25.350952%)" offset="0.238281"/><stop stop-opacity="1" stop-color="rgb(94.088745%, 58.395386%, 25.733948%)" offset="0.242188"/><stop stop-opacity="1" stop-color="rgb(94.119263%, 58.609009%, 26.116943%)" offset="0.246094"/><stop stop-opacity="1" stop-color="rgb(94.14978%, 58.824158%, 26.499939%)" offset="0.25"/><stop stop-opacity="1" stop-color="rgb(94.180298%, 59.037781%, 26.881409%)" offset="0.253906"/><stop stop-opacity="1" stop-color="rgb(94.210815%, 59.25293%, 27.264404%)" offset="0.257812"/><stop stop-opacity="1" stop-color="rgb(94.241333%, 59.466553%, 27.6474%)" offset="0.261719"/><stop stop-opacity="1" stop-color="rgb(94.271851%, 59.681702%, 28.030396%)" offset="0.265625"/><stop stop-opacity="1" stop-color="rgb(94.300842%, 59.895325%, 28.413391%)" offset="0.269531"/><stop stop-opacity="1" stop-color="rgb(94.33136%, 60.110474%, 28.796387%)" offset="0.273438"/><stop stop-opacity="1" stop-color="rgb(94.361877%, 60.324097%, 29.179382%)" offset="0.277344"/><stop stop-opacity="1" stop-color="rgb(94.392395%, 60.539246%, 29.562378%)" offset="0.28125"/><stop stop-opacity="1" stop-color="rgb(94.422913%, 60.752869%, 29.943848%)" offset="0.285156"/><stop stop-opacity="1" stop-color="rgb(94.45343%, 60.968018%, 30.326843%)" offset="0.289062"/><stop stop-opacity="1" stop-color="rgb(94.483948%, 61.183167%, 30.709839%)" offset="0.292969"/><stop stop-opacity="1" stop-color="rgb(94.514465%, 61.398315%, 31.092834%)" offset="0.296875"/><stop stop-opacity="1" stop-color="rgb(94.544983%, 61.611938%, 31.47583%)" offset="0.300781"/><stop stop-opacity="1" stop-color="rgb(94.5755%, 61.827087%, 31.858826%)" offset="0.304688"/><stop stop-opacity="1" stop-color="rgb(94.606018%, 62.04071%, 32.241821%)" offset="0.308594"/><stop stop-opacity="1" stop-color="rgb(94.636536%, 62.255859%, 32.624817%)" offset="0.3125"/><stop stop-opacity="1" stop-color="rgb(94.667053%, 62.469482%, 33.006287%)" offset="0.316406"/><stop stop-opacity="1" stop-color="rgb(94.697571%, 62.684631%, 33.389282%)" offset="0.320312"/><stop stop-opacity="1" stop-color="rgb(94.728088%, 62.898254%, 33.772278%)" offset="0.324219"/><stop stop-opacity="1" stop-color="rgb(94.758606%, 63.113403%, 34.155273%)" offset="0.328125"/><stop stop-opacity="1" stop-color="rgb(94.789124%, 63.327026%, 34.538269%)" offset="0.332031"/><stop stop-opacity="1" stop-color="rgb(94.819641%, 63.542175%, 34.921265%)" offset="0.335938"/><stop stop-opacity="1" stop-color="rgb(94.850159%, 63.755798%, 35.30426%)" offset="0.339844"/><stop stop-opacity="1" stop-color="rgb(94.880676%, 63.970947%, 35.687256%)" offset="0.34375"/><stop stop-opacity="1" stop-color="rgb(94.911194%, 64.18457%, 36.068726%)" offset="0.347656"/><stop stop-opacity="1" stop-color="rgb(94.941711%, 64.399719%, 36.451721%)" offset="0.351562"/><stop stop-opacity="1" stop-color="rgb(94.972229%, 64.613342%, 36.834717%)" offset="0.355469"/><stop stop-opacity="1" stop-color="rgb(95.002747%, 64.828491%, 37.217712%)" offset="0.359375"/><stop stop-opacity="1" stop-color="rgb(95.033264%, 65.042114%, 37.600708%)" offset="0.363281"/><stop stop-opacity="1" stop-color="rgb(95.063782%, 65.257263%, 37.983704%)" offset="0.367188"/><stop stop-opacity="1" stop-color="rgb(95.094299%, 65.470886%, 38.366699%)" offset="0.371094"/><stop stop-opacity="1" stop-color="rgb(95.124817%, 65.686035%, 38.749695%)" offset="0.375"/><stop stop-opacity="1" stop-color="rgb(95.155334%, 65.901184%, 39.131165%)" offset="0.378906"/><stop stop-opacity="1" stop-color="rgb(95.185852%, 66.116333%, 39.51416%)" offset="0.382812"/><stop stop-opacity="1" stop-color="rgb(95.214844%, 66.329956%, 39.897156%)" offset="0.386719"/><stop stop-opacity="1" stop-color="rgb(95.245361%, 66.545105%, 40.280151%)" offset="0.390625"/><stop stop-opacity="1" stop-color="rgb(95.275879%, 66.758728%, 40.663147%)" offset="0.394531"/><stop stop-opacity="1" stop-color="rgb(95.306396%, 66.973877%, 41.046143%)" offset="0.398438"/><stop stop-opacity="1" stop-color="rgb(95.336914%, 67.1875%, 41.429138%)" offset="0.402344"/><stop stop-opacity="1" stop-color="rgb(95.367432%, 67.402649%, 41.812134%)" offset="0.40625"/><stop stop-opacity="1" stop-color="rgb(95.397949%, 67.616272%, 42.195129%)" offset="0.410156"/><stop stop-opacity="1" stop-color="rgb(95.428467%, 67.831421%, 42.578125%)" offset="0.414062"/><stop stop-opacity="1" stop-color="rgb(95.458984%, 68.045044%, 42.959595%)" offset="0.417969"/><stop stop-opacity="1" stop-color="rgb(95.489502%, 68.260193%, 43.34259%)" offset="0.421875"/><stop stop-opacity="1" stop-color="rgb(95.52002%, 68.473816%, 43.725586%)" offset="0.425781"/><stop stop-opacity="1" stop-color="rgb(95.550537%, 68.688965%, 44.108582%)" offset="0.429688"/><stop stop-opacity="1" stop-color="rgb(95.581055%, 68.902588%, 44.491577%)" offset="0.433594"/><stop stop-opacity="1" stop-color="rgb(95.611572%, 69.117737%, 44.874573%)" offset="0.4375"/><stop stop-opacity="1" stop-color="rgb(95.64209%, 69.33136%, 45.257568%)" offset="0.441406"/><stop stop-opacity="1" stop-color="rgb(95.672607%, 69.546509%, 45.640564%)" offset="0.445312"/><stop stop-opacity="1" stop-color="rgb(95.703125%, 69.760132%, 46.022034%)" offset="0.449219"/><stop stop-opacity="1" stop-color="rgb(95.733643%, 69.975281%, 46.405029%)" offset="0.453125"/><stop stop-opacity="1" stop-color="rgb(95.76416%, 70.188904%, 46.788025%)" offset="0.457031"/><stop stop-opacity="1" stop-color="rgb(95.794678%, 70.404053%, 47.171021%)" offset="0.460938"/><stop stop-opacity="1" stop-color="rgb(95.825195%, 70.619202%, 47.554016%)" offset="0.464844"/><stop stop-opacity="1" stop-color="rgb(95.855713%, 70.834351%, 47.937012%)" offset="0.46875"/><stop stop-opacity="1" stop-color="rgb(95.88623%, 71.047974%, 48.320007%)" offset="0.472656"/><stop stop-opacity="1" stop-color="rgb(95.916748%, 71.263123%, 48.703003%)" offset="0.476562"/><stop stop-opacity="1" stop-color="rgb(95.947266%, 71.476746%, 49.084473%)" offset="0.480469"/><stop stop-opacity="1" stop-color="rgb(95.977783%, 71.691895%, 49.467468%)" offset="0.484375"/><stop stop-opacity="1" stop-color="rgb(96.008301%, 71.905518%, 49.850464%)" offset="0.488281"/><stop stop-opacity="1" stop-color="rgb(96.038818%, 72.120667%, 50.233459%)" offset="0.492188"/><stop stop-opacity="1" stop-color="rgb(96.069336%, 72.33429%, 50.616455%)" offset="0.496094"/><stop stop-opacity="1" stop-color="rgb(96.099854%, 72.549438%, 50.999451%)" offset="0.5"/><stop stop-opacity="1" stop-color="rgb(96.130371%, 72.763062%, 51.382446%)" offset="0.503906"/><stop stop-opacity="1" stop-color="rgb(96.160889%, 72.97821%, 51.765442%)" offset="0.507812"/><stop stop-opacity="1" stop-color="rgb(96.18988%, 73.191833%, 52.146912%)" offset="0.511719"/><stop stop-opacity="1" stop-color="rgb(96.220398%, 73.406982%, 52.529907%)" offset="0.515625"/><stop stop-opacity="1" stop-color="rgb(96.250916%, 73.620605%, 52.912903%)" offset="0.519531"/><stop stop-opacity="1" stop-color="rgb(96.281433%, 73.835754%, 53.295898%)" offset="0.523438"/><stop stop-opacity="1" stop-color="rgb(96.311951%, 74.049377%, 53.678894%)" offset="0.527344"/><stop stop-opacity="1" stop-color="rgb(96.342468%, 74.264526%, 54.06189%)" offset="0.53125"/><stop stop-opacity="1" stop-color="rgb(96.372986%, 74.478149%, 54.444885%)" offset="0.535156"/><stop stop-opacity="1" stop-color="rgb(96.403503%, 74.693298%, 54.827881%)" offset="0.539062"/><stop stop-opacity="1" stop-color="rgb(96.434021%, 74.906921%, 55.209351%)" offset="0.542969"/><stop stop-opacity="1" stop-color="rgb(96.464539%, 75.12207%, 55.592346%)" offset="0.546875"/><stop stop-opacity="1" stop-color="rgb(96.495056%, 75.335693%, 55.975342%)" offset="0.550781"/><stop stop-opacity="1" stop-color="rgb(96.525574%, 75.550842%, 56.358337%)" offset="0.554688"/><stop stop-opacity="1" stop-color="rgb(96.556091%, 75.765991%, 56.741333%)" offset="0.558594"/><stop stop-opacity="1" stop-color="rgb(96.586609%, 75.98114%, 57.124329%)" offset="0.5625"/><stop stop-opacity="1" stop-color="rgb(96.617126%, 76.194763%, 57.507324%)" offset="0.566406"/><stop stop-opacity="1" stop-color="rgb(96.647644%, 76.409912%, 57.89032%)" offset="0.570312"/><stop stop-opacity="1" stop-color="rgb(96.678162%, 76.623535%, 58.27179%)" offset="0.574219"/><stop stop-opacity="1" stop-color="rgb(96.708679%, 76.838684%, 58.654785%)" offset="0.578125"/><stop stop-opacity="1" stop-color="rgb(96.739197%, 77.052307%, 59.037781%)" offset="0.582031"/><stop stop-opacity="1" stop-color="rgb(96.769714%, 77.267456%, 59.420776%)" offset="0.585938"/><stop stop-opacity="1" stop-color="rgb(96.800232%, 77.481079%, 59.803772%)" offset="0.589844"/><stop stop-opacity="1" stop-color="rgb(96.83075%, 77.696228%, 60.186768%)" offset="0.59375"/><stop stop-opacity="1" stop-color="rgb(96.861267%, 77.909851%, 60.569763%)" offset="0.597656"/><stop stop-opacity="1" stop-color="rgb(96.891785%, 78.125%, 60.952759%)" offset="0.601562"/><stop stop-opacity="1" stop-color="rgb(96.922302%, 78.338623%, 61.335754%)" offset="0.605469"/><stop stop-opacity="1" stop-color="rgb(96.95282%, 78.553772%, 61.71875%)" offset="0.609375"/><stop stop-opacity="1" stop-color="rgb(96.983337%, 78.767395%, 62.10022%)" offset="0.613281"/><stop stop-opacity="1" stop-color="rgb(97.013855%, 78.982544%, 62.483215%)" offset="0.617188"/><stop stop-opacity="1" stop-color="rgb(97.044373%, 79.196167%, 62.866211%)" offset="0.621094"/><stop stop-opacity="1" stop-color="rgb(97.07489%, 79.411316%, 63.249207%)" offset="0.625"/><stop stop-opacity="1" stop-color="rgb(97.105408%, 79.624939%, 63.632202%)" offset="0.628906"/><stop stop-opacity="1" stop-color="rgb(97.135925%, 79.840088%, 64.015198%)" offset="0.632812"/><stop stop-opacity="1" stop-color="rgb(97.164917%, 80.053711%, 64.398193%)" offset="0.636719"/><stop stop-opacity="1" stop-color="rgb(97.195435%, 80.26886%, 64.781189%)" offset="0.640625"/><stop stop-opacity="1" stop-color="rgb(97.225952%, 80.484009%, 65.162659%)" offset="0.644531"/><stop stop-opacity="1" stop-color="rgb(97.25647%, 80.699158%, 65.545654%)" offset="0.648438"/><stop stop-opacity="1" stop-color="rgb(97.286987%, 80.912781%, 65.92865%)" offset="0.652344"/><stop stop-opacity="1" stop-color="rgb(97.317505%, 81.12793%, 66.311646%)" offset="0.65625"/><stop stop-opacity="1" stop-color="rgb(97.348022%, 81.341553%, 66.694641%)" offset="0.660156"/><stop stop-opacity="1" stop-color="rgb(97.37854%, 81.556702%, 67.077637%)" offset="0.664062"/><stop stop-opacity="1" stop-color="rgb(97.409058%, 81.770325%, 67.460632%)" offset="0.667969"/><stop stop-opacity="1" stop-color="rgb(97.439575%, 81.985474%, 67.843628%)" offset="0.671875"/><stop stop-opacity="1" stop-color="rgb(97.470093%, 82.199097%, 68.225098%)" offset="0.675781"/><stop stop-opacity="1" stop-color="rgb(97.50061%, 82.414246%, 68.608093%)" offset="0.679688"/><stop stop-opacity="1" stop-color="rgb(97.531128%, 82.627869%, 68.991089%)" offset="0.683594"/><stop stop-opacity="1" stop-color="rgb(97.561646%, 82.843018%, 69.374084%)" offset="0.6875"/><stop stop-opacity="1" stop-color="rgb(97.592163%, 83.056641%, 69.75708%)" offset="0.691406"/><stop stop-opacity="1" stop-color="rgb(97.622681%, 83.27179%, 70.140076%)" offset="0.695312"/><stop stop-opacity="1" stop-color="rgb(97.653198%, 83.485413%, 70.523071%)" offset="0.699219"/><stop stop-opacity="1" stop-color="rgb(97.683716%, 83.700562%, 70.906067%)" offset="0.703125"/><stop stop-opacity="1" stop-color="rgb(97.714233%, 83.914185%, 71.287537%)" offset="0.707031"/><stop stop-opacity="1" stop-color="rgb(97.744751%, 84.129333%, 71.670532%)" offset="0.710938"/><stop stop-opacity="1" stop-color="rgb(97.775269%, 84.342957%, 72.053528%)" offset="0.714844"/><stop stop-opacity="1" stop-color="rgb(97.805786%, 84.558105%, 72.436523%)" offset="0.71875"/><stop stop-opacity="1" stop-color="rgb(97.836304%, 84.771729%, 72.819519%)" offset="0.722656"/><stop stop-opacity="1" stop-color="rgb(97.866821%, 84.986877%, 73.202515%)" offset="0.726562"/><stop stop-opacity="1" stop-color="rgb(97.897339%, 85.202026%, 73.58551%)" offset="0.730469"/><stop stop-opacity="1" stop-color="rgb(97.927856%, 85.417175%, 73.968506%)" offset="0.734375"/><stop stop-opacity="1" stop-color="rgb(97.958374%, 85.630798%, 74.349976%)" offset="0.738281"/><stop stop-opacity="1" stop-color="rgb(97.988892%, 85.845947%, 74.732971%)" offset="0.742188"/><stop stop-opacity="1" stop-color="rgb(98.019409%, 86.05957%, 75.115967%)" offset="0.746094"/><stop stop-opacity="1" stop-color="rgb(98.049927%, 86.274719%, 75.498962%)" offset="0.75"/><stop stop-opacity="1" stop-color="rgb(98.078918%, 86.488342%, 75.881958%)" offset="0.753906"/><stop stop-opacity="1" stop-color="rgb(98.109436%, 86.703491%, 76.264954%)" offset="0.757812"/><stop stop-opacity="1" stop-color="rgb(98.139954%, 86.917114%, 76.647949%)" offset="0.761719"/><stop stop-opacity="1" stop-color="rgb(98.170471%, 87.132263%, 77.030945%)" offset="0.765625"/><stop stop-opacity="1" stop-color="rgb(98.200989%, 87.345886%, 77.412415%)" offset="0.769531"/><stop stop-opacity="1" stop-color="rgb(98.231506%, 87.561035%, 77.79541%)" offset="0.773438"/><stop stop-opacity="1" stop-color="rgb(98.262024%, 87.774658%, 78.178406%)" offset="0.777344"/><stop stop-opacity="1" stop-color="rgb(98.292542%, 87.989807%, 78.561401%)" offset="0.78125"/><stop stop-opacity="1" stop-color="rgb(98.323059%, 88.20343%, 78.944397%)" offset="0.785156"/><stop stop-opacity="1" stop-color="rgb(98.353577%, 88.418579%, 79.327393%)" offset="0.789062"/><stop stop-opacity="1" stop-color="rgb(98.384094%, 88.632202%, 79.710388%)" offset="0.792969"/><stop stop-opacity="1" stop-color="rgb(98.414612%, 88.847351%, 80.093384%)" offset="0.796875"/><stop stop-opacity="1" stop-color="rgb(98.445129%, 89.060974%, 80.476379%)" offset="0.800781"/><stop stop-opacity="1" stop-color="rgb(98.475647%, 89.276123%, 80.859375%)" offset="0.804688"/><stop stop-opacity="1" stop-color="rgb(98.506165%, 89.489746%, 81.240845%)" offset="0.808594"/><stop stop-opacity="1" stop-color="rgb(98.536682%, 89.704895%, 81.62384%)" offset="0.8125"/><stop stop-opacity="1" stop-color="rgb(98.5672%, 89.918518%, 82.006836%)" offset="0.816406"/><stop stop-opacity="1" stop-color="rgb(98.597717%, 90.133667%, 82.389832%)" offset="0.820312"/><stop stop-opacity="1" stop-color="rgb(98.628235%, 90.348816%, 82.772827%)" offset="0.824219"/><stop stop-opacity="1" stop-color="rgb(98.658752%, 90.563965%, 83.155823%)" offset="0.828125"/><stop stop-opacity="1" stop-color="rgb(98.68927%, 90.777588%, 83.538818%)" offset="0.832031"/><stop stop-opacity="1" stop-color="rgb(98.719788%, 90.992737%, 83.921814%)" offset="0.835938"/><stop stop-opacity="1" stop-color="rgb(98.750305%, 91.20636%, 84.303284%)" offset="0.839844"/><stop stop-opacity="1" stop-color="rgb(98.780823%, 91.421509%, 84.686279%)" offset="0.84375"/><stop stop-opacity="1" stop-color="rgb(98.81134%, 91.635132%, 85.069275%)" offset="0.847656"/><stop stop-opacity="1" stop-color="rgb(98.841858%, 91.850281%, 85.452271%)" offset="0.851562"/><stop stop-opacity="1" stop-color="rgb(98.872375%, 92.063904%, 85.835266%)" offset="0.855469"/><stop stop-opacity="1" stop-color="rgb(98.902893%, 92.279053%, 86.218262%)" offset="0.859375"/><stop stop-opacity="1" stop-color="rgb(98.933411%, 92.492676%, 86.601257%)" offset="0.863281"/><stop stop-opacity="1" stop-color="rgb(98.963928%, 92.707825%, 86.984253%)" offset="0.867188"/><stop stop-opacity="1" stop-color="rgb(98.994446%, 92.921448%, 87.365723%)" offset="0.871094"/><stop stop-opacity="1" stop-color="rgb(99.024963%, 93.136597%, 87.748718%)" offset="0.875"/><stop stop-opacity="1" stop-color="rgb(99.053955%, 93.35022%, 88.131714%)" offset="0.878906"/><stop stop-opacity="1" stop-color="rgb(99.084473%, 93.565369%, 88.514709%)" offset="0.882812"/><stop stop-opacity="1" stop-color="rgb(99.11499%, 93.778992%, 88.897705%)" offset="0.886719"/><stop stop-opacity="1" stop-color="rgb(99.145508%, 93.994141%, 89.280701%)" offset="0.890625"/><stop stop-opacity="1" stop-color="rgb(99.176025%, 94.207764%, 89.663696%)" offset="0.894531"/><stop stop-opacity="1" stop-color="rgb(99.206543%, 94.422913%, 90.046692%)" offset="0.898438"/><stop stop-opacity="1" stop-color="rgb(99.237061%, 94.636536%, 90.428162%)" offset="0.902344"/><stop stop-opacity="1" stop-color="rgb(99.267578%, 94.851685%, 90.811157%)" offset="0.90625"/><stop stop-opacity="1" stop-color="rgb(99.298096%, 95.066833%, 91.194153%)" offset="0.910156"/><stop stop-opacity="1" stop-color="rgb(99.328613%, 95.281982%, 91.577148%)" offset="0.914062"/><stop stop-opacity="1" stop-color="rgb(99.359131%, 95.495605%, 91.960144%)" offset="0.917969"/><stop stop-opacity="1" stop-color="rgb(99.389648%, 95.710754%, 92.34314%)" offset="0.921875"/><stop stop-opacity="1" stop-color="rgb(99.420166%, 95.924377%, 92.726135%)" offset="0.925781"/><stop stop-opacity="1" stop-color="rgb(99.450684%, 96.139526%, 93.109131%)" offset="0.929688"/><stop stop-opacity="1" stop-color="rgb(99.481201%, 96.353149%, 93.490601%)" offset="0.933594"/><stop stop-opacity="1" stop-color="rgb(99.511719%, 96.568298%, 93.873596%)" offset="0.9375"/><stop stop-opacity="1" stop-color="rgb(99.542236%, 96.781921%, 94.256592%)" offset="0.941406"/><stop stop-opacity="1" stop-color="rgb(99.572754%, 96.99707%, 94.639587%)" offset="0.945312"/><stop stop-opacity="1" stop-color="rgb(99.603271%, 97.210693%, 95.022583%)" offset="0.949219"/><stop stop-opacity="1" stop-color="rgb(99.633789%, 97.425842%, 95.405579%)" offset="0.953125"/><stop stop-opacity="1" stop-color="rgb(99.664307%, 97.639465%, 95.788574%)" offset="0.957031"/><stop stop-opacity="1" stop-color="rgb(99.694824%, 97.854614%, 96.17157%)" offset="0.960938"/><stop stop-opacity="1" stop-color="rgb(99.725342%, 98.068237%, 96.55304%)" offset="0.964844"/><stop stop-opacity="1" stop-color="rgb(99.755859%, 98.283386%, 96.936035%)" offset="0.96875"/><stop stop-opacity="1" stop-color="rgb(99.786377%, 98.497009%, 97.319031%)" offset="0.972656"/><stop stop-opacity="1" stop-color="rgb(99.816895%, 98.712158%, 97.702026%)" offset="0.976562"/><stop stop-opacity="1" stop-color="rgb(99.847412%, 98.925781%, 98.085022%)" offset="0.980469"/><stop stop-opacity="1" stop-color="rgb(99.87793%, 99.14093%, 98.468018%)" offset="0.984375"/><stop stop-opacity="1" stop-color="rgb(99.908447%, 99.354553%, 98.851013%)" offset="0.988281"/><stop stop-opacity="1" stop-color="rgb(99.938965%, 99.569702%, 99.234009%)" offset="0.992188"/><stop stop-opacity="1" stop-color="rgb(99.969482%, 99.783325%, 99.615479%)" offset="0.996094"/><stop stop-opacity="1" stop-color="rgb(100%, 99.998474%, 99.998474%)" offset="1"/></linearGradient><clipPath id="e8e02cdf64"><rect x="0" width="193" y="0" height="9"/></clipPath><mask id="fa13a21cdd"><g filter="url(#f789db260e)"><rect x="-37.5" width="450" fill="#000000" y="-37.499999" height="449.999989" fill-opacity="0.37"/></g></mask><clipPath id="70a6e19972"><path d="M 0.378906 0.421875 L 192.746094 0.421875 L 192.746094 4.308594 L 0.378906 4.308594 Z M 0.378906 0.421875 " clip-rule="nonzero"/></clipPath><clipPath id="33ea405845"><rect x="0" width="193" y="0" height="5"/></clipPath><mask id="0dc091dfe9"><g filter="url(#f789db260e)"><rect x="-37.5" width="450" fill="#000000" y="-37.499999" height="449.999989" fill-opacity="0.68"/></g></mask><clipPath id="be0bd251b0"><path d="M 0.941406 0 L 226.082031 0 L 226.082031 4.089844 L 0.941406 4.089844 Z M 0.941406 0 " clip-rule="nonzero"/></clipPath><clipPath id="f3504b8c44"><rect x="0" width="227" y="0" height="5"/></clipPath><mask id="35076ec22f"><g filter="url(#f789db260e)"><rect x="-37.5" width="450" fill="#000000" y="-37.499999" height="449.999989" fill-opacity="0.79"/></g></mask><clipPath id="1ac1391fc1"><path d="M 0.378906 0.367188 L 192.746094 0.367188 L 192.746094 4.253906 L 0.378906 4.253906 Z M 0.378906 0.367188 " clip-rule="nonzero"/></clipPath><clipPath id="897cf2107b"><rect x="0" width="193" y="0" height="5"/></clipPath></defs><g clip-path="url(#e899ef8aa6)"><path fill="#f15a24" d="M 350.117188 181.878906 L 350.117188 377.472656 C 347.835938 377.472656 345.550781 377.4375 343.273438 377.382812 C 333.957031 377.128906 324.648438 376.476562 315.347656 375.429688 C 306.066406 374.378906 296.796875 372.96875 287.609375 371.109375 C 278.425781 369.25 269.308594 367.015625 260.304688 364.394531 C 251.304688 361.773438 242.40625 358.761719 233.679688 355.355469 C 216.175781 348.550781 199.378906 340.300781 183.292969 330.605469 C 167.253906 320.929688 152.152344 309.964844 137.992188 297.703125 C 123.832031 285.441406 110.816406 272.0625 98.945312 257.574219 C 87.050781 243.0625 76.480469 227.644531 67.238281 211.3125 C 57.996094 194.984375 50.21875 177.984375 43.902344 160.316406 C 37.578125 142.621094 32.824219 124.507812 29.640625 105.988281 C 29.265625 103.679688 28.863281 101.367188 28.519531 99.058594 L 27.550781 92.101562 C 27.261719 89.78125 27.003906 87.457031 26.742188 85.140625 C 26.605469 83.984375 26.492188 82.816406 26.394531 81.652344 L 26.082031 78.167969 C 25.296875 68.859375 24.894531 59.550781 24.882812 50.242188 L 24.882812 2.488281 L 220.507812 2.488281 L 220.507812 50.242188 C 220.5 54.003906 220.65625 57.761719 220.972656 61.511719 C 221.289062 65.261719 221.769531 68.992188 222.40625 72.703125 C 223.042969 76.410156 223.84375 80.085938 224.796875 83.726562 C 225.753906 87.367188 226.863281 90.960938 228.128906 94.503906 C 229.394531 98.050781 230.808594 101.535156 232.371094 104.957031 C 233.9375 108.378906 235.648438 111.730469 237.5 115.003906 C 239.355469 118.28125 241.347656 121.46875 243.476562 124.574219 C 245.605469 127.679688 247.863281 130.683594 250.25 133.59375 C 255.066406 139.445312 260.335938 144.855469 266.054688 149.828125 C 271.777344 154.769531 277.871094 159.195312 284.339844 163.113281 C 290.785156 166.996094 297.511719 170.300781 304.523438 173.03125 C 308.007812 174.402344 311.5625 175.589844 315.152344 176.636719 C 318.742188 177.679688 322.386719 178.570312 326.058594 179.316406 C 329.726562 180.082031 333.453125 180.621094 337.195312 181.046875 C 340.945312 181.460938 344.71875 181.742188 348.523438 181.847656 C 349.058594 181.855469 349.589844 181.871094 350.117188 181.878906 Z M 350.117188 181.878906 " fill-opacity="1" fill-rule="nonzero"/></g><path fill="#ffffff" d="M 40.914062 37.085938 C 40.539062 36.984375 40.320312 36.921875 40.25 36.902344 C 40.164062 36.863281 40.089844 36.800781 40.039062 36.71875 C 39.863281 36.476562 39.789062 36.207031 39.816406 35.910156 L 39.816406 19 L 33.824219 19.3125 C 33.519531 19.3125 33.222656 19.367188 32.933594 19.46875 C 32.644531 19.625 32.5 19.867188 32.507812 20.195312 C 32.507812 20.582031 32.726562 20.8125 33.183594 20.878906 L 33.679688 20.957031 C 33.929688 20.980469 34.089844 21.109375 34.167969 21.34375 C 34.289062 21.699219 34.339844 22.0625 34.320312 22.4375 L 34.320312 35.910156 C 34.347656 36.207031 34.273438 36.476562 34.105469 36.71875 C 34.054688 36.796875 33.988281 36.859375 33.902344 36.902344 C 33.832031 36.925781 33.613281 36.984375 33.238281 37.085938 C 33.035156 37.101562 32.867188 37.1875 32.734375 37.339844 C 32.601562 37.492188 32.539062 37.667969 32.542969 37.871094 C 32.550781 38.148438 32.671875 38.351562 32.917969 38.480469 C 33.207031 38.617188 33.507812 38.671875 33.824219 38.648438 L 40.328125 38.648438 C 40.640625 38.671875 40.941406 38.617188 41.226562 38.480469 C 41.476562 38.351562 41.605469 38.148438 41.609375 37.871094 C 41.617188 37.667969 41.554688 37.488281 41.417969 37.339844 C 41.285156 37.1875 41.117188 37.101562 40.914062 37.085938 Z M 40.914062 37.085938 " fill-opacity="1" fill-rule="nonzero"/><path fill="#ffffff" d="M 67.9375 32.519531 C 67.808594 32.335938 67.636719 32.25 67.410156 32.261719 C 67.058594 32.277344 66.824219 32.519531 66.71875 32.992188 C 66.675781 33.195312 66.621094 33.398438 66.558594 33.59375 C 66.511719 33.699219 66.453125 33.796875 66.375 33.882812 C 66.085938 34.148438 65.746094 34.265625 65.351562 34.226562 C 64.207031 34.144531 63.074219 33.984375 61.953125 33.738281 C 61.019531 33.546875 60.074219 33.4375 59.117188 33.410156 C 58.460938 33.375 57.820312 33.46875 57.199219 33.691406 C 56.582031 33.914062 56.027344 34.246094 55.542969 34.691406 C 55.125 35.097656 54.800781 35.566406 54.566406 36.101562 C 54.335938 36.605469 54.214844 37.132812 54.207031 37.6875 C 54.195312 37.914062 54.253906 38.117188 54.382812 38.304688 C 54.519531 38.460938 54.6875 38.53125 54.894531 38.519531 C 55.160156 38.464844 55.386719 38.34375 55.574219 38.144531 C 55.945312 37.777344 56.390625 37.578125 56.914062 37.542969 C 57.621094 37.621094 58.3125 37.773438 58.988281 38 L 60.894531 38.5625 C 61.585938 38.777344 62.296875 38.890625 63.019531 38.898438 C 63.640625 38.882812 64.230469 38.75 64.796875 38.496094 C 65.386719 38.246094 65.90625 37.894531 66.359375 37.441406 C 66.902344 36.859375 67.324219 36.199219 67.625 35.460938 C 67.949219 34.753906 68.121094 34.011719 68.144531 33.234375 C 68.15625 32.972656 68.089844 32.734375 67.9375 32.519531 Z M 59.652344 22.28125 C 59.417969 21.886719 59.105469 21.5625 58.714844 21.316406 C 58.476562 21.164062 58.347656 21.019531 58.324219 20.878906 C 58.316406 20.773438 58.394531 20.675781 58.5625 20.566406 C 58.765625 20.445312 58.984375 20.367188 59.214844 20.324219 L 59.214844 18.792969 C 58.433594 18.921875 57.675781 19.144531 56.945312 19.457031 C 56.15625 19.820312 55.511719 20.359375 55.007812 21.070312 C 54.53125 21.726562 54.292969 22.460938 54.292969 23.273438 C 54.269531 24.085938 54.542969 24.785156 55.117188 25.363281 C 55.378906 25.628906 55.679688 25.835938 56.023438 25.980469 C 56.371094 26.128906 56.726562 26.203125 57.101562 26.207031 C 57.476562 26.214844 57.835938 26.148438 58.183594 26.011719 C 58.53125 25.871094 58.839844 25.675781 59.109375 25.414062 C 59.316406 25.21875 59.484375 24.992188 59.621094 24.738281 C 59.753906 24.488281 59.847656 24.21875 59.894531 23.9375 C 59.941406 23.65625 59.945312 23.375 59.90625 23.089844 C 59.863281 22.808594 59.777344 22.539062 59.652344 22.28125 Z M 66 20.621094 C 65.34375 20.003906 64.589844 19.546875 63.738281 19.25 C 62.8125 18.910156 61.855469 18.742188 60.871094 18.746094 L 60.488281 18.746094 L 60.488281 20.324219 C 60.671875 20.417969 60.835938 20.53125 60.984375 20.667969 C 61.125 20.8125 61.234375 20.972656 61.320312 21.15625 C 61.664062 22.164062 61.796875 23.203125 61.722656 24.265625 C 61.734375 24.992188 61.683594 25.710938 61.570312 26.429688 C 61.488281 26.953125 61.328125 27.449219 61.09375 27.921875 C 60.878906 28.324219 60.613281 28.6875 60.292969 29.011719 C 59.980469 29.316406 59.371094 29.828125 58.46875 30.53125 C 57.769531 31.078125 57.242188 31.519531 56.890625 31.855469 C 56.511719 32.226562 56.164062 32.625 55.847656 33.054688 C 56.351562 32.828125 56.867188 32.632812 57.394531 32.464844 C 57.757812 32.363281 58.125 32.3125 58.5 32.3125 L 58.925781 32.070312 C 59.679688 31.644531 60.457031 31.257812 61.253906 30.917969 L 63.136719 30.171875 C 64.433594 29.6875 65.519531 28.902344 66.382812 27.816406 C 67.160156 26.800781 67.542969 25.652344 67.527344 24.371094 C 67.546875 23.667969 67.425781 22.988281 67.160156 22.335938 C 66.894531 21.683594 66.507812 21.109375 66 20.621094 Z M 66 20.621094 " fill-opacity="1" fill-rule="nonzero"/><path fill="#ffffff" d="M 82.777344 37.191406 C 82.449219 37.085938 82.285156 36.949219 82.285156 36.796875 C 82.285156 36.679688 82.441406 36.511719 82.75 36.292969 C 83.085938 36.046875 83.355469 35.738281 83.554688 35.371094 C 83.753906 35.011719 83.855469 34.628906 83.859375 34.21875 C 83.851562 33.628906 83.65625 33.113281 83.265625 32.671875 C 83.015625 32.347656 82.703125 32.101562 82.335938 31.921875 C 81.96875 31.746094 81.578125 31.660156 81.171875 31.664062 C 80.402344 31.648438 79.757812 31.921875 79.234375 32.480469 C 78.691406 33.046875 78.433594 33.71875 78.457031 34.5 C 78.449219 35.296875 78.6875 36.011719 79.171875 36.644531 C 79.703125 37.332031 80.371094 37.84375 81.179688 38.175781 C 82.054688 38.542969 82.96875 38.777344 83.914062 38.875 L 83.914062 37.367188 C 83.523438 37.378906 83.148438 37.320312 82.777344 37.191406 Z M 83.699219 22.015625 L 83.039062 21.492188 C 82.867188 21.378906 82.765625 21.226562 82.734375 21.027344 C 82.746094 20.933594 82.78125 20.851562 82.847656 20.78125 C 82.914062 20.679688 83.003906 20.605469 83.113281 20.554688 C 83.367188 20.421875 83.632812 20.328125 83.914062 20.277344 L 83.914062 18.824219 C 82.882812 18.984375 81.921875 19.339844 81.03125 19.890625 C 80.441406 20.277344 79.964844 20.78125 79.609375 21.390625 C 79.265625 21.964844 79.09375 22.589844 79.089844 23.257812 C 79.070312 23.992188 79.3125 24.628906 79.8125 25.164062 C 80.289062 25.695312 80.882812 25.949219 81.597656 25.933594 C 82.3125 25.945312 82.917969 25.695312 83.417969 25.1875 C 83.929688 24.695312 84.183594 24.097656 84.171875 23.386719 C 84.230469 22.855469 84.074219 22.398438 83.699219 22.015625 Z M 92.222656 31.5 C 91.996094 30.925781 91.660156 30.425781 91.21875 29.996094 C 90.886719 29.699219 90.523438 29.453125 90.121094 29.265625 C 89.511719 29 88.890625 28.777344 88.25 28.59375 C 88.832031 28.421875 89.390625 28.199219 89.929688 27.921875 C 90.351562 27.683594 90.726562 27.386719 91.058594 27.03125 C 91.90625 26.128906 92.316406 25.0625 92.285156 23.824219 C 92.292969 23.117188 92.132812 22.453125 91.8125 21.824219 C 91.484375 21.1875 91.03125 20.648438 90.453125 20.21875 C 89.789062 19.730469 89.0625 19.371094 88.265625 19.144531 C 87.398438 18.875 86.507812 18.742188 85.597656 18.746094 L 85.203125 18.746094 L 85.203125 20.277344 C 85.679688 20.351562 86.078125 20.566406 86.40625 20.917969 C 86.675781 21.328125 86.792969 21.773438 86.757812 22.261719 L 86.757812 25.523438 L 86.765625 26.078125 C 86.765625 27.070312 86.230469 27.609375 85.15625 27.703125 C 84.859375 27.710938 84.578125 27.785156 84.3125 27.921875 C 84.132812 28.070312 84.0625 28.257812 84.089844 28.488281 C 84.078125 28.75 84.183594 28.949219 84.402344 29.089844 C 84.644531 29.195312 84.898438 29.242188 85.164062 29.234375 C 85.683594 29.21875 86.109375 29.410156 86.4375 29.8125 C 86.5625 29.96875 86.648438 30.144531 86.695312 30.339844 C 86.746094 30.628906 86.765625 30.921875 86.757812 31.214844 L 86.757812 35.355469 C 86.761719 35.621094 86.730469 35.882812 86.667969 36.140625 C 86.605469 36.347656 86.503906 36.53125 86.363281 36.695312 C 86.042969 37.039062 85.660156 37.261719 85.203125 37.367188 L 85.203125 38.875 L 85.828125 38.898438 C 86.84375 38.910156 87.832031 38.75 88.792969 38.425781 C 89.652344 38.140625 90.414062 37.683594 91.074219 37.0625 C 91.433594 36.707031 91.738281 36.308594 91.980469 35.867188 C 92.222656 35.421875 92.398438 34.953125 92.5 34.457031 C 92.601562 33.960938 92.628906 33.460938 92.582031 32.957031 C 92.535156 32.453125 92.414062 31.964844 92.222656 31.5 Z M 92.222656 31.5 " fill-opacity="1" fill-rule="nonzero"/><path fill="#ffffff" d="M 108.300781 24.25 L 102.910156 31.621094 L 102.695312 31.925781 C 102.390625 32.304688 102.226562 32.734375 102.203125 33.21875 C 102.167969 33.488281 102.246094 33.71875 102.429688 33.914062 C 102.691406 34.066406 102.96875 34.128906 103.269531 34.097656 L 108.300781 34.097656 L 108.300781 32.671875 L 103.78125 32.671875 L 108.300781 26.382812 Z M 116.648438 34.097656 C 117.1875 34.097656 117.453125 33.851562 117.453125 33.367188 C 117.464844 33.269531 117.457031 33.171875 117.425781 33.082031 C 117.390625 32.988281 117.339844 32.910156 117.269531 32.839844 C 117.199219 32.773438 117.117188 32.722656 117.023438 32.695312 C 116.929688 32.664062 116.835938 32.65625 116.738281 32.671875 L 114.9375 32.671875 L 114.9375 19.789062 C 114.953125 19.582031 114.921875 19.378906 114.847656 19.179688 C 114.777344 19.058594 114.574219 19 114.230469 19 L 112.980469 19 C 112.710938 18.980469 112.445312 19.011719 112.1875 19.089844 C 111.980469 19.207031 111.816406 19.367188 111.691406 19.570312 L 109.433594 22.695312 L 109.433594 35.933594 C 109.460938 36.226562 109.390625 36.492188 109.222656 36.734375 C 109.167969 36.8125 109.097656 36.871094 109.007812 36.902344 C 108.941406 36.925781 108.71875 36.984375 108.351562 37.085938 C 108.152344 37.101562 107.984375 37.1875 107.851562 37.339844 C 107.71875 37.492188 107.660156 37.667969 107.667969 37.871094 C 107.667969 38.148438 107.792969 38.351562 108.039062 38.480469 C 108.328125 38.621094 108.628906 38.675781 108.949219 38.648438 L 115.425781 38.648438 C 115.75 38.671875 116.054688 38.617188 116.347656 38.480469 C 116.59375 38.351562 116.71875 38.148438 116.722656 37.871094 C 116.730469 37.667969 116.667969 37.488281 116.535156 37.339844 C 116.398438 37.1875 116.230469 37.101562 116.027344 37.085938 C 115.65625 36.984375 115.433594 36.921875 115.367188 36.902344 C 115.277344 36.867188 115.207031 36.808594 115.152344 36.734375 C 114.984375 36.492188 114.914062 36.226562 114.9375 35.933594 L 114.9375 34.097656 Z M 116.648438 34.097656 " fill-opacity="1" fill-rule="nonzero"/><path fill="#ffffff" d="M 131.382812 36.621094 C 131.382812 36.511719 131.496094 36.375 131.71875 36.214844 C 132.023438 35.96875 132.257812 35.664062 132.417969 35.300781 C 132.605469 34.933594 132.699219 34.539062 132.707031 34.128906 C 132.714844 33.425781 132.460938 32.835938 131.945312 32.359375 C 131.460938 31.847656 130.867188 31.597656 130.160156 31.605469 C 129.367188 31.585938 128.695312 31.863281 128.148438 32.441406 C 127.589844 33.027344 127.324219 33.722656 127.347656 34.53125 C 127.351562 35.269531 127.570312 35.933594 128.003906 36.527344 C 128.507812 37.195312 129.136719 37.710938 129.886719 38.074219 C 130.769531 38.53125 131.703125 38.792969 132.691406 38.851562 L 132.691406 37.269531 C 132.355469 37.242188 132.035156 37.160156 131.722656 37.023438 C 131.496094 36.910156 131.382812 36.773438 131.382812 36.621094 Z M 131.230469 26.679688 C 130.691406 26.988281 130.183594 27.34375 129.710938 27.75 L 129.957031 24.753906 L 128.628906 24.609375 L 128.269531 28.402344 C 128.265625 28.554688 128.257812 28.6875 128.257812 28.800781 C 128.246094 29.023438 128.320312 29.214844 128.476562 29.371094 C 128.65625 29.519531 128.863281 29.589844 129.09375 29.578125 C 129.464844 29.511719 129.796875 29.371094 130.101562 29.152344 C 130.910156 28.679688 131.773438 28.34375 132.691406 28.152344 L 132.691406 26.125 C 132.183594 26.25 131.695312 26.4375 131.230469 26.679688 Z M 138.628906 19.28125 C 137.855469 19.390625 137.074219 19.4375 136.289062 19.425781 C 135.058594 19.4375 133.832031 19.367188 132.609375 19.210938 L 129.695312 18.824219 C 129.636719 18.816406 129.453125 18.792969 129.140625 18.746094 L 128.738281 23.519531 C 129.929688 23.707031 131.128906 23.800781 132.335938 23.800781 C 133.441406 23.824219 134.535156 23.730469 135.621094 23.519531 C 136.210938 23.375 136.769531 23.148438 137.296875 22.839844 C 137.859375 22.511719 138.367188 22.117188 138.828125 21.65625 C 139.222656 21.277344 139.558594 20.851562 139.835938 20.378906 C 140.113281 19.855469 140.332031 19.3125 140.5 18.746094 C 139.898438 18.996094 139.273438 19.175781 138.628906 19.28125 Z M 138.324219 27.078125 C 137.722656 26.714844 137.078125 26.453125 136.390625 26.292969 C 135.566406 26.125 134.734375 26.046875 133.898438 26.0625 L 133.898438 28.152344 C 134.398438 28.296875 134.789062 28.589844 135.070312 29.027344 C 135.3125 29.613281 135.410156 30.21875 135.367188 30.851562 L 135.367188 34.53125 C 135.367188 34.867188 135.34375 35.199219 135.292969 35.53125 C 135.261719 35.789062 135.195312 36.039062 135.09375 36.277344 C 135 36.523438 134.855469 36.730469 134.660156 36.902344 C 134.445312 37.070312 134.207031 37.195312 133.941406 37.269531 L 133.941406 38.898438 L 134.390625 38.898438 C 135.167969 38.898438 135.929688 38.78125 136.671875 38.554688 C 137.382812 38.351562 138.050781 38.046875 138.667969 37.640625 C 139.496094 37.074219 140.125 36.332031 140.550781 35.421875 C 141.011719 34.449219 141.230469 33.421875 141.214844 32.34375 C 141.246094 31.8125 141.199219 31.289062 141.082031 30.773438 C 140.964844 30.253906 140.78125 29.761719 140.523438 29.296875 C 140.269531 28.832031 139.953125 28.410156 139.582031 28.03125 C 139.207031 27.65625 138.789062 27.335938 138.324219 27.078125 Z M 138.324219 27.078125 " fill-opacity="1" fill-rule="nonzero"/><path fill="#ffffff" d="M 157.511719 20.933594 C 157.808594 20.5625 158.183594 20.320312 158.640625 20.203125 L 158.640625 18.746094 C 157.828125 18.761719 157.058594 18.945312 156.332031 19.304688 C 155.515625 19.695312 154.796875 20.21875 154.164062 20.867188 C 152.277344 22.796875 151.332031 25.40625 151.332031 28.699219 C 151.316406 30.160156 151.507812 31.59375 151.910156 33 C 152.234375 34.203125 152.785156 35.289062 153.5625 36.261719 C 154.167969 37 154.886719 37.601562 155.722656 38.066406 C 156.527344 38.519531 157.394531 38.796875 158.3125 38.898438 L 158.3125 37.382812 C 157.964844 37.324219 157.667969 37.164062 157.421875 36.910156 C 157.3125 36.769531 157.242188 36.613281 157.214844 36.4375 C 157.179688 36.121094 157.167969 35.804688 157.175781 35.484375 L 157.175781 22.289062 C 157.148438 21.804688 157.261719 21.351562 157.511719 20.933594 Z M 165.890625 30.101562 C 165.636719 29.492188 165.273438 28.957031 164.792969 28.5 C 164.316406 28.042969 163.765625 27.699219 163.144531 27.472656 C 162.566406 27.25 161.96875 27.132812 161.347656 27.128906 C 160.261719 27.15625 159.25 27.445312 158.3125 28 L 158.3125 29.652344 C 158.664062 29.425781 159.046875 29.292969 159.464844 29.25 C 159.769531 29.222656 160.011719 29.339844 160.1875 29.59375 C 160.386719 29.902344 160.476562 30.246094 160.453125 30.613281 L 160.453125 36.003906 C 160.480469 36.339844 160.398438 36.644531 160.210938 36.925781 C 159.992188 37.171875 159.71875 37.324219 159.394531 37.382812 L 159.394531 38.898438 L 159.753906 38.898438 C 160.527344 38.894531 161.277344 38.753906 162.003906 38.480469 C 162.730469 38.222656 163.394531 37.851562 164 37.367188 C 164.738281 36.738281 165.296875 35.980469 165.675781 35.089844 C 166.09375 34.171875 166.304688 33.207031 166.308594 32.199219 C 166.308594 31.472656 166.171875 30.773438 165.890625 30.101562 Z M 164.554688 20.972656 C 164.039062 20.300781 163.390625 19.789062 162.621094 19.441406 C 161.707031 18.992188 160.742188 18.761719 159.722656 18.746094 L 159.722656 20.203125 C 160.585938 20.308594 161.019531 20.582031 161.019531 21.039062 C 161.019531 21.175781 160.988281 21.304688 160.917969 21.421875 C 160.804688 21.609375 160.667969 21.785156 160.515625 21.949219 C 160.113281 22.375 159.898438 22.886719 159.867188 23.472656 C 159.863281 24.136719 160.113281 24.6875 160.613281 25.125 C 161.125 25.605469 161.730469 25.835938 162.429688 25.820312 C 162.804688 25.828125 163.167969 25.765625 163.515625 25.625 C 163.867188 25.488281 164.171875 25.285156 164.441406 25.019531 C 164.707031 24.757812 164.910156 24.449219 165.050781 24.101562 C 165.191406 23.753906 165.257812 23.390625 165.25 23.015625 C 165.25 22.257812 165.015625 21.574219 164.554688 20.972656 Z M 164.554688 20.972656 " fill-opacity="1" fill-rule="nonzero"/><path fill="#ffffff" d="M 189.117188 19.363281 C 189.019531 19.257812 188.902344 19.199219 188.757812 19.195312 C 188.5625 19.210938 188.40625 19.296875 188.292969 19.457031 L 188.132812 19.660156 C 187.972656 19.886719 187.753906 20.003906 187.476562 20.019531 C 186.992188 19.96875 186.523438 19.847656 186.074219 19.660156 C 185.808594 19.554688 185.28125 19.378906 184.488281 19.144531 C 184.109375 19.007812 183.722656 18.902344 183.332031 18.824219 C 183.023438 18.773438 182.71875 18.746094 182.410156 18.746094 C 181.664062 18.742188 180.957031 18.90625 180.289062 19.234375 C 179.503906 19.652344 178.804688 20.175781 178.183594 20.8125 L 178.40625 19.144531 L 177.339844 19.144531 L 176.425781 25.269531 L 177.539062 25.269531 L 177.539062 24.957031 C 177.5 24.457031 177.613281 23.996094 177.878906 23.570312 C 178.15625 23.238281 178.507812 23.089844 178.941406 23.128906 C 179.828125 23.1875 180.699219 23.332031 181.554688 23.5625 C 182.804688 23.859375 183.566406 24.027344 183.832031 24.074219 C 184.152344 24.128906 184.472656 24.15625 184.792969 24.152344 C 185.546875 24.171875 186.261719 24.015625 186.9375 23.679688 C 187.566406 23.324219 188.050781 22.828125 188.390625 22.191406 C 188.640625 21.769531 188.847656 21.328125 189.015625 20.867188 C 189.160156 20.503906 189.25 20.132812 189.277344 19.746094 C 189.277344 19.59375 189.222656 19.46875 189.117188 19.363281 Z M 187.074219 24.769531 C 186.484375 25.027344 185.867188 25.195312 185.230469 25.269531 C 185.019531 25.6875 184.769531 26.074219 184.472656 26.4375 C 184.125 26.894531 183.558594 27.550781 182.796875 28.410156 C 182.058594 29.25 181.523438 29.867188 181.203125 30.285156 C 180.902344 30.667969 180.636719 31.070312 180.402344 31.5 C 179.75 32.597656 179.410156 33.785156 179.382812 35.066406 C 179.34375 36.089844 179.636719 37.007812 180.265625 37.816406 C 180.539062 38.164062 180.875 38.433594 181.273438 38.625 C 181.675781 38.816406 182.09375 38.90625 182.539062 38.898438 C 183.363281 38.902344 184.070312 38.617188 184.664062 38.046875 C 185.011719 37.710938 185.273438 37.324219 185.453125 36.875 C 185.628906 36.429688 185.703125 35.964844 185.679688 35.484375 C 185.675781 34.984375 185.632812 34.484375 185.550781 33.992188 L 185.273438 32.390625 C 185.210938 32.015625 185.179688 31.640625 185.183594 31.261719 C 185.207031 30.09375 185.402344 28.957031 185.761719 27.847656 C 186.109375 26.78125 186.546875 25.757812 187.074219 24.769531 Z M 187.074219 24.769531 " fill-opacity="1" fill-rule="nonzero"/><path fill="#ffffff" d="M 205.960938 20.828125 C 206.148438 20.515625 206.410156 20.289062 206.746094 20.148438 L 206.746094 18.746094 C 205.457031 18.753906 204.222656 19.023438 203.042969 19.554688 C 202.234375 19.964844 201.59375 20.558594 201.121094 21.339844 C 200.65625 22.121094 200.425781 22.964844 200.4375 23.875 C 200.410156 24.53125 200.53125 25.15625 200.796875 25.753906 C 201.0625 26.351562 201.449219 26.859375 201.953125 27.277344 C 202.277344 27.542969 202.628906 27.765625 203.003906 27.945312 C 203.507812 28.164062 204.023438 28.347656 204.550781 28.496094 C 204.011719 28.652344 203.484375 28.839844 202.96875 29.058594 C 202.570312 29.238281 202.195312 29.460938 201.847656 29.722656 C 201.210938 30.191406 200.722656 30.785156 200.382812 31.5 C 200.03125 32.238281 199.859375 33.019531 199.871094 33.839844 C 199.84375 34.542969 199.976562 35.21875 200.261719 35.863281 C 200.546875 36.507812 200.960938 37.058594 201.503906 37.511719 C 201.816406 37.769531 202.152344 37.984375 202.515625 38.160156 C 202.949219 38.339844 203.394531 38.480469 203.851562 38.578125 C 204.703125 38.773438 205.566406 38.871094 206.441406 38.875 L 206.734375 38.898438 L 206.734375 37.398438 C 206.558594 37.355469 206.398438 37.285156 206.253906 37.183594 C 206.128906 37.070312 206.039062 36.9375 205.984375 36.78125 C 205.847656 36.460938 205.785156 36.128906 205.796875 35.78125 L 205.796875 30.859375 C 205.773438 30.5 205.84375 30.15625 206.007812 29.835938 C 206.191406 29.566406 206.4375 29.378906 206.746094 29.28125 L 206.746094 27.761719 C 206.566406 27.699219 206.402344 27.601562 206.261719 27.472656 C 206.136719 27.34375 206.035156 27.195312 205.960938 27.03125 C 205.847656 26.738281 205.792969 26.4375 205.796875 26.125 L 205.796875 22.152344 C 205.765625 21.699219 205.820312 21.257812 205.960938 20.828125 Z M 214.113281 31.5 C 213.773438 30.785156 213.285156 30.191406 212.648438 29.722656 C 212.300781 29.460938 211.929688 29.238281 211.535156 29.058594 C 211.011719 28.84375 210.480469 28.65625 209.941406 28.496094 C 210.46875 28.347656 210.984375 28.164062 211.488281 27.945312 C 211.867188 27.765625 212.222656 27.542969 212.546875 27.277344 C 213.050781 26.855469 213.433594 26.347656 213.699219 25.75 C 213.964844 25.152344 214.082031 24.527344 214.058594 23.875 C 214.070312 22.964844 213.839844 22.117188 213.363281 21.339844 C 212.898438 20.558594 212.261719 19.964844 211.449219 19.554688 C 210.269531 19.023438 209.035156 18.753906 207.738281 18.746094 L 207.738281 20.148438 C 208.082031 20.289062 208.34375 20.515625 208.53125 20.835938 L 208.691406 21.628906 C 208.734375 21.800781 208.765625 21.976562 208.777344 22.152344 L 208.777344 26.125 C 208.75 26.261719 208.714844 26.398438 208.667969 26.527344 C 208.601562 26.765625 208.554688 26.933594 208.515625 27.03125 C 208.460938 27.199219 208.371094 27.347656 208.25 27.472656 C 208.097656 27.601562 207.925781 27.695312 207.738281 27.761719 L 207.738281 29.28125 C 207.914062 29.339844 208.078125 29.425781 208.226562 29.53125 C 208.339844 29.628906 208.433594 29.746094 208.5 29.882812 C 208.570312 30.054688 208.632812 30.230469 208.683594 30.40625 C 208.730469 30.554688 208.761719 30.703125 208.777344 30.859375 L 208.777344 35.78125 C 208.785156 36.128906 208.722656 36.460938 208.585938 36.78125 C 208.527344 36.9375 208.4375 37.074219 208.308594 37.183594 C 208.167969 37.285156 208.011719 37.359375 207.839844 37.398438 L 207.839844 38.898438 L 208.035156 38.875 C 208.914062 38.855469 209.78125 38.753906 210.644531 38.578125 C 211.101562 38.488281 211.546875 38.351562 211.976562 38.167969 C 212.347656 38 212.683594 37.78125 212.992188 37.511719 C 213.535156 37.058594 213.949219 36.511719 214.234375 35.867188 C 214.523438 35.21875 214.652344 34.542969 214.621094 33.839844 C 214.628906 33.019531 214.460938 32.238281 214.113281 31.5 Z M 214.113281 31.5 " fill-opacity="1" fill-rule="nonzero"/><g clip-path="url(#512262159f)"><path fill="#ffffff" d="M 350.117188 351.460938 L 350.117188 353.265625 C 348.050781 353.257812 345.984375 353.226562 343.917969 353.175781 C 335.289062 352.9375 326.667969 352.332031 318.054688 351.359375 C 309.449219 350.394531 300.875 349.089844 292.367188 347.367188 C 283.859375 345.644531 275.429688 343.570312 267.097656 341.148438 C 258.765625 338.722656 250.53125 335.941406 242.445312 332.777344 C 226.242188 326.480469 210.695312 318.84375 195.808594 309.867188 C 180.953125 300.90625 166.964844 290.746094 153.851562 279.390625 C 140.734375 268.03125 128.679688 255.644531 117.683594 242.222656 C 106.667969 228.789062 96.878906 214.511719 88.320312 199.394531 C 79.761719 184.273438 72.558594 168.535156 66.710938 152.175781 C 60.855469 135.792969 56.457031 119.027344 53.515625 101.878906 C 53.164062 99.746094 52.78125 97.601562 52.46875 95.460938 L 51.570312 89.027344 C 51.3125 86.878906 51.074219 84.730469 50.824219 82.582031 C 50.695312 81.503906 50.59375 80.421875 50.503906 79.347656 L 50.214844 76.117188 C 49.488281 67.496094 49.117188 58.871094 49.101562 50.242188 L 49.101562 2.488281 L 50.90625 2.488281 L 50.90625 50.242188 C 50.921875 58.816406 51.292969 67.390625 52.011719 75.964844 L 52.296875 79.171875 C 52.386719 80.25 52.492188 81.316406 52.617188 82.390625 C 52.859375 84.523438 53.09375 86.65625 53.363281 88.800781 L 54.253906 95.195312 C 54.566406 97.328125 54.941406 99.449219 55.285156 101.574219 C 58.214844 118.617188 62.589844 135.28125 68.410156 151.566406 C 74.222656 167.828125 81.382812 183.476562 89.890625 198.507812 C 98.398438 213.539062 108.128906 227.730469 119.078125 241.085938 C 130.015625 254.410156 141.992188 266.722656 155.011719 278.023438 C 168.066406 289.300781 181.976562 299.402344 196.738281 308.328125 C 211.539062 317.246094 226.996094 324.839844 243.101562 331.101562 C 251.136719 334.242188 259.300781 337.015625 267.601562 339.417969 C 275.882812 341.832031 284.257812 343.894531 292.726562 345.597656 C 301.171875 347.3125 309.699219 348.609375 318.253906 349.578125 C 326.804688 350.53125 335.378906 351.128906 343.964844 351.367188 C 346.015625 351.421875 348.066406 351.453125 350.117188 351.460938 Z M 350.117188 351.460938 " fill-opacity="1" fill-rule="nonzero"/></g><g clip-path="url(#ac55e5fda1)"><path fill="#ffffff" d="M 350.117188 327.246094 L 350.117188 329.042969 C 348.265625 329.035156 346.421875 329.003906 344.566406 328.960938 C 336.625 328.746094 328.675781 328.183594 320.761719 327.296875 C 312.839844 326.398438 304.953125 325.210938 297.132812 323.617188 C 289.308594 322.039062 281.5625 320.132812 273.890625 317.902344 C 266.226562 315.675781 258.652344 313.113281 251.21875 310.210938 C 236.316406 304.410156 222.015625 297.382812 208.316406 289.128906 C 194.644531 280.871094 181.769531 271.519531 169.6875 261.070312 C 157.632812 250.609375 146.539062 239.207031 136.414062 226.871094 C 126.277344 214.511719 117.273438 201.378906 109.402344 187.46875 C 101.53125 173.558594 94.902344 159.078125 89.523438 144.027344 C 84.136719 128.964844 80.085938 113.546875 77.382812 97.777344 C 77.0625 95.804688 76.71875 93.84375 76.421875 91.871094 L 75.597656 85.949219 L 74.910156 80.019531 C 74.789062 79.027344 74.699219 78.039062 74.605469 77.039062 L 74.347656 74.066406 C 73.675781 66.136719 73.335938 58.191406 73.328125 50.242188 L 73.328125 2.488281 L 75.125 2.488281 L 75.125 50.242188 C 75.140625 58.128906 75.480469 66.019531 76.140625 73.914062 L 76.40625 76.871094 C 76.488281 77.863281 76.582031 78.839844 76.703125 79.828125 L 77.390625 85.71875 L 78.203125 91.605469 C 78.496094 93.5625 78.835938 95.515625 79.15625 97.472656 C 81.847656 113.136719 85.867188 128.453125 91.21875 143.417969 C 96.5625 158.371094 103.148438 172.761719 110.972656 186.582031 C 118.792969 200.402344 127.738281 213.453125 137.808594 225.734375 C 147.859375 238.007812 158.882812 249.339844 170.878906 259.722656 C 182.871094 270.105469 195.660156 279.394531 209.25 287.589844 C 222.855469 295.789062 237.0625 302.769531 251.867188 308.53125 C 259.253906 311.414062 266.761719 313.960938 274.390625 316.171875 C 282.007812 318.386719 289.703125 320.285156 297.480469 321.855469 C 305.257812 323.433594 313.09375 324.625 320.960938 325.507812 C 328.828125 326.390625 336.722656 326.949219 344.621094 327.160156 C 346.449219 327.207031 348.289062 327.238281 350.117188 327.246094 Z M 350.117188 327.246094 " fill-opacity="1" fill-rule="nonzero"/></g><g clip-path="url(#b346f8d9f7)"><path fill="#ffffff" d="M 350.117188 303.023438 L 350.117188 304.828125 C 348.484375 304.820312 346.855469 304.796875 345.222656 304.761719 C 337.957031 304.5625 330.695312 304.035156 323.460938 303.226562 C 316.226562 302.421875 309.03125 301.332031 301.886719 299.875 C 294.753906 298.433594 287.679688 296.695312 280.671875 294.652344 C 273.683594 292.617188 266.789062 290.277344 259.992188 287.632812 C 246.386719 282.34375 233.332031 275.929688 220.828125 268.394531 C 208.335938 260.863281 196.578125 252.320312 185.554688 242.773438 C 174.527344 233.226562 164.390625 222.8125 155.148438 211.527344 C 145.894531 200.242188 137.675781 188.246094 130.484375 175.546875 C 123.296875 162.84375 117.246094 149.625 112.332031 135.878906 C 107.414062 122.132812 103.71875 108.0625 101.25 93.671875 C 100.960938 91.871094 100.640625 90.082031 100.378906 88.28125 L 99.617188 82.878906 L 98.992188 77.457031 C 98.886719 76.550781 98.800781 75.644531 98.726562 74.738281 L 98.480469 72.023438 C 97.871094 64.777344 97.558594 57.515625 97.542969 50.242188 L 97.542969 2.488281 L 99.34375 2.488281 L 99.34375 50.242188 C 99.359375 57.449219 99.671875 64.675781 100.273438 71.871094 L 100.515625 74.570312 C 100.59375 75.46875 100.675781 76.367188 100.785156 77.269531 L 101.410156 82.648438 L 102.15625 88.015625 C 102.421875 89.796875 102.734375 91.582031 103.023438 93.367188 C 105.476562 107.65625 109.144531 121.625 114.023438 135.277344 C 118.90625 148.921875 124.914062 162.050781 132.054688 174.660156 C 139.191406 187.269531 147.355469 199.179688 156.542969 210.386719 C 165.71875 221.589844 175.78125 231.933594 186.730469 241.414062 C 197.679688 250.890625 209.355469 259.371094 221.757812 266.847656 C 234.171875 274.332031 247.136719 280.703125 260.648438 285.957031 C 267.378906 288.585938 274.226562 290.910156 281.183594 292.929688 C 288.128906 294.949219 295.148438 296.675781 302.246094 298.105469 C 309.328125 299.546875 316.484375 300.628906 323.664062 301.4375 C 330.847656 302.246094 338.058594 302.761719 345.269531 302.953125 C 346.886719 302.992188 348.5 303.023438 350.117188 303.023438 Z M 350.117188 303.023438 " fill-opacity="1" fill-rule="nonzero"/></g><g clip-path="url(#b7dc54d81c)"><path fill="#ffffff" d="M 350.117188 278.808594 L 350.117188 280.605469 C 348.699219 280.597656 347.289062 280.574219 345.871094 280.546875 C 339.285156 280.371094 332.714844 279.898438 326.167969 279.164062 C 319.617188 278.433594 313.101562 277.441406 306.652344 276.125 C 300.199219 274.828125 293.800781 273.257812 287.464844 271.40625 C 281.144531 269.570312 274.894531 267.457031 268.757812 265.066406 C 256.453125 260.273438 244.648438 254.46875 233.335938 247.65625 C 222.03125 240.835938 211.386719 233.105469 201.40625 224.464844 C 191.425781 215.820312 182.25 206.394531 173.886719 196.179688 C 165.511719 185.96875 158.074219 175.117188 151.566406 163.625 C 145.0625 152.136719 139.585938 140.171875 135.140625 127.742188 C 130.695312 115.308594 127.355469 102.582031 125.125 89.570312 C 124.855469 87.9375 124.566406 86.316406 124.332031 84.691406 L 123.644531 79.796875 L 123.082031 74.898438 C 122.972656 74.074219 122.90625 73.25 122.828125 72.4375 L 122.617188 69.972656 C 122.066406 63.410156 121.78125 56.832031 121.761719 50.242188 L 121.761719 2.488281 L 123.566406 2.488281 L 123.566406 50.242188 C 123.582031 56.78125 123.863281 63.308594 124.40625 69.820312 L 124.628906 72.261719 C 124.695312 73.074219 124.773438 73.890625 124.871094 74.699219 L 125.4375 79.570312 L 126.113281 84.425781 C 126.34375 86.039062 126.632812 87.648438 126.890625 89.257812 C 129.109375 102.167969 132.425781 114.792969 136.839844 127.128906 C 141.25 139.46875 146.679688 151.335938 153.132812 162.738281 C 159.585938 174.136719 166.964844 184.902344 175.273438 195.035156 C 183.589844 205.15625 192.695312 214.511719 202.585938 223.097656 C 212.496094 231.664062 223.058594 239.335938 234.265625 246.117188 C 245.488281 252.878906 257.203125 258.632812 269.414062 263.378906 C 275.503906 265.769531 281.691406 267.867188 287.976562 269.675781 C 294.25 271.503906 300.59375 273.066406 307.003906 274.363281 C 313.40625 275.667969 319.878906 276.644531 326.363281 277.375 C 332.867188 278.097656 339.382812 278.570312 345.925781 278.746094 C 347.320312 278.777344 348.714844 278.800781 350.117188 278.808594 Z M 350.117188 278.808594 " fill-opacity="1" fill-rule="nonzero"/></g><g clip-path="url(#5c438a9668)"><path fill="#ffffff" d="M 350.117188 254.59375 L 350.117188 256.390625 C 348.921875 256.382812 347.722656 256.359375 346.527344 256.339844 C 340.617188 256.179688 334.734375 255.75 328.871094 255.101562 C 323.019531 254.441406 317.179688 253.5625 311.410156 252.382812 C 305.636719 251.214844 299.921875 249.808594 294.257812 248.167969 C 288.601562 246.519531 283.027344 244.628906 277.53125 242.488281 C 266.527344 238.207031 255.96875 233.015625 245.851562 226.925781 C 235.738281 220.808594 226.207031 213.882812 217.257812 206.15625 C 208.335938 198.402344 200.121094 189.957031 192.617188 180.828125 C 185.125 171.691406 178.46875 161.984375 172.644531 151.703125 C 166.824219 141.421875 161.925781 130.71875 157.945312 119.59375 C 153.972656 108.476562 150.984375 97.097656 148.988281 85.460938 C 148.753906 84.003906 148.496094 82.558594 148.28125 81.101562 L 147.671875 76.726562 L 147.167969 72.328125 C 147.070312 71.597656 147 70.867188 146.941406 70.132812 L 146.75 67.929688 C 146.253906 62.054688 146 56.15625 145.988281 50.242188 L 145.988281 2.488281 L 147.785156 2.488281 L 147.785156 50.242188 C 147.800781 56.101562 148.050781 61.949219 148.539062 67.777344 L 148.738281 69.957031 C 148.800781 70.691406 148.859375 71.414062 148.953125 72.136719 L 149.457031 76.492188 L 150.066406 80.835938 C 150.269531 82.277344 150.539062 83.714844 150.765625 85.15625 C 152.746094 96.691406 155.703125 107.96875 159.648438 118.992188 C 163.589844 130.015625 168.449219 140.625 174.21875 150.816406 C 179.988281 161.007812 186.585938 170.628906 194.011719 179.683594 C 201.433594 188.753906 209.578125 197.121094 218.4375 204.792969 C 227.296875 212.464844 236.746094 219.328125 246.78125 225.378906 C 256.808594 231.421875 267.277344 236.5625 278.1875 240.804688 C 283.625 242.9375 289.164062 244.804688 294.769531 246.4375 C 300.371094 248.066406 306.042969 249.464844 311.757812 250.613281 C 317.484375 251.789062 323.269531 252.648438 329.078125 253.3125 C 334.878906 253.960938 340.710938 254.367188 346.574219 254.539062 C 347.753906 254.5625 348.933594 254.585938 350.117188 254.59375 Z M 350.117188 254.59375 " fill-opacity="1" fill-rule="nonzero"/></g><g clip-path="url(#30972a5bd4)"><path fill="#ffffff" d="M 350.117188 230.347656 L 350.117188 232.144531 C 349.132812 232.144531 348.15625 232.128906 347.175781 232.109375 C 341.953125 231.96875 336.753906 231.589844 331.578125 231.011719 C 326.402344 230.429688 321.265625 229.660156 316.171875 228.617188 C 311.082031 227.589844 306.042969 226.347656 301.058594 224.898438 C 296.070312 223.445312 291.15625 221.777344 286.3125 219.890625 C 276.605469 216.113281 267.292969 211.539062 258.371094 206.164062 C 249.429688 200.773438 241.011719 194.664062 233.117188 187.828125 C 225.226562 180.996094 217.972656 173.539062 211.359375 165.460938 C 204.753906 157.402344 198.882812 148.835938 193.746094 139.769531 C 188.613281 130.699219 184.289062 121.257812 180.777344 111.445312 C 177.273438 101.644531 174.640625 91.613281 172.878906 81.351562 C 172.683594 80.066406 172.4375 78.792969 172.253906 77.503906 L 171.714844 73.640625 L 171.273438 69.769531 C 171.179688 69.121094 171.125 68.472656 171.074219 67.824219 L 170.898438 65.878906 C 170.464844 60.691406 170.238281 55.476562 170.226562 50.242188 L 170.226562 2.488281 L 172.027344 2.488281 L 172.027344 50.242188 C 172.042969 55.421875 172.265625 60.585938 172.695312 65.726562 L 172.863281 67.65625 C 172.917969 68.296875 172.980469 68.9375 173.054688 69.578125 L 173.496094 73.417969 L 174.039062 77.238281 C 174.222656 78.511719 174.457031 79.777344 174.65625 81.046875 C 176.394531 91.207031 179 101.132812 182.476562 110.835938 C 185.953125 120.550781 190.230469 129.898438 195.316406 138.878906 C 200.398438 147.859375 206.210938 156.339844 212.753906 164.316406 C 219.300781 172.316406 226.480469 179.703125 234.296875 186.46875 C 242.109375 193.234375 250.445312 199.285156 259.300781 204.625 C 268.136719 209.945312 277.359375 214.476562 286.96875 218.21875 C 291.75 220.089844 296.628906 221.734375 301.558594 223.167969 C 306.492188 224.601562 311.484375 225.835938 316.53125 226.847656 C 321.570312 227.886719 326.660156 228.640625 331.785156 229.21875 C 336.90625 229.796875 342.050781 230.164062 347.21875 230.308594 C 348.1875 230.332031 349.148438 230.347656 350.117188 230.347656 Z M 350.117188 230.347656 " fill-opacity="1" fill-rule="nonzero"/></g><g clip-path="url(#6a0224b3d1)"><path fill="#ffffff" d="M 350.117188 206.117188 L 350.117188 207.914062 C 349.355469 207.90625 348.585938 207.894531 347.824219 207.878906 C 343.285156 207.753906 338.773438 207.421875 334.285156 206.925781 C 329.800781 206.414062 325.34375 205.757812 320.9375 204.851562 C 316.53125 203.960938 312.167969 202.886719 307.847656 201.628906 C 303.542969 200.378906 299.28125 198.945312 295.097656 197.304688 C 286.6875 194.03125 278.621094 190.0625 270.894531 185.40625 C 263.136719 180.734375 255.832031 175.433594 248.984375 169.503906 C 242.136719 163.574219 235.847656 157.105469 230.113281 150.09375 C 227.25 146.609375 224.542969 143.007812 221.992188 139.289062 C 219.441406 135.574219 217.054688 131.75 214.832031 127.828125 C 212.613281 123.902344 210.5625 119.890625 208.6875 115.789062 C 206.8125 111.691406 205.117188 107.515625 203.601562 103.269531 C 202.085938 99.023438 200.753906 94.71875 199.609375 90.355469 C 198.464844 85.996094 197.507812 81.59375 196.742188 77.148438 C 195.976562 72.707031 195.40625 68.238281 195.027344 63.742188 C 194.644531 59.25 194.460938 54.75 194.46875 50.242188 L 194.46875 2.488281 L 196.265625 2.488281 L 196.265625 50.242188 C 196.257812 54.699219 196.441406 59.148438 196.816406 63.589844 C 197.191406 68.03125 197.757812 72.449219 198.511719 76.84375 C 199.269531 81.234375 200.214844 85.585938 201.34375 89.898438 C 202.476562 94.210938 203.792969 98.464844 205.292969 102.664062 C 206.789062 106.863281 208.46875 110.988281 210.320312 115.042969 C 212.175781 119.09375 214.203125 123.0625 216.398438 126.941406 C 218.59375 130.820312 220.957031 134.597656 223.476562 138.273438 C 226 141.949219 228.675781 145.507812 231.507812 148.953125 C 237.195312 155.875 243.417969 162.277344 250.183594 168.152344 C 256.957031 173.992188 264.171875 179.234375 271.824219 183.867188 C 279.460938 188.46875 287.433594 192.386719 295.742188 195.621094 C 299.882812 197.246094 304.089844 198.671875 308.359375 199.898438 C 312.621094 201.140625 316.933594 202.203125 321.296875 203.082031 C 325.648438 203.984375 330.054688 204.636719 334.492188 205.132812 C 338.925781 205.628906 343.386719 205.957031 347.875 206.078125 C 348.621094 206.09375 349.371094 206.109375 350.117188 206.117188 Z M 350.117188 206.117188 " fill-opacity="1" fill-rule="nonzero"/></g><g clip-path="url(#2e667dc182)"><path fill="#ffffff" d="M 350.117188 181.878906 L 350.117188 183.679688 C 349.566406 183.671875 349.027344 183.664062 348.476562 183.648438 C 344.621094 183.539062 340.792969 183.257812 336.992188 182.839844 C 333.203125 182.40625 329.429688 181.855469 325.703125 181.085938 C 321.972656 180.316406 318.292969 179.425781 314.648438 178.367188 C 311.003906 177.304688 307.40625 176.101562 303.871094 174.707031 C 296.765625 171.941406 289.945312 168.59375 283.410156 164.660156 C 270.171875 156.675781 258.65625 146.699219 248.863281 134.738281 C 246.441406 131.789062 244.152344 128.742188 241.992188 125.59375 C 239.835938 122.449219 237.816406 119.214844 235.933594 115.894531 C 234.054688 112.574219 232.320312 109.179688 230.734375 105.707031 C 229.148438 102.238281 227.710938 98.707031 226.429688 95.113281 C 225.148438 91.519531 224.023438 87.878906 223.054688 84.1875 C 222.085938 80.496094 221.277344 76.769531 220.628906 73.011719 C 219.984375 69.25 219.5 65.46875 219.179688 61.667969 C 218.855469 57.863281 218.699219 54.054688 218.707031 50.242188 L 218.707031 2.488281 L 220.507812 2.488281 L 220.507812 50.242188 C 220.5 54.003906 220.65625 57.761719 220.972656 61.511719 C 221.289062 65.261719 221.769531 68.992188 222.40625 72.703125 C 223.042969 76.410156 223.84375 80.085938 224.796875 83.726562 C 225.753906 87.367188 226.863281 90.960938 228.128906 94.503906 C 229.394531 98.050781 230.808594 101.535156 232.371094 104.957031 C 233.9375 108.378906 235.648438 111.730469 237.5 115.003906 C 239.355469 118.28125 241.347656 121.46875 243.476562 124.574219 C 245.605469 127.679688 247.863281 130.683594 250.25 133.59375 C 255.066406 139.445312 260.335938 144.855469 266.054688 149.828125 C 271.777344 154.769531 277.871094 159.195312 284.339844 163.113281 C 290.785156 166.996094 297.511719 170.300781 304.523438 173.03125 C 308.007812 174.402344 311.5625 175.589844 315.152344 176.636719 C 318.742188 177.679688 322.386719 178.570312 326.058594 179.316406 C 329.726562 180.082031 333.453125 180.621094 337.195312 181.046875 C 340.945312 181.460938 344.71875 181.742188 348.523438 181.847656 C 349.058594 181.855469 349.589844 181.871094 350.117188 181.878906 Z M 350.117188 181.878906 " fill-opacity="1" fill-rule="nonzero"/></g><g clip-path="url(#ae0058cd70)"><path fill="#ffffff" d="M 350.117188 375.675781 L 350.117188 377.472656 C 347.835938 377.472656 345.550781 377.4375 343.273438 377.382812 C 333.957031 377.128906 324.648438 376.476562 315.347656 375.429688 C 306.066406 374.378906 296.796875 372.96875 287.609375 371.109375 C 278.425781 369.25 269.308594 367.015625 260.304688 364.394531 C 251.304688 361.773438 242.40625 358.761719 233.679688 355.355469 C 216.175781 348.550781 199.378906 340.300781 183.292969 330.605469 C 167.253906 320.929688 152.152344 309.960938 137.992188 297.703125 C 123.832031 285.441406 110.816406 272.0625 98.945312 257.574219 C 87.050781 243.0625 76.480469 227.644531 67.238281 211.3125 C 57.996094 194.984375 50.21875 177.984375 43.902344 160.316406 C 37.578125 142.621094 32.824219 124.507812 29.640625 105.988281 C 29.265625 103.679688 28.863281 101.367188 28.519531 99.058594 L 27.550781 92.101562 C 27.261719 89.78125 27.003906 87.457031 26.742188 85.140625 C 26.605469 83.984375 26.492188 82.816406 26.394531 81.652344 L 26.082031 78.167969 C 25.296875 68.859375 24.894531 59.550781 24.882812 50.242188 L 24.882812 2.488281 L 26.683594 2.488281 L 26.683594 50.242188 C 26.699219 59.492188 27.097656 68.75 27.878906 78.015625 L 28.183594 81.484375 C 28.285156 82.640625 28.398438 83.792969 28.535156 84.949219 C 28.792969 87.261719 29.054688 89.570312 29.335938 91.878906 L 30.304688 98.785156 C 30.640625 101.085938 31.042969 103.378906 31.417969 105.683594 C 34.582031 124.101562 39.308594 142.113281 45.59375 159.714844 C 51.878906 177.285156 59.613281 194.1875 68.808594 210.425781 C 78 226.664062 88.511719 242 100.339844 256.429688 C 112.144531 270.839844 125.089844 284.144531 139.175781 296.335938 C 153.257812 308.53125 168.277344 319.4375 184.230469 329.058594 C 200.222656 338.699219 216.921875 346.90625 234.328125 353.679688 C 243.015625 357.070312 251.84375 360.066406 260.808594 362.664062 C 269.765625 365.277344 278.820312 367.503906 287.96875 369.339844 C 297.09375 371.191406 306.308594 372.59375 315.546875 373.640625 C 324.785156 374.683594 334.0625 375.332031 343.316406 375.582031 C 345.589844 375.636719 347.84375 375.675781 350.117188 375.675781 Z M 350.117188 375.675781 " fill-opacity="1" fill-rule="nonzero"/></g><g mask="url(#7803825f36)"><g transform="matrix(1, 0, 0, 1, 26, 2)"><g clip-path="url(#e8e02cdf64)"><g clip-path="url(#e02d49aec2)"><path fill="url(#bcbfae18e2)" d="M 0.375 8.359375 L 192.742188 8.359375 L 192.742188 0.382812 L 0.375 0.382812 Z M 0.375 8.359375 " fill-rule="nonzero"/></g></g></g></g><g mask="url(#fa13a21cdd)"><g transform="matrix(1, 0, 0, 1, 26, 8)"><g clip-path="url(#33ea405845)"><g clip-path="url(#70a6e19972)"><path fill="#f15a24" d="M 0.378906 0.421875 L 192.742188 0.421875 L 192.742188 4.308594 L 0.378906 4.308594 Z M 0.378906 0.421875 " fill-opacity="1" fill-rule="nonzero"/></g></g></g></g><g mask="url(#0dc091dfe9)"><g transform="matrix(1, 0, 0, 1, 7, 0)"><g clip-path="url(#f3504b8c44)"><g clip-path="url(#be0bd251b0)"><path fill="#ffffff" d="M 0.941406 -0.339844 L 226.082031 -0.339844 L 226.082031 4.089844 L 0.941406 4.089844 Z M 0.941406 -0.339844 " fill-opacity="1" fill-rule="nonzero"/></g></g></g></g><g mask="url(#35076ec22f)"><g transform="matrix(1, 0, 0, 1, 26, 10)"><g clip-path="url(#897cf2107b)"><g clip-path="url(#1ac1391fc1)"><path fill="#f15a24" d="M 0.378906 0.367188 L 192.742188 0.367188 L 192.742188 4.253906 L 0.378906 4.253906 Z M 0.378906 0.367188 " fill-opacity="1" fill-rule="nonzero"/></g></g></g></g></svg>